<?xml version="1.0" encoding="UTF-8" ?>
<svg version="1.1" width="39" height="23" xmlns="http://www.w3.org/2000/svg" shape-rendering="crispEdges">
<rect x="17" y="0" width="1" height="1" fill="#8B7C99" />
<rect x="18" y="0" width="1" height="1" fill="#8B7C99" />
<rect x="19" y="0" width="1" height="1" fill="#8B7C99" />
<rect x="20" y="0" width="1" height="1" fill="#8B7C99" />
<rect x="21" y="0" width="1" height="1" fill="#8B7C99" />
<rect x="16" y="1" width="1" height="1" fill="#8B7C99" />
<rect x="17" y="1" width="1" height="1" fill="#C9C7EC" />
<rect x="18" y="1" width="1" height="1" fill="#C9C7EC" />
<rect x="19" y="1" width="1" height="1" fill="#C9C7EC" />
<rect x="20" y="1" width="1" height="1" fill="#C9C7EC" />
<rect x="21" y="1" width="1" height="1" fill="#C9C7EC" />
<rect x="22" y="1" width="1" height="1" fill="#8B7C99" />
<rect x="5" y="2" width="1" height="1" fill="#EDEDED" />
<rect x="6" y="2" width="1" height="1" fill="#EDEDED" />
<rect x="15" y="2" width="1" height="1" fill="#8B7C99" />
<rect x="16" y="2" width="1" height="1" fill="#C9C7EC" />
<rect x="17" y="2" width="1" height="1" fill="#C9C7EC" />
<rect x="18" y="2" width="1" height="1" fill="#C9C7EC" />
<rect x="19" y="2" width="1" height="1" fill="#C9C7EC" />
<rect x="20" y="2" width="1" height="1" fill="#C9C7EC" />
<rect x="21" y="2" width="1" height="1" fill="#C9C7EC" />
<rect x="22" y="2" width="1" height="1" fill="#C9C7EC" />
<rect x="23" y="2" width="1" height="1" fill="#8B7C99" />
<rect x="32" y="2" width="1" height="1" fill="#EDEDED" />
<rect x="33" y="2" width="1" height="1" fill="#EDEDED" />
<rect x="4" y="3" width="1" height="1" fill="#EDEDED" />
<rect x="15" y="3" width="1" height="1" fill="#8B7C99" />
<rect x="16" y="3" width="1" height="1" fill="#C9C7EC" />
<rect x="17" y="3" width="1" height="1" fill="#C9C7EC" />
<rect x="18" y="3" width="1" height="1" fill="#C9C7EC" />
<rect x="19" y="3" width="1" height="1" fill="#C9C7EC" />
<rect x="20" y="3" width="1" height="1" fill="#C9C7EC" />
<rect x="21" y="3" width="1" height="1" fill="#C9C7EC" />
<rect x="22" y="3" width="1" height="1" fill="#C9C7EC" />
<rect x="23" y="3" width="1" height="1" fill="#8B7C99" />
<rect x="34" y="3" width="1" height="1" fill="#EDEDED" />
<rect x="6" y="4" width="1" height="1" fill="#EDEDED" />
<rect x="7" y="4" width="1" height="1" fill="#EDEDED" />
<rect x="14" y="4" width="1" height="1" fill="#8B7C99" />
<rect x="15" y="4" width="1" height="1" fill="#C9C7EC" />
<rect x="16" y="4" width="1" height="1" fill="#C9C7EC" />
<rect x="17" y="4" width="1" height="1" fill="#C9C7EC" />
<rect x="18" y="4" width="1" height="1" fill="#C9C7EC" />
<rect x="19" y="4" width="1" height="1" fill="#C9C7EC" />
<rect x="20" y="4" width="1" height="1" fill="#C9C7EC" />
<rect x="21" y="4" width="1" height="1" fill="#C9C7EC" />
<rect x="22" y="4" width="1" height="1" fill="#C9C7EC" />
<rect x="23" y="4" width="1" height="1" fill="#C9C7EC" />
<rect x="24" y="4" width="1" height="1" fill="#8B7C99" />
<rect x="31" y="4" width="1" height="1" fill="#EDEDED" />
<rect x="32" y="4" width="1" height="1" fill="#EDEDED" />
<rect x="5" y="5" width="1" height="1" fill="#EDEDED" />
<rect x="14" y="5" width="1" height="1" fill="#8B7C99" />
<rect x="15" y="5" width="1" height="1" fill="#C9C7EC" />
<rect x="16" y="5" width="1" height="1" fill="#C9C7EC" />
<rect x="17" y="5" width="1" height="1" fill="#8B7C99" />
<rect x="18" y="5" width="1" height="1" fill="#C9C7EC" />
<rect x="19" y="5" width="1" height="1" fill="#C9C7EC" />
<rect x="20" y="5" width="1" height="1" fill="#C9C7EC" />
<rect x="21" y="5" width="1" height="1" fill="#C9C7EC" />
<rect x="22" y="5" width="1" height="1" fill="#8B7C99" />
<rect x="23" y="5" width="1" height="1" fill="#C9C7EC" />
<rect x="24" y="5" width="1" height="1" fill="#8B7C99" />
<rect x="33" y="5" width="1" height="1" fill="#EDEDED" />
<rect x="13" y="6" width="1" height="1" fill="#8B7C99" />
<rect x="14" y="6" width="1" height="1" fill="#C9C7EC" />
<rect x="15" y="6" width="1" height="1" fill="#C9C7EC" />
<rect x="16" y="6" width="1" height="1" fill="#8B7C99" />
<rect x="17" y="6" width="1" height="1" fill="#C9C7EC" />
<rect x="18" y="6" width="1" height="1" fill="#C9C7EC" />
<rect x="19" y="6" width="1" height="1" fill="#C9C7EC" />
<rect x="20" y="6" width="1" height="1" fill="#C9C7EC" />
<rect x="21" y="6" width="1" height="1" fill="#8B7C99" />
<rect x="22" y="6" width="1" height="1" fill="#C9C7EC" />
<rect x="23" y="6" width="1" height="1" fill="#C9C7EC" />
<rect x="24" y="6" width="1" height="1" fill="#C9C7EC" />
<rect x="25" y="6" width="1" height="1" fill="#8B7C99" />
<rect x="7" y="7" width="1" height="1" fill="#8B7C99" />
<rect x="8" y="7" width="1" height="1" fill="#8B7C99" />
<rect x="13" y="7" width="1" height="1" fill="#8B7C99" />
<rect x="14" y="7" width="1" height="1" fill="#C9C7EC" />
<rect x="15" y="7" width="1" height="1" fill="#C9C7EC" />
<rect x="16" y="7" width="1" height="1" fill="#8B7C99" />
<rect x="17" y="7" width="1" height="1" fill="#C9C7EC" />
<rect x="18" y="7" width="1" height="1" fill="#C9C7EC" />
<rect x="19" y="7" width="1" height="1" fill="#C9C7EC" />
<rect x="20" y="7" width="1" height="1" fill="#C9C7EC" />
<rect x="21" y="7" width="1" height="1" fill="#8B7C99" />
<rect x="22" y="7" width="1" height="1" fill="#C9C7EC" />
<rect x="23" y="7" width="1" height="1" fill="#C9C7EC" />
<rect x="24" y="7" width="1" height="1" fill="#C9C7EC" />
<rect x="25" y="7" width="1" height="1" fill="#8B7C99" />
<rect x="30" y="7" width="1" height="1" fill="#8B7C99" />
<rect x="31" y="7" width="1" height="1" fill="#8B7C99" />
<rect x="6" y="8" width="1" height="1" fill="#8B7C99" />
<rect x="7" y="8" width="1" height="1" fill="#C9C7EC" />
<rect x="8" y="8" width="1" height="1" fill="#C9C7EC" />
<rect x="9" y="8" width="1" height="1" fill="#8B7C99" />
<rect x="12" y="8" width="1" height="1" fill="#8B7C99" />
<rect x="13" y="8" width="1" height="1" fill="#C9C7EC" />
<rect x="14" y="8" width="1" height="1" fill="#C9C7EC" />
<rect x="15" y="8" width="1" height="1" fill="#C9C7EC" />
<rect x="16" y="8" width="1" height="1" fill="#8B7C99" />
<rect x="17" y="8" width="1" height="1" fill="#8B7C99" />
<rect x="18" y="8" width="1" height="1" fill="#C9C7EC" />
<rect x="19" y="8" width="1" height="1" fill="#C9C7EC" />
<rect x="20" y="8" width="1" height="1" fill="#C9C7EC" />
<rect x="21" y="8" width="1" height="1" fill="#8B7C99" />
<rect x="22" y="8" width="1" height="1" fill="#8B7C99" />
<rect x="23" y="8" width="1" height="1" fill="#C9C7EC" />
<rect x="24" y="8" width="1" height="1" fill="#C9C7EC" />
<rect x="25" y="8" width="1" height="1" fill="#C9C7EC" />
<rect x="26" y="8" width="1" height="1" fill="#8B7C99" />
<rect x="29" y="8" width="1" height="1" fill="#8B7C99" />
<rect x="30" y="8" width="1" height="1" fill="#C9C7EC" />
<rect x="31" y="8" width="1" height="1" fill="#C9C7EC" />
<rect x="32" y="8" width="1" height="1" fill="#8B7C99" />
<rect x="2" y="9" width="1" height="1" fill="#EDEDED" />
<rect x="6" y="9" width="1" height="1" fill="#8B7C99" />
<rect x="7" y="9" width="1" height="1" fill="#C9C7EC" />
<rect x="8" y="9" width="1" height="1" fill="#C9C7EC" />
<rect x="9" y="9" width="1" height="1" fill="#C9C7EC" />
<rect x="10" y="9" width="1" height="1" fill="#8B7C99" />
<rect x="11" y="9" width="1" height="1" fill="#8B7C99" />
<rect x="12" y="9" width="1" height="1" fill="#C9C7EC" />
<rect x="13" y="9" width="1" height="1" fill="#C9C7EC" />
<rect x="14" y="9" width="1" height="1" fill="#C9C7EC" />
<rect x="15" y="9" width="1" height="1" fill="#C9C7EC" />
<rect x="16" y="9" width="1" height="1" fill="#C9C7EC" />
<rect x="17" y="9" width="1" height="1" fill="#C9C7EC" />
<rect x="18" y="9" width="1" height="1" fill="#C9C7EC" />
<rect x="19" y="9" width="1" height="1" fill="#C9C7EC" />
<rect x="20" y="9" width="1" height="1" fill="#C9C7EC" />
<rect x="21" y="9" width="1" height="1" fill="#C9C7EC" />
<rect x="22" y="9" width="1" height="1" fill="#C9C7EC" />
<rect x="23" y="9" width="1" height="1" fill="#C9C7EC" />
<rect x="24" y="9" width="1" height="1" fill="#C9C7EC" />
<rect x="25" y="9" width="1" height="1" fill="#C9C7EC" />
<rect x="26" y="9" width="1" height="1" fill="#C9C7EC" />
<rect x="27" y="9" width="1" height="1" fill="#8B7C99" />
<rect x="28" y="9" width="1" height="1" fill="#8B7C99" />
<rect x="29" y="9" width="1" height="1" fill="#C9C7EC" />
<rect x="30" y="9" width="1" height="1" fill="#C9C7EC" />
<rect x="31" y="9" width="1" height="1" fill="#C9C7EC" />
<rect x="32" y="9" width="1" height="1" fill="#8B7C99" />
<rect x="36" y="9" width="1" height="1" fill="#EDEDED" />
<rect x="0" y="10" width="1" height="1" fill="#EDEDED" />
<rect x="2" y="10" width="1" height="1" fill="#EDEDED" />
<rect x="7" y="10" width="1" height="1" fill="#8B7C99" />
<rect x="8" y="10" width="1" height="1" fill="#C9C7EC" />
<rect x="9" y="10" width="1" height="1" fill="#C9C7EC" />
<rect x="10" y="10" width="1" height="1" fill="#C9C7EC" />
<rect x="11" y="10" width="1" height="1" fill="#C9C7EC" />
<rect x="12" y="10" width="1" height="1" fill="#C9C7EC" />
<rect x="13" y="10" width="1" height="1" fill="#C9C7EC" />
<rect x="14" y="10" width="1" height="1" fill="#C9C7EC" />
<rect x="15" y="10" width="1" height="1" fill="#C9C7EC" />
<rect x="16" y="10" width="1" height="1" fill="#C9C7EC" />
<rect x="17" y="10" width="1" height="1" fill="#C9C7EC" />
<rect x="18" y="10" width="1" height="1" fill="#8B7C99" />
<rect x="19" y="10" width="1" height="1" fill="#8B7C99" />
<rect x="20" y="10" width="1" height="1" fill="#8B7C99" />
<rect x="21" y="10" width="1" height="1" fill="#C9C7EC" />
<rect x="22" y="10" width="1" height="1" fill="#C9C7EC" />
<rect x="23" y="10" width="1" height="1" fill="#C9C7EC" />
<rect x="24" y="10" width="1" height="1" fill="#C9C7EC" />
<rect x="25" y="10" width="1" height="1" fill="#C9C7EC" />
<rect x="26" y="10" width="1" height="1" fill="#C9C7EC" />
<rect x="27" y="10" width="1" height="1" fill="#C9C7EC" />
<rect x="28" y="10" width="1" height="1" fill="#C9C7EC" />
<rect x="29" y="10" width="1" height="1" fill="#C9C7EC" />
<rect x="30" y="10" width="1" height="1" fill="#C9C7EC" />
<rect x="31" y="10" width="1" height="1" fill="#8B7C99" />
<rect x="36" y="10" width="1" height="1" fill="#EDEDED" />
<rect x="38" y="10" width="1" height="1" fill="#EDEDED" />
<rect x="0" y="11" width="1" height="1" fill="#EDEDED" />
<rect x="3" y="11" width="1" height="1" fill="#EDEDED" />
<rect x="8" y="11" width="1" height="1" fill="#8B7C99" />
<rect x="9" y="11" width="1" height="1" fill="#C9C7EC" />
<rect x="10" y="11" width="1" height="1" fill="#C9C7EC" />
<rect x="11" y="11" width="1" height="1" fill="#C9C7EC" />
<rect x="12" y="11" width="1" height="1" fill="#C9C7EC" />
<rect x="13" y="11" width="1" height="1" fill="#C9C7EC" />
<rect x="14" y="11" width="1" height="1" fill="#C9C7EC" />
<rect x="15" y="11" width="1" height="1" fill="#C9C7EC" />
<rect x="16" y="11" width="1" height="1" fill="#C9C7EC" />
<rect x="17" y="11" width="1" height="1" fill="#8B7C99" />
<rect x="18" y="11" width="1" height="1" fill="#8B7C99" />
<rect x="19" y="11" width="1" height="1" fill="#8B7C99" />
<rect x="20" y="11" width="1" height="1" fill="#8B7C99" />
<rect x="21" y="11" width="1" height="1" fill="#8B7C99" />
<rect x="22" y="11" width="1" height="1" fill="#C9C7EC" />
<rect x="23" y="11" width="1" height="1" fill="#C9C7EC" />
<rect x="24" y="11" width="1" height="1" fill="#C9C7EC" />
<rect x="25" y="11" width="1" height="1" fill="#C9C7EC" />
<rect x="26" y="11" width="1" height="1" fill="#C9C7EC" />
<rect x="27" y="11" width="1" height="1" fill="#C9C7EC" />
<rect x="28" y="11" width="1" height="1" fill="#C9C7EC" />
<rect x="29" y="11" width="1" height="1" fill="#C9C7EC" />
<rect x="30" y="11" width="1" height="1" fill="#8B7C99" />
<rect x="31" y="11" width="1" height="1" fill="#8B7C99" />
<rect x="35" y="11" width="1" height="1" fill="#EDEDED" />
<rect x="38" y="11" width="1" height="1" fill="#EDEDED" />
<rect x="1" y="12" width="1" height="1" fill="#EDEDED" />
<rect x="8" y="12" width="1" height="1" fill="#8B7C99" />
<rect x="9" y="12" width="1" height="1" fill="#C9C7EC" />
<rect x="10" y="12" width="1" height="1" fill="#C9C7EC" />
<rect x="11" y="12" width="1" height="1" fill="#C9C7EC" />
<rect x="12" y="12" width="1" height="1" fill="#C9C7EC" />
<rect x="13" y="12" width="1" height="1" fill="#C9C7EC" />
<rect x="14" y="12" width="1" height="1" fill="#C9C7EC" />
<rect x="15" y="12" width="1" height="1" fill="#C9C7EC" />
<rect x="16" y="12" width="1" height="1" fill="#C9C7EC" />
<rect x="17" y="12" width="1" height="1" fill="#8B7C99" />
<rect x="18" y="12" width="1" height="1" fill="#8B7C99" />
<rect x="19" y="12" width="1" height="1" fill="#C9C7EC" />
<rect x="20" y="12" width="1" height="1" fill="#8B7C99" />
<rect x="21" y="12" width="1" height="1" fill="#8B7C99" />
<rect x="22" y="12" width="1" height="1" fill="#C9C7EC" />
<rect x="23" y="12" width="1" height="1" fill="#C9C7EC" />
<rect x="24" y="12" width="1" height="1" fill="#C9C7EC" />
<rect x="25" y="12" width="1" height="1" fill="#C9C7EC" />
<rect x="26" y="12" width="1" height="1" fill="#C9C7EC" />
<rect x="27" y="12" width="1" height="1" fill="#C9C7EC" />
<rect x="28" y="12" width="1" height="1" fill="#C9C7EC" />
<rect x="29" y="12" width="1" height="1" fill="#C9C7EC" />
<rect x="30" y="12" width="1" height="1" fill="#8B7C99" />
<rect x="37" y="12" width="1" height="1" fill="#EDEDED" />
<rect x="9" y="13" width="1" height="1" fill="#8B7C99" />
<rect x="10" y="13" width="1" height="1" fill="#C9C7EC" />
<rect x="11" y="13" width="1" height="1" fill="#C9C7EC" />
<rect x="12" y="13" width="1" height="1" fill="#C9C7EC" />
<rect x="13" y="13" width="1" height="1" fill="#C9C7EC" />
<rect x="14" y="13" width="1" height="1" fill="#C9C7EC" />
<rect x="15" y="13" width="1" height="1" fill="#C9C7EC" />
<rect x="16" y="13" width="1" height="1" fill="#C9C7EC" />
<rect x="17" y="13" width="1" height="1" fill="#C9C7EC" />
<rect x="18" y="13" width="1" height="1" fill="#C9C7EC" />
<rect x="19" y="13" width="1" height="1" fill="#C9C7EC" />
<rect x="20" y="13" width="1" height="1" fill="#C9C7EC" />
<rect x="21" y="13" width="1" height="1" fill="#C9C7EC" />
<rect x="22" y="13" width="1" height="1" fill="#C9C7EC" />
<rect x="23" y="13" width="1" height="1" fill="#C9C7EC" />
<rect x="24" y="13" width="1" height="1" fill="#C9C7EC" />
<rect x="25" y="13" width="1" height="1" fill="#C9C7EC" />
<rect x="26" y="13" width="1" height="1" fill="#C9C7EC" />
<rect x="27" y="13" width="1" height="1" fill="#C9C7EC" />
<rect x="28" y="13" width="1" height="1" fill="#C9C7EC" />
<rect x="29" y="13" width="1" height="1" fill="#8B7C99" />
<rect x="9" y="14" width="1" height="1" fill="#8B7C99" />
<rect x="10" y="14" width="1" height="1" fill="#C9C7EC" />
<rect x="11" y="14" width="1" height="1" fill="#C9C7EC" />
<rect x="12" y="14" width="1" height="1" fill="#C9C7EC" />
<rect x="13" y="14" width="1" height="1" fill="#C9C7EC" />
<rect x="14" y="14" width="1" height="1" fill="#C9C7EC" />
<rect x="15" y="14" width="1" height="1" fill="#C9C7EC" />
<rect x="16" y="14" width="1" height="1" fill="#C9C7EC" />
<rect x="17" y="14" width="1" height="1" fill="#C9C7EC" />
<rect x="18" y="14" width="1" height="1" fill="#C9C7EC" />
<rect x="19" y="14" width="1" height="1" fill="#C9C7EC" />
<rect x="20" y="14" width="1" height="1" fill="#C9C7EC" />
<rect x="21" y="14" width="1" height="1" fill="#C9C7EC" />
<rect x="22" y="14" width="1" height="1" fill="#C9C7EC" />
<rect x="23" y="14" width="1" height="1" fill="#C9C7EC" />
<rect x="24" y="14" width="1" height="1" fill="#C9C7EC" />
<rect x="25" y="14" width="1" height="1" fill="#C9C7EC" />
<rect x="26" y="14" width="1" height="1" fill="#C9C7EC" />
<rect x="27" y="14" width="1" height="1" fill="#C9C7EC" />
<rect x="28" y="14" width="1" height="1" fill="#C9C7EC" />
<rect x="29" y="14" width="1" height="1" fill="#8B7C99" />
<rect x="10" y="15" width="1" height="1" fill="#8B7C99" />
<rect x="11" y="15" width="1" height="1" fill="#C9C7EC" />
<rect x="12" y="15" width="1" height="1" fill="#8B7C99" />
<rect x="13" y="15" width="1" height="1" fill="#C9C7EC" />
<rect x="14" y="15" width="1" height="1" fill="#C9C7EC" />
<rect x="15" y="15" width="1" height="1" fill="#C9C7EC" />
<rect x="16" y="15" width="1" height="1" fill="#C9C7EC" />
<rect x="17" y="15" width="1" height="1" fill="#C9C7EC" />
<rect x="18" y="15" width="1" height="1" fill="#C9C7EC" />
<rect x="19" y="15" width="1" height="1" fill="#C9C7EC" />
<rect x="20" y="15" width="1" height="1" fill="#C9C7EC" />
<rect x="21" y="15" width="1" height="1" fill="#C9C7EC" />
<rect x="22" y="15" width="1" height="1" fill="#C9C7EC" />
<rect x="23" y="15" width="1" height="1" fill="#C9C7EC" />
<rect x="24" y="15" width="1" height="1" fill="#C9C7EC" />
<rect x="25" y="15" width="1" height="1" fill="#C9C7EC" />
<rect x="26" y="15" width="1" height="1" fill="#8B7C99" />
<rect x="27" y="15" width="1" height="1" fill="#C9C7EC" />
<rect x="28" y="15" width="1" height="1" fill="#8B7C99" />
<rect x="10" y="16" width="1" height="1" fill="#8B7C99" />
<rect x="11" y="16" width="1" height="1" fill="#C9C7EC" />
<rect x="12" y="16" width="1" height="1" fill="#C9C7EC" />
<rect x="13" y="16" width="1" height="1" fill="#8B7C99" />
<rect x="14" y="16" width="1" height="1" fill="#C9C7EC" />
<rect x="15" y="16" width="1" height="1" fill="#C9C7EC" />
<rect x="16" y="16" width="1" height="1" fill="#C9C7EC" />
<rect x="17" y="16" width="1" height="1" fill="#C9C7EC" />
<rect x="18" y="16" width="1" height="1" fill="#C9C7EC" />
<rect x="19" y="16" width="1" height="1" fill="#C9C7EC" />
<rect x="20" y="16" width="1" height="1" fill="#C9C7EC" />
<rect x="21" y="16" width="1" height="1" fill="#C9C7EC" />
<rect x="22" y="16" width="1" height="1" fill="#C9C7EC" />
<rect x="23" y="16" width="1" height="1" fill="#C9C7EC" />
<rect x="24" y="16" width="1" height="1" fill="#C9C7EC" />
<rect x="25" y="16" width="1" height="1" fill="#8B7C99" />
<rect x="26" y="16" width="1" height="1" fill="#C9C7EC" />
<rect x="27" y="16" width="1" height="1" fill="#C9C7EC" />
<rect x="28" y="16" width="1" height="1" fill="#8B7C99" />
<rect x="10" y="17" width="1" height="1" fill="#8B7C99" />
<rect x="11" y="17" width="1" height="1" fill="#C9C7EC" />
<rect x="12" y="17" width="1" height="1" fill="#C9C7EC" />
<rect x="13" y="17" width="1" height="1" fill="#8B7C99" />
<rect x="14" y="17" width="1" height="1" fill="#C9C7EC" />
<rect x="15" y="17" width="1" height="1" fill="#C9C7EC" />
<rect x="16" y="17" width="1" height="1" fill="#C9C7EC" />
<rect x="17" y="17" width="1" height="1" fill="#C9C7EC" />
<rect x="18" y="17" width="1" height="1" fill="#C9C7EC" />
<rect x="19" y="17" width="1" height="1" fill="#C9C7EC" />
<rect x="20" y="17" width="1" height="1" fill="#C9C7EC" />
<rect x="21" y="17" width="1" height="1" fill="#C9C7EC" />
<rect x="22" y="17" width="1" height="1" fill="#C9C7EC" />
<rect x="23" y="17" width="1" height="1" fill="#C9C7EC" />
<rect x="24" y="17" width="1" height="1" fill="#C9C7EC" />
<rect x="25" y="17" width="1" height="1" fill="#8B7C99" />
<rect x="26" y="17" width="1" height="1" fill="#C9C7EC" />
<rect x="27" y="17" width="1" height="1" fill="#C9C7EC" />
<rect x="28" y="17" width="1" height="1" fill="#8B7C99" />
<rect x="10" y="18" width="1" height="1" fill="#8B7C99" />
<rect x="11" y="18" width="1" height="1" fill="#C9C7EC" />
<rect x="12" y="18" width="1" height="1" fill="#C9C7EC" />
<rect x="13" y="18" width="1" height="1" fill="#C9C7EC" />
<rect x="14" y="18" width="1" height="1" fill="#C9C7EC" />
<rect x="15" y="18" width="1" height="1" fill="#C9C7EC" />
<rect x="16" y="18" width="1" height="1" fill="#C9C7EC" />
<rect x="17" y="18" width="1" height="1" fill="#C9C7EC" />
<rect x="18" y="18" width="1" height="1" fill="#C9C7EC" />
<rect x="19" y="18" width="1" height="1" fill="#C9C7EC" />
<rect x="20" y="18" width="1" height="1" fill="#C9C7EC" />
<rect x="21" y="18" width="1" height="1" fill="#C9C7EC" />
<rect x="22" y="18" width="1" height="1" fill="#C9C7EC" />
<rect x="23" y="18" width="1" height="1" fill="#C9C7EC" />
<rect x="24" y="18" width="1" height="1" fill="#C9C7EC" />
<rect x="25" y="18" width="1" height="1" fill="#C9C7EC" />
<rect x="26" y="18" width="1" height="1" fill="#C9C7EC" />
<rect x="27" y="18" width="1" height="1" fill="#C9C7EC" />
<rect x="28" y="18" width="1" height="1" fill="#8B7C99" />
<rect x="10" y="19" width="1" height="1" fill="#8B7C99" />
<rect x="11" y="19" width="1" height="1" fill="#C9C7EC" />
<rect x="12" y="19" width="1" height="1" fill="#C9C7EC" />
<rect x="13" y="19" width="1" height="1" fill="#C9C7EC" />
<rect x="14" y="19" width="1" height="1" fill="#C9C7EC" />
<rect x="15" y="19" width="1" height="1" fill="#C9C7EC" />
<rect x="16" y="19" width="1" height="1" fill="#C9C7EC" />
<rect x="17" y="19" width="1" height="1" fill="#C9C7EC" />
<rect x="18" y="19" width="1" height="1" fill="#C9C7EC" />
<rect x="19" y="19" width="1" height="1" fill="#C9C7EC" />
<rect x="20" y="19" width="1" height="1" fill="#C9C7EC" />
<rect x="21" y="19" width="1" height="1" fill="#C9C7EC" />
<rect x="22" y="19" width="1" height="1" fill="#C9C7EC" />
<rect x="23" y="19" width="1" height="1" fill="#C9C7EC" />
<rect x="24" y="19" width="1" height="1" fill="#C9C7EC" />
<rect x="25" y="19" width="1" height="1" fill="#C9C7EC" />
<rect x="26" y="19" width="1" height="1" fill="#C9C7EC" />
<rect x="27" y="19" width="1" height="1" fill="#C9C7EC" />
<rect x="28" y="19" width="1" height="1" fill="#8B7C99" />
<rect x="9" y="20" width="1" height="1" fill="#8B7C99" />
<rect x="10" y="20" width="1" height="1" fill="#C9C7EC" />
<rect x="11" y="20" width="1" height="1" fill="#C9C7EC" />
<rect x="12" y="20" width="1" height="1" fill="#C9C7EC" />
<rect x="13" y="20" width="1" height="1" fill="#C9C7EC" />
<rect x="14" y="20" width="1" height="1" fill="#8B7C99" />
<rect x="15" y="20" width="1" height="1" fill="#8B7C99" />
<rect x="16" y="20" width="1" height="1" fill="#C9C7EC" />
<rect x="17" y="20" width="1" height="1" fill="#C9C7EC" />
<rect x="18" y="20" width="1" height="1" fill="#C9C7EC" />
<rect x="19" y="20" width="1" height="1" fill="#C9C7EC" />
<rect x="20" y="20" width="1" height="1" fill="#C9C7EC" />
<rect x="21" y="20" width="1" height="1" fill="#C9C7EC" />
<rect x="22" y="20" width="1" height="1" fill="#C9C7EC" />
<rect x="23" y="20" width="1" height="1" fill="#8B7C99" />
<rect x="24" y="20" width="1" height="1" fill="#8B7C99" />
<rect x="25" y="20" width="1" height="1" fill="#C9C7EC" />
<rect x="26" y="20" width="1" height="1" fill="#C9C7EC" />
<rect x="27" y="20" width="1" height="1" fill="#C9C7EC" />
<rect x="28" y="20" width="1" height="1" fill="#C9C7EC" />
<rect x="29" y="20" width="1" height="1" fill="#8B7C99" />
<rect x="8" y="21" width="1" height="1" fill="#8B7C99" />
<rect x="9" y="21" width="1" height="1" fill="#C9C7EC" />
<rect x="10" y="21" width="1" height="1" fill="#C9C7EC" />
<rect x="11" y="21" width="1" height="1" fill="#C9C7EC" />
<rect x="12" y="21" width="1" height="1" fill="#C9C7EC" />
<rect x="13" y="21" width="1" height="1" fill="#8B7C99" />
<rect x="16" y="21" width="1" height="1" fill="#8B7C99" />
<rect x="17" y="21" width="1" height="1" fill="#C9C7EC" />
<rect x="18" y="21" width="1" height="1" fill="#C9C7EC" />
<rect x="19" y="21" width="1" height="1" fill="#C9C7EC" />
<rect x="20" y="21" width="1" height="1" fill="#C9C7EC" />
<rect x="21" y="21" width="1" height="1" fill="#C9C7EC" />
<rect x="22" y="21" width="1" height="1" fill="#8B7C99" />
<rect x="25" y="21" width="1" height="1" fill="#8B7C99" />
<rect x="26" y="21" width="1" height="1" fill="#C9C7EC" />
<rect x="27" y="21" width="1" height="1" fill="#C9C7EC" />
<rect x="28" y="21" width="1" height="1" fill="#C9C7EC" />
<rect x="29" y="21" width="1" height="1" fill="#C9C7EC" />
<rect x="30" y="21" width="1" height="1" fill="#8B7C99" />
<rect x="9" y="22" width="1" height="1" fill="#8B7C99" />
<rect x="10" y="22" width="1" height="1" fill="#8B7C99" />
<rect x="11" y="22" width="1" height="1" fill="#8B7C99" />
<rect x="12" y="22" width="1" height="1" fill="#8B7C99" />
<rect x="17" y="22" width="1" height="1" fill="#8B7C99" />
<rect x="18" y="22" width="1" height="1" fill="#8B7C99" />
<rect x="19" y="22" width="1" height="1" fill="#8B7C99" />
<rect x="20" y="22" width="1" height="1" fill="#8B7C99" />
<rect x="21" y="22" width="1" height="1" fill="#8B7C99" />
<rect x="26" y="22" width="1" height="1" fill="#8B7C99" />
<rect x="27" y="22" width="1" height="1" fill="#8B7C99" />
<rect x="28" y="22" width="1" height="1" fill="#8B7C99" />
<rect x="29" y="22" width="1" height="1" fill="#8B7C99" />
</svg>