<svg xmlns="http://www.w3.org/2000/svg" xmlns:xlink="http://www.w3.org/1999/xlink" width="500" zoomAndPan="magnify" viewBox="0 0 375 374.999991" height="500" preserveAspectRatio="xMidYMid meet" version="1.0"><defs><clipPath id="3fede0d9ff"><path d="M 171.136719 140.207031 L 204.136719 140.207031 L 204.136719 173.207031 L 171.136719 173.207031 Z M 171.136719 140.207031 " clip-rule="nonzero"/></clipPath><clipPath id="7dd26166c2"><path d="M 191.929688 171.445312 L 195.472656 171.445312 L 195.472656 173.207031 L 191.929688 173.207031 Z M 191.929688 171.445312 " clip-rule="nonzero"/></clipPath><clipPath id="a43a7123d0"><path d="M 185 171.445312 L 190.25 171.445312 L 190.25 173.207031 L 185 173.207031 Z M 185 171.445312 " clip-rule="nonzero"/></clipPath><clipPath id="e699b36bf8"><path d="M 185.027344 171.445312 L 190.25 171.445312 L 190.25 173.207031 L 185.027344 173.207031 Z M 185.027344 171.445312 " clip-rule="nonzero"/></clipPath><clipPath id="ddd7ab2812"><path d="M 183.257812 167.996094 L 185.121094 167.996094 L 185.121094 173.207031 L 183.257812 173.207031 Z M 183.257812 167.996094 " clip-rule="nonzero"/></clipPath><clipPath id="c1868eea11"><path d="M 195.378906 171.445312 L 197.246094 171.445312 L 197.246094 173.207031 L 195.378906 173.207031 Z M 195.378906 171.445312 " clip-rule="nonzero"/></clipPath><clipPath id="c85cb0713e"><path d="M 37.5 28.210938 L 328.5 28.210938 L 328.5 337 L 37.5 337 Z M 37.5 28.210938 " clip-rule="nonzero"/></clipPath></defs><g clip-path="url(#3fede0d9ff)"><path fill="#221516" d="M 190.242188 173.207031 L 190.238281 171.46875 L 185.03125 171.472656 L 185.027344 167.996094 L 183.292969 167.996094 L 183.292969 173.207031 L 181.554688 173.207031 L 181.554688 167.996094 L 176.34375 167.996094 L 176.34375 166.257812 L 174.609375 166.261719 L 174.605469 164.523438 L 172.871094 164.523438 L 172.871094 162.789062 L 171.136719 162.789062 L 171.136719 159.3125 L 172.871094 159.3125 L 172.871094 157.574219 L 171.136719 157.578125 L 171.136719 150.628906 L 172.871094 150.628906 L 172.871094 148.890625 L 178.082031 148.890625 L 178.082031 150.628906 L 181.554688 150.628906 L 181.558594 152.367188 L 186.765625 152.363281 L 186.765625 145.417969 L 188.503906 145.417969 L 188.503906 143.683594 L 186.765625 143.683594 L 186.765625 140.207031 L 195.449219 140.207031 L 195.449219 141.945312 L 198.921875 141.945312 L 198.925781 143.683594 L 200.660156 143.679688 L 200.660156 145.417969 L 202.398438 145.417969 L 202.398438 150.628906 L 204.132812 150.628906 L 204.136719 152.367188 L 202.398438 152.367188 L 202.398438 157.574219 L 204.132812 157.574219 L 204.136719 164.523438 L 202.398438 164.523438 L 202.398438 166.257812 L 198.921875 166.261719 L 198.925781 167.996094 L 195.449219 167.996094 L 195.449219 171.46875 L 191.976562 171.472656 L 191.976562 173.207031 L 190.242188 173.207031 " fill-opacity="1" fill-rule="nonzero"/><path fill="#221516" d="M 202.398438 157.574219 L 204.132812 157.574219 L 204.132812 164.523438 L 202.398438 164.523438 L 202.398438 166.257812 L 198.921875 166.257812 L 198.921875 167.996094 L 195.449219 167.996094 L 195.449219 171.46875 L 191.976562 171.46875 L 191.976562 173.207031 L 190.242188 173.207031 L 190.242188 171.46875 L 185.03125 171.46875 L 185.03125 167.996094 L 183.292969 167.996094 L 183.292969 173.207031 L 181.554688 173.207031 L 181.554688 167.996094 L 176.34375 167.996094 L 176.34375 166.257812 L 174.609375 166.257812 L 174.609375 164.523438 L 172.871094 164.523438 L 172.871094 162.789062 L 171.136719 162.789062 L 171.136719 159.3125 L 172.871094 159.3125 L 172.871094 157.574219 L 171.136719 157.574219 L 171.136719 150.628906 L 172.871094 150.628906 L 172.871094 148.890625 L 178.082031 148.890625 L 178.082031 150.628906 L 181.554688 150.628906 L 181.554688 152.367188 L 186.765625 152.367188 L 186.765625 145.417969 L 188.503906 145.417969 L 188.503906 143.683594 L 186.765625 143.683594 L 186.765625 140.207031 L 195.449219 140.207031 L 195.449219 141.945312 L 198.921875 141.945312 L 198.921875 143.683594 L 200.660156 143.683594 L 200.660156 145.417969 L 202.398438 145.417969 L 202.398438 150.628906 L 204.132812 150.628906 L 204.132812 152.367188 L 202.398438 152.367188 L 202.398438 157.574219 " fill-opacity="1" fill-rule="nonzero"/></g><path fill="#c52d25" d="M 197.1875 147.15625 L 197.1875 145.417969 L 193.714844 145.421875 L 193.710938 143.683594 L 188.503906 143.683594 L 188.503906 141.945312 L 195.449219 141.945312 L 195.449219 143.683594 L 198.921875 143.679688 L 198.925781 147.15625 L 197.1875 147.15625 " fill-opacity="1" fill-rule="nonzero"/><path fill="#c52d25" d="M 198.921875 143.683594 L 198.921875 147.15625 L 197.1875 147.15625 L 197.1875 145.417969 L 193.714844 145.417969 L 193.714844 143.683594 L 188.503906 143.683594 L 188.503906 141.945312 L 195.449219 141.945312 L 195.449219 143.683594 L 198.921875 143.683594 " fill-opacity="1" fill-rule="nonzero"/><path fill="#c1673d" d="M 174.609375 162.789062 L 174.605469 159.3125 L 178.082031 159.3125 L 178.082031 161.050781 L 176.34375 161.050781 L 176.347656 162.789062 L 174.609375 162.789062 " fill-opacity="1" fill-rule="nonzero"/><path fill="#c1673d" d="M 178.082031 159.3125 L 178.082031 161.050781 L 176.34375 161.050781 L 176.34375 162.789062 L 174.609375 162.789062 L 174.609375 159.3125 L 178.082031 159.3125 " fill-opacity="1" fill-rule="nonzero"/><path fill="#c1673d" d="M 179.820312 159.3125 L 179.820312 155.839844 L 178.082031 155.839844 L 178.082031 157.574219 L 176.34375 157.578125 L 176.34375 155.839844 L 174.609375 155.839844 L 174.605469 152.367188 L 176.34375 152.363281 L 176.34375 150.628906 L 178.082031 150.628906 L 178.082031 152.367188 L 179.820312 152.363281 L 179.820312 154.101562 L 183.292969 154.101562 L 183.292969 155.839844 L 185.03125 155.839844 L 185.03125 159.3125 L 179.820312 159.3125 " fill-opacity="1" fill-rule="nonzero"/><path fill="#c1673d" d="M 185.03125 159.3125 L 179.820312 159.3125 L 179.820312 155.839844 L 178.082031 155.839844 L 178.082031 157.574219 L 176.34375 157.574219 L 176.34375 155.839844 L 174.609375 155.839844 L 174.609375 152.367188 L 176.34375 152.367188 L 176.34375 150.628906 L 178.082031 150.628906 L 178.082031 152.367188 L 179.820312 152.367188 L 179.820312 154.101562 L 183.292969 154.101562 L 183.292969 155.839844 L 185.03125 155.839844 L 185.03125 159.3125 " fill-opacity="1" fill-rule="nonzero"/><path fill="#c1673d" d="M 178.082031 162.789062 L 178.082031 161.050781 L 179.820312 161.050781 L 179.820312 162.789062 L 178.082031 162.789062 " fill-opacity="1" fill-rule="nonzero"/><path fill="#c1673d" d="M 178.082031 161.050781 L 179.820312 161.050781 L 179.820312 162.789062 L 178.082031 162.789062 L 178.082031 161.050781 " fill-opacity="1" fill-rule="nonzero"/><path fill="#c1673d" d="M 172.871094 152.367188 L 172.871094 150.628906 L 174.609375 150.628906 L 174.609375 152.367188 L 172.871094 152.367188 " fill-opacity="1" fill-rule="nonzero"/><path fill="#c1673d" d="M 174.609375 150.628906 L 174.609375 152.367188 L 172.871094 152.367188 L 172.871094 150.628906 L 174.609375 150.628906 " fill-opacity="1" fill-rule="nonzero"/><path fill="#c1673d" d="M 197.1875 164.523438 L 197.1875 162.789062 L 195.449219 162.789062 L 195.449219 164.523438 L 193.714844 164.523438 L 193.710938 162.789062 L 191.976562 162.789062 L 191.972656 161.050781 L 190.242188 161.050781 L 190.242188 162.789062 L 181.554688 162.789062 L 181.554688 161.050781 L 185.03125 161.050781 L 185.027344 159.3125 L 186.765625 159.3125 L 186.765625 154.101562 L 188.503906 154.101562 L 188.503906 147.15625 L 190.242188 147.15625 L 190.238281 145.417969 L 197.1875 145.417969 L 197.1875 147.15625 L 198.921875 147.15625 L 198.925781 150.628906 L 195.449219 150.628906 L 195.449219 148.890625 L 193.714844 148.890625 L 193.714844 154.101562 L 195.449219 154.101562 L 195.449219 152.367188 L 198.921875 152.363281 L 198.925781 154.101562 L 200.660156 154.101562 L 200.660156 159.3125 L 202.398438 159.3125 L 202.398438 162.789062 L 198.921875 162.789062 L 198.925781 164.523438 L 197.1875 164.523438 " fill-opacity="1" fill-rule="nonzero"/><path fill="#c1673d" d="M 202.398438 159.3125 L 202.398438 162.789062 L 198.921875 162.789062 L 198.921875 164.523438 L 197.1875 164.523438 L 197.1875 162.789062 L 195.449219 162.789062 L 195.449219 164.523438 L 193.714844 164.523438 L 193.714844 162.789062 L 191.976562 162.789062 L 191.976562 161.050781 L 190.242188 161.050781 L 190.242188 162.789062 L 181.554688 162.789062 L 181.554688 161.050781 L 185.03125 161.050781 L 185.03125 159.3125 L 186.765625 159.3125 L 186.765625 154.101562 L 188.503906 154.101562 L 188.503906 147.15625 L 190.242188 147.15625 L 190.242188 145.417969 L 197.1875 145.417969 L 197.1875 147.15625 L 198.921875 147.15625 L 198.921875 150.628906 L 195.449219 150.628906 L 195.449219 148.890625 L 193.714844 148.890625 L 193.714844 154.101562 L 195.449219 154.101562 L 195.449219 152.367188 L 198.921875 152.367188 L 198.921875 154.101562 L 200.660156 154.101562 L 200.660156 159.3125 L 202.398438 159.3125 " fill-opacity="1" fill-rule="nonzero"/><g clip-path="url(#7dd26166c2)"><path fill="#f6871b" d="M 191.976562 173.207031 L 191.972656 171.46875 L 195.449219 171.46875 L 195.449219 173.207031 L 191.976562 173.207031 " fill-opacity="1" fill-rule="nonzero"/><path fill="#f6871b" d="M 195.449219 171.46875 L 195.449219 173.207031 L 191.976562 173.207031 L 191.976562 171.46875 L 195.449219 171.46875 " fill-opacity="1" fill-rule="nonzero"/></g><g clip-path="url(#a43a7123d0)"><path fill="#f6871b" d="M 185.03125 173.207031 L 185.027344 171.46875 L 190.242188 171.46875 L 190.242188 173.207031 L 185.03125 173.207031 " fill-opacity="1" fill-rule="nonzero"/></g><g clip-path="url(#e699b36bf8)"><path fill="#f6871b" d="M 190.242188 171.46875 L 190.242188 173.207031 L 185.03125 173.207031 L 185.03125 171.46875 L 190.242188 171.46875 " fill-opacity="1" fill-rule="nonzero"/></g><path fill="#f6871b" d="M 197.1875 152.367188 L 197.1875 150.628906 L 202.398438 150.628906 L 202.398438 152.367188 L 197.1875 152.367188 " fill-opacity="1" fill-rule="nonzero"/><path fill="#f6871b" d="M 202.398438 150.628906 L 202.398438 152.367188 L 197.1875 152.367188 L 197.1875 150.628906 L 202.398438 150.628906 " fill-opacity="1" fill-rule="nonzero"/><path fill="#88421f" d="M 178.082031 161.050781 L 178.082031 155.839844 L 179.820312 155.839844 L 179.820312 161.050781 L 178.082031 161.050781 " fill-opacity="1" fill-rule="nonzero"/><path fill="#88421f" d="M 179.820312 161.050781 L 178.082031 161.050781 L 178.082031 155.839844 L 179.820312 155.839844 L 179.820312 161.050781 " fill-opacity="1" fill-rule="nonzero"/><path fill="#88421f" d="M 179.820312 166.261719 L 179.820312 164.523438 L 181.554688 164.523438 L 181.558594 166.261719 L 179.820312 166.261719 " fill-opacity="1" fill-rule="nonzero"/><path fill="#88421f" d="M 179.820312 164.523438 L 181.554688 164.523438 L 181.554688 166.257812 L 179.820312 166.257812 L 179.820312 164.523438 " fill-opacity="1" fill-rule="nonzero"/><path fill="#88421f" d="M 174.609375 152.367188 L 174.605469 150.628906 L 176.34375 150.628906 L 176.347656 152.367188 L 174.609375 152.367188 " fill-opacity="1" fill-rule="nonzero"/><path fill="#88421f" d="M 176.34375 152.367188 L 174.609375 152.367188 L 174.609375 150.628906 L 176.34375 150.628906 L 176.34375 152.367188 " fill-opacity="1" fill-rule="nonzero"/><path fill="#88421f" d="M 172.871094 154.105469 L 172.871094 152.367188 L 174.609375 152.363281 L 174.609375 154.105469 L 172.871094 154.105469 " fill-opacity="1" fill-rule="nonzero"/><path fill="#88421f" d="M 172.871094 152.367188 L 174.609375 152.367188 L 174.609375 154.101562 L 172.871094 154.101562 L 172.871094 152.367188 " fill-opacity="1" fill-rule="nonzero"/><g clip-path="url(#ddd7ab2812)"><path fill="#88421f" d="M 183.292969 173.207031 L 183.292969 167.996094 L 185.03125 167.996094 L 185.03125 173.207031 L 183.292969 173.207031 " fill-opacity="1" fill-rule="nonzero"/><path fill="#88421f" d="M 183.292969 167.996094 L 185.03125 167.996094 L 185.03125 173.207031 L 183.292969 173.207031 L 183.292969 167.996094 " fill-opacity="1" fill-rule="nonzero"/></g><path fill="#88421f" d="M 172.871094 161.050781 L 172.871094 159.3125 L 174.609375 159.3125 L 174.609375 161.050781 L 172.871094 161.050781 " fill-opacity="1" fill-rule="nonzero"/><path fill="#88421f" d="M 172.871094 159.3125 L 174.609375 159.3125 L 174.609375 161.050781 L 172.871094 161.050781 L 172.871094 159.3125 " fill-opacity="1" fill-rule="nonzero"/><path fill="#88421f" d="M 185.03125 159.3125 L 185.027344 155.839844 L 183.292969 155.839844 L 183.292969 154.101562 L 186.765625 154.101562 L 186.765625 159.3125 L 185.03125 159.3125 " fill-opacity="1" fill-rule="nonzero"/><path fill="#88421f" d="M 186.765625 159.3125 L 185.03125 159.3125 L 185.03125 155.839844 L 183.292969 155.839844 L 183.292969 154.101562 L 186.765625 154.101562 L 186.765625 159.3125 " fill-opacity="1" fill-rule="nonzero"/><path fill="#88421f" d="M 186.765625 154.105469 L 186.765625 152.367188 L 188.503906 152.363281 L 188.503906 154.105469 L 186.765625 154.105469 " fill-opacity="1" fill-rule="nonzero"/><path fill="#88421f" d="M 188.503906 154.101562 L 186.765625 154.101562 L 186.765625 152.367188 L 188.503906 152.367188 L 188.503906 154.101562 " fill-opacity="1" fill-rule="nonzero"/><path fill="#88421f" d="M 183.292969 161.050781 L 183.292969 159.3125 L 185.03125 159.3125 L 185.03125 161.050781 L 183.292969 161.050781 " fill-opacity="1" fill-rule="nonzero"/><path fill="#88421f" d="M 185.03125 161.050781 L 183.292969 161.050781 L 183.292969 159.3125 L 185.03125 159.3125 L 185.03125 161.050781 " fill-opacity="1" fill-rule="nonzero"/><path fill="#88421f" d="M 179.820312 154.105469 L 179.820312 152.367188 L 181.554688 152.363281 L 181.558594 154.105469 L 179.820312 154.105469 " fill-opacity="1" fill-rule="nonzero"/><path fill="#88421f" d="M 179.820312 152.367188 L 181.554688 152.367188 L 181.554688 154.101562 L 179.820312 154.101562 L 179.820312 152.367188 " fill-opacity="1" fill-rule="nonzero"/><path fill="#88421f" d="M 176.34375 164.523438 L 176.34375 161.050781 L 178.082031 161.050781 L 178.082031 162.789062 L 179.820312 162.785156 L 179.820312 164.523438 L 176.34375 164.523438 " fill-opacity="1" fill-rule="nonzero"/><path fill="#88421f" d="M 179.820312 162.789062 L 179.820312 164.523438 L 176.34375 164.523438 L 176.34375 161.050781 L 178.082031 161.050781 L 178.082031 162.789062 L 179.820312 162.789062 " fill-opacity="1" fill-rule="nonzero"/><path fill="#88421f" d="M 198.921875 150.628906 L 198.921875 145.417969 L 200.660156 145.417969 L 200.660156 150.628906 L 198.921875 150.628906 " fill-opacity="1" fill-rule="nonzero"/><path fill="#88421f" d="M 200.660156 150.628906 L 198.921875 150.628906 L 198.921875 145.417969 L 200.660156 145.417969 L 200.660156 150.628906 " fill-opacity="1" fill-rule="nonzero"/><path fill="#88421f" d="M 186.765625 169.734375 L 186.765625 166.257812 L 185.03125 166.261719 L 185.027344 164.523438 L 190.242188 164.523438 L 190.238281 162.789062 L 193.714844 162.785156 L 193.714844 164.523438 L 195.449219 164.523438 L 195.449219 162.789062 L 197.1875 162.785156 L 197.1875 166.257812 L 193.714844 166.261719 L 193.714844 169.734375 L 186.765625 169.734375 " fill-opacity="1" fill-rule="nonzero"/><path fill="#88421f" d="M 195.449219 162.789062 L 197.1875 162.789062 L 197.1875 166.257812 L 193.714844 166.257812 L 193.714844 169.734375 L 186.765625 169.734375 L 186.765625 166.257812 L 185.03125 166.257812 L 185.03125 164.523438 L 190.242188 164.523438 L 190.242188 162.789062 L 193.714844 162.789062 L 193.714844 164.523438 L 195.449219 164.523438 L 195.449219 162.789062 " fill-opacity="1" fill-rule="nonzero"/><path fill="#88421f" d="M 188.503906 147.15625 L 188.503906 145.417969 L 190.242188 145.417969 L 190.242188 147.15625 L 188.503906 147.15625 " fill-opacity="1" fill-rule="nonzero"/><path fill="#88421f" d="M 190.242188 147.15625 L 188.503906 147.15625 L 188.503906 145.417969 L 190.242188 145.417969 L 190.242188 147.15625 " fill-opacity="1" fill-rule="nonzero"/><path fill="#88421f" d="M 195.449219 152.367188 L 195.449219 150.628906 L 197.1875 150.628906 L 197.1875 152.367188 L 195.449219 152.367188 " fill-opacity="1" fill-rule="nonzero"/><path fill="#88421f" d="M 195.449219 150.628906 L 197.1875 150.628906 L 197.1875 152.367188 L 195.449219 152.367188 L 195.449219 150.628906 " fill-opacity="1" fill-rule="nonzero"/><path fill="#88421f" d="M 200.660156 159.3125 L 200.660156 157.574219 L 202.398438 157.574219 L 202.398438 159.3125 L 200.660156 159.3125 " fill-opacity="1" fill-rule="nonzero"/><path fill="#88421f" d="M 202.398438 157.574219 L 202.398438 159.3125 L 200.660156 159.3125 L 200.660156 157.574219 L 202.398438 157.574219 " fill-opacity="1" fill-rule="nonzero"/><g clip-path="url(#c1868eea11)"><path fill="#221516" d="M 195.449219 173.207031 L 195.449219 171.46875 L 197.1875 171.46875 L 197.1875 173.207031 L 195.449219 173.207031 " fill-opacity="1" fill-rule="nonzero"/><path fill="#221516" d="M 195.449219 173.207031 L 195.449219 171.46875 L 197.1875 171.46875 L 197.1875 173.207031 L 195.449219 173.207031 " fill-opacity="1" fill-rule="nonzero"/></g><path fill="#bdbdbd" d="M 191.632812 231.527344 L 178.867188 230.785156 L 178.125 233.601562 L 176.9375 246.492188 L 173.816406 256.125 L 175.898438 263.976562 L 176.492188 286.5 L 173.816406 308.28125 L 175.453125 317.46875 L 165.058594 317.023438 L 165.652344 322.0625 L 166.46875 328.433594 L 140.34375 335.324219 L 124.386719 335.695312 L 106.199219 331.769531 L 102.117188 329.839844 L 108.277344 321.023438 L 119.335938 309.617188 L 124.609375 308.132812 C 124.609375 308.132812 120.292969 272.324219 128.058594 257.65625 C 135.828125 242.988281 139.5 243.511719 139.5 243.511719 L 149.160156 217.105469 L 145.171875 209.773438 L 144.75 188.1875 L 153.359375 183.996094 L 153.359375 171.84375 L 144.539062 172.054688 L 136.5625 171.84375 L 126.484375 162.203125 L 118.925781 150.257812 L 109.480469 159.058594 L 102.34375 161.367188 L 106.75 167.441406 L 109.898438 176.453125 L 109.898438 187.558594 L 103.390625 203.695312 L 89.957031 220.039062 L 95.414062 219.410156 L 97.933594 221.71875 L 104.441406 232.195312 L 100.929688 239.15625 L 99.074219 250.417969 L 90.835938 247.601562 L 90.910156 254.640625 L 87.273438 257.902344 L 78.367188 259.234375 L 73.394531 261.011719 L 67.011719 262.421875 L 64.707031 260.496094 L 61.960938 261.53125 L 58.621094 260.050781 L 44.148438 243.15625 L 45.113281 240.046875 L 41.699219 219.96875 L 40.363281 181 L 48.824219 150.769531 L 72.726562 131.65625 L 84.007812 108.539062 L 85.9375 89.425781 L 103.304688 66.605469 L 136.707031 64.382812 L 152.738281 67.941406 L 160.308594 71.050781 L 166.988281 53.566406 L 165.207031 50.160156 L 166.394531 45.417969 L 167.136719 42.453125 L 171.886719 39.933594 L 175.601562 40.824219 L 181.09375 30.304688 L 192.375 29.710938 L 210.78125 33.414062 L 217.90625 37.414062 L 218.796875 44.007812 L 219.613281 45.789062 L 216.421875 52.308594 L 215.605469 80.015625 L 224.4375 81.496094 L 235.796875 85.574219 L 250.9375 87.574219 L 263.40625 91.128906 L 276.382812 106.253906 L 274.597656 123.4375 L 281.628906 136.007812 L 285.199219 148.269531 L 294.65625 153.289062 L 307.867188 169.292969 L 317.664062 194.925781 L 324.789062 227.527344 L 327.464844 232.117188 L 325.53125 249.605469 L 320.484375 255.976562 L 310.8125 256.765625 L 306.191406 257.917969 L 300.105469 256.871094 L 299.210938 255.925781 L 295.484375 255.714844 L 291.96875 254.5625 L 289.710938 248.75 L 280.109375 250.636719 L 281.054688 243.929688 L 279.058594 235.023438 L 286.25 224.964844 L 269.242188 214.277344 L 258.957031 199.085938 L 259.480469 174.042969 L 247.597656 166.03125 L 243.738281 171.8125 L 231.863281 171.8125 L 231.121094 185.296875 L 242.253906 189 L 241.066406 212.707031 L 239.433594 217.152344 L 244.925781 233.601562 L 248.933594 244.269531 L 254.277344 253.308594 L 257.542969 270.347656 L 257.988281 296.277344 L 257.394531 306.355469 L 280.851562 329.765625 L 272.539062 331.988281 L 254.128906 332.730469 L 213.007812 327.246094 L 214.34375 315.988281 L 207.515625 316.28125 L 209 311.246094 L 207.070312 282.945312 L 210.929688 254.640625 L 212.117188 252.195312 L 208.703125 229.527344 Z M 191.632812 231.527344 " fill-opacity="1" fill-rule="nonzero"/><path fill="#b71c1c" d="M 188.941406 38.304688 L 187.050781 38.671875 L 187.945312 40.664062 L 191.09375 43.542969 L 196.710938 48.050781 L 200.488281 48.574219 L 202.589844 47.160156 L 203.847656 44.800781 L 196.65625 40.507812 Z M 217.179688 45.222656 L 209.042969 45.796875 L 207.257812 48.050781 L 208.203125 51.140625 C 208.203125 51.140625 210.144531 52.242188 210.617188 52.242188 C 211.089844 52.242188 214.710938 51.035156 214.710938 51.035156 L 217.335938 49.777344 C 217.335938 49.777344 218.753906 45.851562 218.753906 45.640625 C 218.753906 45.429688 217.179688 45.222656 217.179688 45.222656 Z M 217.179688 45.222656 " fill-opacity="1" fill-rule="nonzero"/><g clip-path="url(#c85cb0713e)"><path fill="#212121" d="M 124.5 336.828125 C 119.332031 336.617188 113.550781 335.632812 109.140625 334.21875 C 106.808594 333.472656 101.175781 331.140625 100.882812 330.804688 C 100.652344 330.535156 100.597656 330.28125 100.679688 329.808594 C 100.921875 328.417969 103.421875 324.890625 106.3125 321.859375 C 107.191406 320.9375 108.785156 319.15625 109.851562 317.898438 C 114.640625 312.25 118.167969 308.5625 119.023438 308.300781 C 119.316406 308.210938 120.011719 308.085938 120.566406 308.023438 C 121.136719 307.960938 121.753906 307.769531 121.980469 307.585938 L 122.382812 307.257812 L 122.292969 299.359375 C 122.082031 280.496094 122.164062 277.410156 123.027344 271.894531 C 124.34375 263.484375 127.242188 255.460938 130.996094 249.839844 C 132.589844 247.453125 133.953125 245.988281 135.980469 244.492188 C 137.90625 243.070312 138.203125 242.578125 139.742188 238.238281 C 140.328125 236.589844 141.535156 233.335938 142.417969 231.011719 C 144.984375 224.28125 147.246094 217.707031 147 217.707031 C 146.910156 217.707031 146.5 217.796875 146.085938 217.90625 C 144.550781 218.308594 142.886719 217.378906 142.332031 215.808594 C 142.097656 215.144531 142.007812 213.851562 141.886719 209.425781 C 141.683594 202.109375 141.671875 188.761719 141.871094 188.242188 C 142.300781 187.113281 142.949219 186.804688 148.421875 185.105469 C 150.023438 184.605469 151.425781 184.171875 151.539062 184.136719 C 151.839844 184.042969 152.023438 179.722656 151.878906 176.207031 C 151.808594 174.5625 151.722656 173.183594 151.683594 173.148438 C 151.648438 173.109375 150.363281 173.167969 148.828125 173.277344 C 144.992188 173.546875 141.347656 173.523438 138.621094 173.207031 C 136.082031 172.910156 135.851562 172.8125 133.351562 170.929688 C 128.523438 167.292969 123.667969 161.609375 118.855469 153.960938 L 118.167969 152.863281 L 115.507812 155.464844 C 112.542969 158.367188 111.125 159.390625 107.070312 161.558594 L 104.472656 162.949219 L 105.257812 163.820312 C 108.132812 167.011719 110.363281 172.417969 111.15625 178.113281 C 111.394531 179.847656 111.402344 184.167969 111.164062 186.25 C 110.929688 188.289062 110.226562 191.457031 109.558594 193.476562 C 108.914062 195.410156 106.675781 200.007812 105.089844 202.640625 C 104.023438 204.808594 103.703125 204.988281 102.230469 207.039062 C 100.984375 208.816406 98.253906 212.207031 95.628906 215.238281 C 93.617188 217.5625 92.882812 218.546875 93.046875 218.707031 C 93.109375 218.769531 93.46875 218.726562 93.84375 218.617188 C 94.992188 218.273438 96.089844 218.359375 96.828125 218.847656 C 97.601562 219.359375 97.851562 219.730469 100.886719 224.84375 C 104.929688 231.652344 105.34375 232.492188 105.105469 233.429688 C 105.050781 233.648438 104.5 234.589844 103.878906 235.519531 C 102.589844 237.457031 102.070312 238.910156 101.386719 242.464844 C 99.113281 249.175781 101.5 252.28125 98.28125 251.535156 C 96.777344 250.96875 94.800781 250.21875 93.890625 249.867188 C 92.984375 249.515625 92.117188 249.277344 91.964844 249.332031 C 91.730469 249.421875 91.710938 249.804688 91.808594 252.183594 C 91.882812 253.980469 91.855469 255.195312 91.726562 255.703125 C 91.480469 256.671875 90.695312 257.386719 89.425781 257.800781 C 88.90625 257.96875 88.363281 258.214844 88.210938 258.34375 C 87.796875 258.699219 86.074219 259.425781 84.921875 259.722656 C 83.480469 260.09375 80.519531 260.34375 78.953125 260.226562 C 77.636719 260.128906 77.632812 260.128906 76.84375 260.773438 C 75.195312 262.121094 71.703125 263.292969 68.796875 263.472656 C 66.957031 263.585938 65.996094 263.351562 65.125 262.566406 L 64.472656 261.980469 L 63.324219 262.15625 C 61.734375 262.398438 60.054688 262.089844 59.050781 261.367188 C 57.894531 260.539062 53.429688 256.109375 51.457031 253.832031 C 50.488281 252.71875 48.972656 250.859375 48.082031 249.703125 C 47.191406 248.546875 45.828125 246.816406 45.050781 245.855469 C 42.785156 243.054688 42.769531 243.03125 43.085938 242.4375 C 43.234375 242.164062 43.550781 241.703125 43.785156 241.414062 C 44.191406 240.917969 44.203125 240.855469 43.96875 240.195312 C 43.496094 238.863281 42.492188 233.382812 41.871094 228.777344 C 40.753906 220.464844 39.832031 210.027344 39.21875 198.675781 C 39.039062 194.007812 39.054688 193.929688 37.578125 181.695312 C 37.476562 176.570312 37.964844 172.410156 39.289062 167.1875 C 41.296875 159.25 44.730469 152.304688 50.164062 145.1875 C 52.582031 142.183594 52.449219 143.183594 54.722656 140.40625 C 60.132812 135.210938 64.378906 132.148438 68.132812 130.742188 C 68.59375 130.570312 69.050781 130.328125 69.152344 130.207031 C 69.253906 130.085938 69.574219 128.847656 69.859375 127.453125 C 70.710938 123.332031 70.945312 122.648438 72.9375 118.417969 C 74.363281 115.386719 75.511719 113.433594 77.472656 110.714844 C 78.421875 109.390625 79.335938 108.023438 79.503906 107.671875 C 79.804688 107.046875 79.800781 107.019531 79.335938 106.023438 C 78.519531 104.28125 78.3125 103.117188 78.207031 99.722656 C 78.03125 94.101562 78.765625 90.320312 81.058594 85.007812 C 83.976562 78.253906 89.90625 71.332031 96.722656 66.714844 C 103.347656 62.667969 104.914062 62.835938 110.5 61.242188 C 122.074219 59.097656 130.253906 59.503906 140.308594 62.71875 C 146.03125 64.320312 143.546875 63.558594 150.628906 66.257812 C 153.882812 67.074219 154.964844 67.433594 157.585938 68.558594 C 158.792969 69.078125 159.789062 69.480469 159.804688 69.457031 C 159.816406 69.433594 159.949219 69.214844 160.097656 68.972656 C 160.25 68.730469 160.867188 67.183594 161.472656 65.535156 C 162.078125 63.886719 163.289062 60.621094 164.160156 58.277344 C 165.667969 54.222656 165.734375 53.992188 165.488281 53.519531 C 164.484375 51.566406 164.050781 47.910156 164.550781 45.574219 C 165.035156 43.308594 165.589844 42.34375 167.320312 40.769531 C 168.167969 39.996094 169.144531 39.246094 169.492188 39.101562 C 170.246094 38.785156 171.539062 38.761719 173.089844 39.03125 C 173.710938 39.140625 174.261719 39.1875 174.3125 39.132812 C 174.363281 39.082031 174.636719 37.945312 174.921875 36.601562 C 175.207031 35.261719 175.632812 33.765625 175.871094 33.28125 C 176.367188 32.265625 177.664062 30.894531 178.707031 30.28125 C 181.082031 28.882812 185.234375 28.332031 191.195312 28.632812 C 207.304688 29.4375 219.476562 34.15625 219.59375 39.636719 C 219.605469 40.117188 219.554688 41.363281 219.484375 42.40625 L 219.351562 44.300781 L 220.019531 44.910156 C 220.851562 45.671875 221.335938 46.394531 221.214844 46.699219 C 221.167969 46.828125 220.738281 46.988281 220.261719 47.050781 C 219.683594 47.125 219.394531 47.25 219.394531 47.414062 C 219.394531 47.679688 218.078125 50.402344 217.773438 50.773438 C 217.65625 50.910156 217.636719 51.882812 217.710938 53.503906 C 217.789062 55.15625 217.757812 56.53125 217.617188 57.515625 C 217.5 58.339844 217.375 59.769531 217.339844 60.6875 C 217.304688 61.609375 217.117188 65.179688 216.925781 68.617188 C 216.730469 72.058594 216.550781 75.695312 216.527344 76.695312 L 216.484375 78.515625 L 217.367188 78.859375 C 218.421875 79.269531 222.304688 80.398438 224.855469 81.042969 C 225.871094 81.296875 227.539062 81.902344 228.5625 82.382812 C 229.777344 82.957031 231.28125 83.476562 232.859375 83.875 L 235.292969 84.484375 C 238.648438 84.679688 240.484375 84.765625 243.054688 84.472656 C 246.179688 84.074219 247.480469 84.074219 250.144531 84.460938 C 253.847656 85.003906 255.5625 85.476562 260.035156 87.1875 C 265.722656 89.929688 269.386719 93.023438 274.285156 97.695312 C 276.316406 100.128906 276.796875 100.859375 277.929688 103.210938 C 280.875 109.339844 280.789062 115.984375 277.683594 122.144531 C 277.28125 122.941406 276.953125 123.699219 276.953125 123.828125 C 276.953125 123.957031 277.199219 124.296875 277.503906 124.582031 C 278.273438 125.304688 280.429688 128.011719 281.492188 129.59375 C 282.460938 131.039062 283.425781 132.886719 283.929688 134.261719 C 284.105469 134.746094 284.273438 135.171875 284.296875 135.203125 C 284.695312 136.527344 284.652344 136.75 284.765625 137.65625 C 285.132812 139.371094 284.988281 139.289062 285.355469 140.925781 C 285.40625 141.332031 285.503906 142.726562 285.570312 144.027344 L 285.691406 146.390625 L 286.605469 146.699219 C 292.890625 148.828125 302.011719 157.746094 307.222656 166.863281 C 307.777344 167.832031 308.324219 168.722656 308.4375 168.839844 C 309.089844 169.996094 309.882812 171.609375 310.460938 172.789062 C 313.003906 178 313.664062 179.621094 315.734375 185.722656 C 319.914062 198.050781 322.667969 209.460938 324.898438 223.699219 C 325.398438 226.890625 325.484375 227.171875 326.257812 228.253906 C 326.578125 228.703125 327.222656 229.707031 327.691406 230.480469 C 328.136719 232.734375 328.503906 233.859375 328.503906 237.285156 C 328.503906 239.527344 328.191406 242.386719 327.6875 244.757812 C 327.542969 245.433594 327.375 246.972656 327.316406 248.171875 L 327.210938 250.351562 L 325.996094 251.34375 C 325.207031 251.984375 324.40625 252.875 323.726562 253.859375 C 322.46875 255.695312 321.75 256.292969 319.9375 257.015625 C 317.605469 257.949219 316.226562 258.148438 313.941406 257.886719 C 312.011719 257.664062 311.96875 257.667969 310.652344 258.121094 C 308.953125 258.707031 306.753906 258.859375 303.585938 258.613281 C 300.855469 258.402344 299.972656 258.125 299.195312 257.242188 L 298.660156 256.632812 L 297.207031 256.746094 C 295.6875 256.863281 293.390625 256.484375 291.910156 255.863281 C 290.289062 255.1875 289.066406 253.328125 288.84375 251.210938 C 288.78125 250.617188 288.671875 250.132812 288.601562 250.132812 C 288.535156 250.132812 287.652344 250.363281 286.640625 250.648438 C 276.6875 253.386719 279.660156 253.066406 280.207031 244.492188 C 280.304688 242.785156 280.277344 242.546875 279.851562 241.410156 C 278.359375 237.410156 277.929688 235.316406 278.347656 234.050781 C 278.460938 233.707031 279.03125 232.765625 279.609375 231.953125 C 281.449219 229.402344 282.148438 229.324219 284.460938 225.296875 C 284.40625 225.203125 283.945312 224.898438 283.4375 224.613281 C 278.972656 222.117188 271.828125 217.445312 269.007812 215.183594 C 265.140625 212.078125 262.074219 208.421875 260.160156 204.625 C 258.40625 201.152344 257.429688 196.453125 257.242188 190.566406 C 257.144531 187.644531 257.472656 179.1875 257.820312 175.671875 L 257.925781 174.609375 L 255.652344 172.890625 C 252.929688 170.835938 249.695312 168.210938 249.613281 167.992188 C 249.496094 167.671875 249.273438 167.871094 247.992188 169.449219 C 247.273438 170.335938 246.214844 171.410156 245.640625 171.828125 C 243.9375 173.082031 243.296875 173.199219 238.199219 173.199219 C 235.769531 173.199219 233.566406 173.136719 233.300781 173.066406 L 232.8125 172.9375 L 232.800781 176.507812 C 232.796875 178.472656 232.726562 180.953125 232.648438 182.019531 C 232.566406 183.1875 232.574219 184.042969 232.675781 184.167969 C 232.890625 184.441406 234.84375 185.078125 238.464844 186.054688 C 243.238281 187.339844 244.734375 187.867188 245.40625 188.503906 L 246.003906 189.070312 L 245.9375 194.796875 C 245.847656 202.050781 245.589844 207.367188 245.238281 209.066406 C 244.636719 211.980469 243.273438 215.035156 241.691406 217.015625 C 240.691406 218.265625 240.640625 218.378906 240.859375 218.777344 C 241.921875 220.695312 244.609375 227.972656 245.785156 232.101562 C 247.128906 236.824219 247.375 237.5625 248.378906 239.910156 C 249.75 243.105469 250.199219 243.988281 250.917969 244.929688 C 253.25 247.980469 254.527344 250.863281 256.027344 256.453125 C 257.78125 262.984375 259.074219 271.285156 259.480469 278.59375 C 259.691406 282.398438 259.546875 290.410156 259.203125 294.1875 C 258.894531 297.558594 258.589844 302.714844 258.589844 304.589844 C 258.589844 305.660156 258.648438 305.996094 258.832031 305.996094 C 259.144531 305.996094 262.769531 309.308594 265.027344 311.65625 C 265.992188 312.660156 269.015625 315.746094 271.742188 318.507812 C 274.46875 321.269531 277.390625 324.289062 278.230469 325.21875 C 279.074219 326.148438 280.5625 327.6875 281.535156 328.644531 C 282.511719 329.597656 283.308594 330.476562 283.308594 330.597656 C 283.308594 331.097656 278.109375 332.339844 273.15625 333.023438 C 269.609375 333.515625 267.371094 333.6875 262.828125 333.816406 C 252.945312 334.09375 247.378906 333.613281 230.339844 331.019531 C 226.601562 330.453125 222.152344 329.816406 220.453125 329.613281 C 215.953125 329.066406 211.433594 328.417969 211.320312 328.304688 C 211.265625 328.246094 211.386719 327.628906 211.589844 326.925781 C 212.167969 324.929688 212.339844 323.597656 212.457031 320.246094 L 212.5625 317.136719 L 211.699219 317.21875 C 211.222656 317.261719 209.878906 317.457031 208.714844 317.652344 C 205.289062 318.222656 205.269531 318.226562 205.269531 317.976562 C 205.269531 317.851562 205.632812 316.960938 206.078125 315.996094 C 207.734375 312.386719 207.914062 310.460938 207.234375 303.527344 C 207.042969 301.542969 206.835938 299.320312 206.78125 298.59375 C 206.726562 297.867188 206.515625 295.089844 206.3125 292.425781 C 205.699219 284.402344 205.980469 277.285156 207.304688 267.488281 C 207.972656 262.554688 208.550781 259.191406 209.265625 256.125 C 209.878906 253.5 210.183594 252.773438 210.671875 252.773438 C 211.085938 252.773438 211.082031 252.5 210.660156 251.617188 C 210.050781 250.34375 209.40625 247.945312 208.839844 244.84375 C 208.457031 242.753906 208.28125 230.84375 208.085938 230.871094 C 207.945312 230.890625 206.917969 231.21875 205.800781 231.601562 C 203.570312 232.363281 199.804688 233.101562 196.546875 233.410156 C 193.199219 233.726562 184.210938 233.515625 181.367188 233.054688 C 180.117188 232.851562 178.996094 232.683594 178.878906 232.683594 C 178.742188 232.683594 178.515625 244.734375 178.269531 246.035156 C 177.597656 249.597656 176.894531 252.441406 176.210938 254.359375 C 175.558594 256.199219 175.554688 256.214844 175.773438 257.445312 C 176.457031 261.234375 176.683594 262.714844 177.09375 265.992188 C 177.34375 267.980469 177.625 270.792969 177.722656 272.246094 C 178.089844 277.730469 177.867188 287.847656 177.285156 292.160156 C 177.140625 293.226562 176.746094 296.121094 176.40625 298.59375 C 175.277344 306.832031 175.015625 310.75 175.445312 312.902344 C 175.546875 313.417969 176 314.964844 176.453125 316.339844 C 176.90625 317.71875 177.230469 318.886719 177.175781 318.941406 C 177.121094 318.996094 176.132812 318.960938 174.976562 318.859375 C 173.820312 318.761719 171.445312 318.664062 169.695312 318.636719 L 166.519531 318.597656 L 166.53125 319.652344 C 166.542969 320.824219 167.015625 323.503906 167.761719 326.648438 C 168.175781 328.386719 168.214844 328.757812 168.019531 328.996094 C 167.578125 329.523438 166.941406 329.726562 157.957031 332.179688 C 149.070312 334.605469 143.59375 335.851562 139.417969 336.386719 C 137.414062 336.644531 130.113281 337.035156 128.382812 336.980469 C 127.996094 336.96875 126.246094 336.898438 124.5 336.824219 Z M 138.625 334.027344 C 141.621094 333.675781 144.628906 333.101562 148.421875 332.160156 C 154.417969 330.667969 164.515625 327.871094 164.976562 327.570312 C 165.300781 327.359375 165.371094 327.1875 165.296875 326.824219 C 164.921875 325 164.417969 321.816406 164.246094 320.183594 L 164.042969 318.242188 L 162.898438 318.109375 C 158.601562 317.597656 157.160156 317.351562 154.335938 316.660156 C 151.042969 315.847656 147.382812 314.675781 144.183594 313.398438 C 138.429688 311.101562 134.175781 310.050781 128.164062 309.441406 C 125.75 309.195312 125.609375 309.199219 124.632812 309.535156 C 124.074219 309.730469 122.824219 310.089844 121.851562 310.335938 C 119.699219 310.878906 119.261719 311.191406 116.996094 313.808594 C 113.667969 317.644531 111.398438 320.207031 109.492188 322.273438 C 104.789062 327.367188 103.636719 328.859375 104.066406 329.285156 C 104.226562 329.445312 105.496094 329.855469 111.347656 331.636719 C 115.8125 332.996094 119.066406 333.761719 122.203125 334.179688 C 123.792969 334.390625 136.535156 334.273438 138.625 334.027344 Z M 266.183594 331.195312 C 270.9375 330.941406 277.671875 330.089844 278.46875 329.648438 C 278.796875 329.464844 278.738281 329.386719 275.792969 326.085938 C 273.460938 323.472656 260.027344 309.953125 258.492188 308.675781 L 257.425781 307.785156 L 255.933594 308.664062 C 253.574219 310.050781 251.699219 310.953125 247.972656 312.492188 C 239.683594 315.914062 237.058594 316.3125 219.289062 316.847656 L 215.390625 316.964844 L 215.1875 319.789062 C 215.078125 321.339844 214.851562 323.351562 214.691406 324.261719 C 214.527344 325.167969 214.433594 325.949219 214.480469 325.996094 C 214.566406 326.082031 217.699219 326.542969 223.457031 327.324219 C 224.960938 327.527344 228.773438 328.128906 231.929688 328.65625 C 239.210938 329.882812 247.734375 330.96875 253.207031 331.371094 C 255.59375 331.546875 261.054688 331.472656 266.183594 331.195312 Z M 173.433594 315.9375 C 173.492188 315.785156 173.390625 314.855469 173.210938 313.867188 C 172.625 310.695312 172.839844 306.640625 174.117188 296.902344 C 175.078125 289.554688 175.308594 286.296875 175.328125 279.914062 C 175.363281 268.941406 174.488281 259.863281 173.132812 257.070312 L 172.605469 255.984375 L 173.398438 254.335938 C 175.238281 250.496094 176.125 245.464844 178.015625 228.105469 C 178.378906 224.753906 178.433594 221.292969 178.132812 220.769531 C 177.777344 220.148438 173.71875 219.261719 168.195312 218.597656 C 163.382812 218.015625 161.289062 217.875 155.921875 217.761719 L 150.796875 217.652344 L 149.328125 220.980469 C 147.023438 226.199219 144.863281 231.699219 143.476562 235.859375 C 142.96875 237.382812 141.539062 242.261719 141.539062 242.460938 C 141.539062 242.523438 141.796875 242.375 142.117188 242.132812 C 143.171875 241.328125 144.1875 240.976562 145.46875 240.972656 C 147.496094 240.964844 148.699219 241.765625 149.597656 243.714844 C 150.710938 246.132812 150.066406 250.4375 148.027344 254.1875 C 147.632812 254.914062 147.222656 255.683594 147.117188 255.902344 C 147.007812 256.121094 146.863281 256.296875 146.792969 256.300781 C 146.613281 256.300781 146.777344 255.511719 147.511719 252.777344 C 148.109375 250.570312 148.15625 250.214844 148.152344 247.929688 C 148.152344 245.753906 148.109375 245.378906 147.777344 244.757812 C 147.113281 243.511719 146.109375 242.90625 144.703125 242.90625 C 143.472656 242.90625 142.1875 243.601562 141.628906 244.574219 C 141.273438 245.183594 139.417969 250.746094 139.417969 251.195312 C 139.417969 251.492188 138.6875 253.304688 138.566406 253.304688 C 138.238281 253.304688 136.78125 248.628906 136.761719 247.515625 C 136.753906 247.089844 136.644531 247.164062 135.511719 248.371094 C 132.507812 251.558594 129.511719 257.195312 127.875 262.734375 C 126.582031 267.101562 125.636719 271.644531 125.269531 275.246094 C 124.992188 277.96875 124.964844 286.1875 125.191406 298.375 L 125.351562 306.878906 L 126.8125 306.878906 C 129.101562 306.878906 132.90625 307.4375 136.351562 308.28125 C 139.191406 308.976562 141.992188 309.847656 148.777344 312.140625 C 154.875 314.203125 156.15625 314.523438 161.527344 315.316406 C 164.167969 315.703125 165.367188 315.800781 166.871094 315.746094 C 167.972656 315.707031 169.65625 315.785156 170.757812 315.925781 C 173.347656 316.257812 173.3125 316.257812 173.433594 315.9375 Z M 214.980469 314.628906 C 216.585938 314.53125 220.796875 314.332031 224.339844 314.1875 C 234.636719 313.757812 236.851562 313.527344 241.023438 312.433594 C 247.273438 310.796875 254.683594 307.363281 255.871094 305.550781 C 256.25 304.972656 256.453125 301.636719 256.464844 295.71875 C 256.46875 292.472656 256.535156 291.058594 256.6875 290.785156 C 257.054688 290.128906 257.125 287.976562 256.980469 281.851562 C 256.824219 275.363281 256.75 274.4375 255.839844 267.492188 C 255.148438 262.230469 255.078125 261.863281 253.707031 256.566406 C 252.355469 251.34375 250.675781 247.789062 249.0625 246.722656 C 248.097656 246.082031 247.871094 245.671875 247.632812 244.140625 C 247.382812 242.503906 247.09375 241.78125 246.539062 241.421875 C 246.273438 241.246094 245.382812 241.074219 244.183594 240.964844 C 243.125 240.871094 242.0625 240.773438 241.816406 240.746094 C 241.3125 240.699219 241.320312 240.539062 241.730469 243.152344 C 242.023438 245.027344 242.132812 247.828125 241.925781 248.164062 C 241.730469 248.476562 240.847656 248.410156 240.542969 248.0625 C 240.394531 247.890625 240.21875 247.355469 240.152344 246.871094 C 239.984375 245.617188 239.21875 240.808594 238.890625 238.96875 C 238.738281 238.109375 238.660156 237.363281 238.714844 237.308594 C 238.769531 237.253906 239.117188 237.300781 239.488281 237.414062 C 239.96875 237.554688 240.332031 237.847656 240.738281 238.410156 C 241.050781 238.847656 241.445312 239.214844 241.609375 239.226562 C 242.226562 239.269531 245.441406 239.167969 245.507812 239.101562 C 245.703125 238.917969 241.890625 227.15625 240.480469 223.589844 C 239.386719 220.820312 238.679688 219.292969 238.496094 219.292969 C 238.410156 219.292969 237.800781 219.699219 237.144531 220.195312 C 233.421875 223.007812 227.90625 225.929688 223.097656 227.632812 C 220.078125 228.703125 218.417969 229.0625 213.085938 229.800781 C 209.09375 230.351562 209.375 230.183594 209.691406 231.824219 C 209.789062 232.347656 210.105469 234.675781 210.394531 237.003906 C 211.042969 242.242188 211.488281 245.183594 212.183594 248.796875 C 212.574219 250.847656 212.703125 251.972656 212.660156 252.964844 L 212.597656 254.320312 L 214.691406 253.273438 C 216.96875 252.132812 217.714844 252.03125 216.820312 252.976562 C 216.207031 253.628906 214.460938 255.027344 212.832031 256.171875 C 212.003906 256.757812 211.625 257.144531 211.554688 257.488281 C 211.445312 258.003906 210.761719 262.324219 210.210938 265.992188 C 209.726562 269.234375 209.378906 272.699219 209.164062 276.476562 C 209.058594 278.320312 208.890625 280.898438 208.785156 282.207031 C 208.636719 284.085938 208.65625 285.605469 208.878906 289.429688 C 209.21875 295.21875 209.613281 300.714844 209.859375 303.007812 C 210.199219 306.179688 210.273438 311.773438 209.992188 313.132812 C 209.847656 313.8125 209.671875 314.511719 209.597656 314.683594 C 209.472656 314.980469 209.558594 314.996094 210.765625 314.902344 C 211.484375 314.851562 213.378906 314.726562 214.980469 314.628906 Z M 71.765625 260.878906 C 72.476562 260.789062 73.398438 260.5625 73.816406 260.375 C 74.804688 259.941406 75.9375 258.914062 76.515625 257.929688 L 76.972656 257.148438 L 76.664062 256.167969 L 76.355469 255.191406 L 74.789062 255.304688 C 73.929688 255.363281 72.644531 255.582031 71.9375 255.785156 C 71.027344 256.050781 69.941406 256.1875 68.203125 256.253906 L 65.753906 256.347656 L 65.863281 257.136719 C 66.023438 258.285156 66.816406 259.929688 67.507812 260.535156 C 68.042969 261.007812 68.222656 261.058594 69.289062 261.054688 C 69.941406 261.054688 71.054688 260.972656 71.765625 260.878906 Z M 64.207031 259.992188 C 64.207031 259.792969 64.117188 259.273438 64.007812 258.839844 L 63.808594 258.050781 L 63.21875 258.742188 C 62.894531 259.121094 62.269531 259.597656 61.828125 259.804688 C 61.390625 260.011719 61.03125 260.21875 61.03125 260.265625 C 61.03125 260.3125 61.746094 260.355469 62.617188 260.355469 C 64.105469 260.355469 64.207031 260.332031 64.207031 259.992188 Z M 63.042969 256.496094 C 63.101562 256.070312 63.148438 255.304688 63.148438 254.796875 L 63.148438 253.867188 L 64.421875 254.308594 C 66.285156 254.957031 68.476562 254.835938 71.269531 253.933594 C 72.8125 253.433594 73.707031 253.253906 75.007812 253.175781 L 76.714844 253.078125 L 76.835938 252.179688 C 76.976562 251.125 77.582031 249.605469 77.863281 249.605469 C 77.96875 249.605469 78.4375 249.980469 78.90625 250.441406 L 79.757812 251.277344 L 82.792969 251.25 C 86.191406 251.21875 85.71875 251.382812 86.953125 249.785156 C 87.332031 249.289062 87.445312 249.25 88.476562 249.25 C 89.332031 249.25 89.617188 249.1875 89.699219 248.972656 C 89.757812 248.820312 89.808594 245.960938 89.808594 242.617188 L 89.808594 236.542969 L 88.824219 234.128906 C 86.902344 229.425781 84.253906 224.457031 82.492188 222.246094 C 81.390625 220.867188 80.574219 220.363281 79.050781 220.128906 C 77.171875 219.835938 77.472656 219.117188 79.472656 219.117188 C 81.296875 219.117188 82.554688 220.070312 85.046875 223.34375 L 86.1875 224.84375 L 86.242188 224.195312 C 86.277344 223.796875 86.15625 223.273438 85.933594 222.835938 C 85.734375 222.445312 85.570312 222.082031 85.570312 222.03125 C 85.570312 221.847656 88.0625 219.117188 90.269531 216.886719 C 92.785156 214.335938 97.21875 209.3125 98.988281 206.996094 C 102.222656 202.769531 104.945312 198.039062 106.746094 193.515625 C 107.828125 190.789062 108.273438 189.25 108.605469 187.042969 C 109.855469 178.804688 108.167969 171.128906 103.867188 165.476562 C 102.070312 163.113281 101.195312 162.433594 98.636719 161.398438 C 97.710938 161.027344 96.847656 160.636719 96.714844 160.535156 C 96.3125 160.230469 97.082031 160.117188 99.707031 160.097656 C 102.363281 160.078125 103.886719 159.777344 105.933594 158.859375 C 109.640625 157.199219 115.019531 152.273438 117.972656 147.832031 C 119.285156 145.851562 121.433594 142.121094 122.074219 140.695312 C 123.210938 138.167969 124.472656 135.054688 125.109375 133.207031 C 127.503906 126.269531 128.417969 121.496094 128.597656 114.992188 C 128.695312 111.355469 128.6875 111.230469 128.363281 111.320312 C 128.179688 111.375 127.078125 111.695312 125.910156 112.035156 C 120.925781 113.492188 117.292969 114.082031 112.535156 114.210938 C 108.59375 114.320312 106.550781 114.148438 102.253906 113.351562 C 99.144531 112.777344 96.769531 112.03125 92.613281 110.320312 C 91.097656 109.699219 89.632812 109.148438 89.347656 109.09375 C 88.867188 109.003906 88.726562 109.132812 87.070312 111.21875 C 82.761719 116.636719 80.765625 120.3125 78.722656 126.597656 C 77.890625 129.140625 76.785156 133.921875 76.976562 134.113281 C 77.023438 134.160156 77.367188 134.113281 77.742188 134.011719 C 80.144531 133.347656 82.390625 134.320312 82.914062 136.253906 C 83.492188 138.40625 83.554688 144.019531 83.03125 146.734375 C 82.777344 148.035156 82.695312 148.195312 82.386719 148.003906 C 81.890625 147.699219 81.699219 146.660156 81.601562 143.757812 C 81.546875 142.121094 81.433594 139.96875 81.34375 138.96875 C 81.078125 135.90625 80.773438 135.699219 76.421875 135.613281 C 72.867188 135.546875 70.90625 135.761719 69 136.433594 C 67.335938 137.023438 66.390625 137.566406 64.40625 139.070312 C 59.929688 142.472656 55.382812 147.566406 52.4375 152.472656 C 50.828125 155.152344 48.492188 159.8125 47.46875 162.378906 C 43.542969 172.234375 42.066406 182.046875 42.070312 198.320312 C 42.070312 206.085938 42.292969 210.253906 43.113281 218.234375 C 43.765625 224.523438 45.421875 236.824219 45.777344 238.019531 C 45.914062 238.464844 46.109375 238.273438 46.671875 237.152344 C 47.328125 235.84375 48.40625 234.671875 49.621094 233.941406 C 50.488281 233.421875 50.703125 233.363281 51.394531 233.46875 C 52.367188 233.613281 53.125 234.171875 53.050781 234.6875 C 53 235.039062 52.914062 235.0625 51.664062 235.003906 C 50.382812 234.945312 50.304688 234.964844 49.546875 235.539062 C 48.484375 236.34375 47.597656 238.144531 46.835938 241.050781 L 46.234375 243.335938 L 48.011719 245.71875 C 51.039062 249.78125 52.53125 251.542969 55.039062 254.007812 L 57.453125 256.386719 L 59.375 256.972656 C 61.8125 257.714844 62.089844 257.828125 62.089844 258.101562 C 62.089844 258.636719 62.945312 257.199219 63.042969 256.496094 Z M 85.132812 257.4375 C 86.449219 257.09375 88.957031 255.742188 89.460938 255.105469 C 89.796875 254.679688 89.832031 254.449219 89.78125 253.070312 C 89.722656 251.617188 89.6875 251.484375 89.222656 251.085938 C 88.582031 250.535156 88.125 250.546875 87.742188 251.128906 C 87.574219 251.382812 87.140625 251.808594 86.78125 252.070312 L 86.121094 252.546875 L 83.503906 252.460938 C 80.519531 252.367188 80.652344 252.308594 80.203125 253.875 C 79.921875 254.851562 79.535156 255.277344 79.082031 255.117188 C 78.960938 255.074219 78.859375 254.804688 78.859375 254.523438 C 78.859375 253.886719 78.644531 253.871094 78.167969 254.472656 C 77.316406 255.554688 78 256.5 80.210938 257.277344 C 81.660156 257.785156 83.550781 257.847656 85.132812 257.4375 Z M 308.804688 256.472656 C 309.242188 256.34375 309.835938 255.921875 310.394531 255.347656 C 311.4375 254.277344 312.363281 252.992188 312.203125 252.835938 C 312.078125 252.710938 304.675781 253.066406 304.300781 253.21875 C 304.164062 253.273438 303.621094 253.871094 303.09375 254.546875 C 302.566406 255.222656 301.988281 255.90625 301.8125 256.066406 C 301.34375 256.488281 301.414062 256.621094 302.152344 256.710938 C 303.347656 256.855469 308.097656 256.6875 308.808594 256.472656 Z M 317.4375 255.683594 C 319.351562 255.1875 320.566406 254.292969 321.445312 252.734375 C 321.777344 252.144531 321.796875 252.03125 321.558594 252.125 C 321.074219 252.308594 318.4375 252.746094 317.054688 252.875 C 316.082031 252.960938 315.386719 253.164062 314.28125 253.683594 C 313.46875 254.0625 312.753906 254.457031 312.6875 254.5625 C 312.519531 254.835938 313.15625 255.402344 313.953125 255.6875 C 314.863281 256.011719 316.1875 256.007812 317.4375 255.6875 Z M 316.015625 253.183594 C 316.1875 253.136719 316.425781 253.140625 316.546875 253.1875 C 316.664062 253.238281 316.523438 253.273438 316.234375 253.269531 C 315.941406 253.261719 315.84375 253.226562 316.015625 253.183594 Z M 299.707031 254.644531 L 300.660156 254.625 L 301.25 253.570312 C 301.574219 252.988281 301.84375 252.453125 301.84375 252.378906 C 301.84375 252.304688 301.515625 252.246094 301.109375 252.246094 C 298.847656 252.246094 296.34375 251.347656 295.253906 250.140625 C 294.300781 249.089844 293.917969 248.191406 293.601562 246.257812 L 293.3125 244.503906 L 292.828125 246.390625 C 292.5625 247.429688 292.097656 248.816406 291.796875 249.46875 C 290.632812 251.996094 291.296875 253.683594 293.808594 254.585938 C 294.558594 254.855469 295.003906 254.886719 296.726562 254.785156 C 297.84375 254.71875 299.183594 254.65625 299.707031 254.644531 Z M 319.765625 251.644531 C 321.59375 251.363281 322.253906 251.140625 322.8125 250.617188 C 323.605469 249.875 323.386719 249.78125 320.902344 249.78125 C 319.488281 249.78125 318.109375 249.675781 317.328125 249.507812 C 316.628906 249.359375 315.863281 249.195312 315.628906 249.144531 L 315.199219 249.050781 L 315.714844 248.628906 C 316.289062 248.164062 316.660156 248.050781 316.332031 248.445312 C 316.160156 248.65625 316.25 248.714844 316.886719 248.792969 C 317.304688 248.84375 317.925781 248.929688 318.265625 248.984375 C 318.855469 249.078125 321.808594 249.359375 323.296875 249.464844 L 324.003906 249.515625 L 324.46875 248.089844 C 325.464844 245.058594 325.933594 240.375 325.816406 234.648438 C 325.773438 232.550781 325.664062 230.664062 325.574219 230.453125 C 325.488281 230.246094 324.597656 229.230469 323.601562 228.199219 C 321.011719 225.523438 320.074219 225.136719 317.644531 225.746094 C 316.359375 226.066406 315.617188 225.972656 315.617188 225.484375 C 315.617188 223.953125 320.019531 223.953125 322.175781 225.476562 C 322.738281 225.878906 322.925781 225.898438 322.792969 225.550781 C 322.59375 225.039062 321.621094 220.035156 321.265625 217.703125 C 320.75 214.308594 319.089844 206.023438 318.183594 202.292969 C 316.839844 196.785156 313.851562 187.308594 312.039062 182.8125 C 307.839844 172.394531 301.75 162.851562 295.378906 156.71875 C 293.472656 154.878906 290.945312 152.78125 289.75 152.042969 C 289.265625 151.742188 288.21875 151.089844 287.421875 150.589844 C 286.625 150.089844 285.933594 149.679688 285.886719 149.679688 C 285.835938 149.679688 285.796875 151.882812 285.800781 154.570312 C 285.808594 159.335938 285.722656 160.226562 285.230469 160.53125 C 284.898438 160.734375 284.410156 160 284.203125 158.972656 C 284.101562 158.464844 283.859375 156.339844 283.667969 154.253906 C 282.792969 144.734375 280.90625 137.675781 278.132812 133.554688 C 276.582031 131.246094 273.636719 128.097656 270.914062 125.835938 C 269.007812 124.25 269.226562 124.304688 264.589844 124.304688 C 260.789062 124.304688 260.515625 124.324219 260.597656 124.613281 C 260.644531 124.78125 260.78125 125.945312 260.898438 127.195312 C 261.304688 131.492188 260.886719 136.003906 259.472656 142.636719 C 258.199219 148.605469 256.226562 153.828125 252.167969 161.988281 C 251.332031 163.671875 250.648438 165.179688 250.652344 165.339844 C 250.671875 165.945312 257.664062 171.328125 260.1875 172.679688 C 263.652344 174.53125 264.894531 175.167969 265.960938 175.640625 C 267.21875 176.199219 267.386719 176.632812 266.628906 177.34375 C 266.261719 177.6875 266.074219 177.734375 265.417969 177.644531 C 264.753906 177.554688 261.964844 176.472656 261.039062 175.945312 C 260.691406 175.753906 260.664062 175.945312 260.265625 180.871094 C 259.644531 188.570312 259.582031 190.171875 259.796875 192.660156 C 260.199219 197.351562 260.910156 200.125 262.589844 203.5625 C 263.730469 205.894531 265.101562 207.804688 267.214844 209.996094 C 270.800781 213.722656 274.34375 216.328125 282.457031 221.210938 L 287.074219 223.992188 L 288.558594 222.8125 C 291.535156 220.441406 292.578125 220.609375 296.078125 224.03125 L 298.226562 226.136719 L 298.90625 225.003906 C 299.574219 223.894531 299.992188 223.613281 300.191406 224.128906 C 300.246094 224.273438 299.992188 225.285156 299.625 226.378906 C 299.007812 228.234375 298.960938 228.511719 298.949219 230.570312 C 298.929688 233.085938 298.941406 233.058594 296.945312 236.097656 C 296.316406 237.054688 295.515625 238.445312 295.160156 239.183594 C 294.550781 240.460938 294.519531 240.609375 294.535156 242.289062 C 294.5625 245.28125 295.382812 247.703125 296.878906 249.195312 C 297.972656 250.289062 298.867188 250.699219 300.378906 250.796875 C 301.507812 250.871094 301.734375 250.828125 302.417969 250.429688 C 302.941406 250.125 303.34375 249.695312 303.675781 249.082031 C 303.945312 248.589844 304.238281 248.230469 304.324219 248.28125 C 304.578125 248.441406 304.84375 249.617188 304.847656 250.589844 L 304.847656 251.496094 L 305.507812 251.597656 C 305.871094 251.652344 307.765625 251.558594 309.714844 251.386719 C 312.714844 251.125 313.355469 251.015625 313.886719 250.691406 C 314.230469 250.480469 314.671875 250.304688 314.875 250.304688 C 315.25 250.304688 315.875 250.960938 316.0625 251.554688 C 316.152344 251.835938 316.335938 251.890625 317.171875 251.890625 C 317.722656 251.890625 318.890625 251.773438 319.765625 251.640625 Z M 312.789062 224.441406 C 312.207031 223.839844 311.324219 223.175781 310.582031 222.789062 C 307.757812 221.3125 306.109375 220.960938 303.378906 221.253906 C 302.425781 221.359375 301.605469 221.40625 301.558594 221.359375 C 301.511719 221.3125 301.523438 221.078125 301.585938 220.839844 C 301.710938 220.339844 302.605469 220.058594 304.824219 219.824219 C 305.566406 219.746094 306.183594 219.589844 306.265625 219.457031 C 306.46875 219.128906 309.878906 220.8125 311.488281 222.035156 C 312.800781 223.039062 314.1875 224.417969 314.539062 225.074219 C 314.730469 225.429688 314.707031 225.460938 314.253906 225.457031 C 313.890625 225.457031 313.511719 225.191406 312.789062 224.441406 Z M 285.867188 248.601562 C 286.933594 248.359375 288.367188 248.070312 289.046875 247.957031 L 290.28125 247.75 L 290.679688 246.921875 C 290.898438 246.464844 291.390625 244.894531 291.773438 243.429688 L 292.46875 240.765625 L 291.488281 240.332031 C 289.339844 239.382812 287.789062 238.007812 284.214844 233.875 C 283.3125 232.832031 282.507812 231.980469 282.421875 231.980469 C 282.117188 231.980469 280.820312 234.011719 280.5625 234.890625 C 280.3125 235.753906 280.324219 235.871094 280.90625 238.246094 C 281.242188 239.597656 281.566406 241.039062 281.628906 241.449219 C 281.722656 242.042969 281.894531 242.3125 282.460938 242.761719 C 283.28125 243.410156 283.660156 244.175781 283.660156 245.191406 C 283.660156 246.101562 283.402344 246.101562 283.101562 245.199219 C 282.972656 244.8125 282.785156 244.5 282.6875 244.503906 C 282.59375 244.511719 282.324219 245.476562 282.09375 246.652344 C 281.6875 248.726562 281.6875 248.792969 282.007812 249.03125 C 282.394531 249.316406 283.023438 249.246094 285.867188 248.601562 Z M 98.636719 247.886719 C 98.644531 245.398438 99.839844 238.574219 100.542969 237.007812 C 100.800781 236.429688 101.433594 235.371094 101.945312 234.660156 C 102.925781 233.292969 103.054688 232.824219 102.582031 232.304688 C 102.136719 231.816406 101.828125 231.902344 100.492188 232.875 C 99.816406 233.363281 98.585938 234.171875 97.757812 234.664062 C 96.929688 235.160156 95.394531 236.144531 94.347656 236.855469 C 93.304688 237.566406 92.378906 238.148438 92.296875 238.148438 C 92.058594 238.148438 91.871094 243.804688 92.085938 244.601562 C 92.304688 245.414062 93.160156 246.292969 94.648438 247.230469 C 95.789062 247.949219 98.058594 249.058594 98.414062 249.070312 C 98.570312 249.074219 98.636719 248.722656 98.636719 247.886719 Z M 293.59375 237.222656 C 295.785156 234.625 297.070312 231.972656 297.074219 230.03125 L 297.074219 228.871094 L 295.441406 227.210938 C 293.699219 225.4375 292.265625 224.511719 290.914062 224.296875 C 290.164062 224.179688 290.160156 224.179688 289.160156 225.300781 C 287.894531 226.71875 287.109375 227.492188 285.191406 229.21875 C 284.347656 229.976562 283.65625 230.707031 283.65625 230.839844 C 283.65625 231.15625 287.597656 235.117188 289.265625 236.480469 C 291.75 238.507812 292.414062 238.621094 293.589844 237.222656 Z M 95.28125 234.125 C 98.378906 232.320312 100.144531 231.140625 100.8125 230.433594 L 101.316406 229.902344 L 100.976562 229.136719 C 100.789062 228.714844 100.09375 227.496094 99.433594 226.429688 C 98.773438 225.363281 97.914062 223.945312 97.523438 223.28125 C 96.582031 221.671875 95.777344 220.878906 95.089844 220.878906 C 94.421875 220.878906 90.445312 221.871094 89.824219 222.191406 C 89.191406 222.523438 88.734375 223.058594 87.894531 224.457031 L 87.171875 225.652344 L 87.507812 226.480469 C 88.222656 228.246094 91.519531 235.179688 91.796875 235.507812 C 92.167969 235.941406 92.148438 235.949219 95.28125 234.125 Z M 207.992188 228.097656 C 208.859375 228 210.695312 227.804688 212.070312 227.667969 C 215.972656 227.273438 219.960938 226.351562 223.613281 224.992188 C 225.976562 224.117188 230 222.167969 231.578125 221.140625 C 233.363281 219.976562 236.21875 217.09375 237.429688 215.238281 C 240.078125 211.167969 240.65625 207.773438 240.554688 196.808594 C 240.503906 191.472656 240.449219 190.394531 240.230469 190.125 C 239.625 189.394531 234.882812 187.492188 230.832031 186.359375 C 223.953125 184.433594 214.015625 183.011719 203.59375 182.453125 C 199.070312 182.214844 189.503906 182.214844 185.410156 182.453125 C 175.988281 183.011719 160.484375 184.910156 153.71875 186.328125 C 151.910156 186.710938 149.679688 187.710938 148.527344 188.660156 L 147.855469 189.210938 L 147.945312 199.890625 C 148.027344 209.847656 148.058594 210.6875 148.402344 212.328125 C 148.835938 214.40625 149.058594 214.992188 149.453125 215.152344 C 149.613281 215.21875 150.898438 215.242188 152.308594 215.210938 C 159.980469 215.03125 167.480469 215.640625 174.199219 216.996094 C 179.605469 218.082031 180.023438 218.257812 184.644531 221.296875 C 188.140625 223.597656 190.734375 224.953125 193.539062 225.949219 C 195.515625 226.652344 198.945312 227.601562 201.035156 228.015625 C 202.445312 228.296875 205.882812 228.335938 207.992188 228.09375 Z M 156.015625 183.503906 C 158.382812 182.957031 169.921875 181.335938 174.640625 180.890625 C 181.140625 180.273438 188.082031 180.011719 198.210938 180 C 209.046875 179.992188 217.59375 180.867188 227.074219 182.960938 L 230.078125 183.625 L 230.195312 183.085938 C 230.320312 182.519531 230.707031 169.96875 230.699219 166.722656 C 230.699219 165.671875 230.613281 164.664062 230.511719 164.476562 C 230.148438 163.800781 227.613281 162.847656 223.015625 161.667969 C 218.238281 160.441406 214.363281 159.78125 207.832031 159.082031 C 202.667969 158.527344 188.058594 158.730469 179.757812 159.46875 C 174.296875 159.953125 164.457031 161.554688 159.546875 162.757812 C 157.914062 163.15625 155.582031 164.003906 155.085938 164.378906 C 154.796875 164.597656 154.785156 165.195312 154.894531 174.152344 C 154.960938 179.402344 155.058594 183.691406 155.117188 183.691406 C 155.171875 183.691406 155.578125 183.605469 156.015625 183.503906 Z M 149.636719 170.898438 C 150.550781 170.761719 151.363281 170.605469 151.449219 170.550781 C 151.53125 170.5 151.601562 169.703125 151.601562 168.78125 C 151.601562 167.527344 151.546875 167.117188 151.378906 167.160156 C 151.257812 167.191406 148.511719 168.089844 145.273438 169.15625 L 139.386719 171.09375 L 140.769531 171.1875 C 142.953125 171.335938 147.820312 171.175781 149.636719 170.898438 Z M 241.421875 171.140625 C 241.355469 170.929688 240.238281 170.523438 236.257812 169.257812 C 235.285156 168.949219 234.160156 168.503906 233.753906 168.265625 C 233.347656 168.027344 232.96875 167.835938 232.914062 167.835938 C 232.859375 167.835938 232.8125 168.496094 232.8125 169.304688 L 232.8125 170.777344 L 234.800781 170.917969 C 235.894531 170.992188 237.542969 171.109375 238.464844 171.175781 C 241.316406 171.382812 241.5 171.378906 241.421875 171.140625 Z M 138.320312 168.902344 C 140.136719 167.882812 147.652344 164.277344 149.882812 163.359375 C 154.988281 161.257812 160.195312 159.910156 168.636719 158.511719 C 176.28125 157.242188 179.527344 156.894531 187.175781 156.535156 C 192.09375 156.304688 202.957031 156.242188 206.289062 156.425781 L 208.449219 156.546875 L 208.449219 152.015625 C 208.449219 149.519531 208.570312 143.675781 208.710938 139.023438 C 208.851562 134.371094 208.972656 128.671875 208.972656 126.359375 L 208.980469 122.15625 L 207.347656 122.265625 C 203.625 122.523438 200.910156 122.765625 197.152344 123.167969 C 194.964844 123.402344 191.828125 123.710938 190.175781 123.855469 C 175.441406 125.160156 175.015625 125.191406 164.136719 125.808594 C 155.839844 126.277344 148.289062 126.0625 141.890625 125.167969 C 139.25 124.800781 133.570312 123.785156 131.78125 123.359375 L 130.761719 123.117188 L 130.660156 123.582031 C 130 126.480469 128.46875 131.710938 127.132812 135.625 C 125.957031 139.058594 123.890625 143.800781 122.386719 146.511719 C 121.632812 147.867188 121.0625 149.101562 121.058594 149.382812 C 121.050781 150.886719 125.054688 157.902344 128.121094 161.753906 C 130.777344 165.089844 133.945312 168.191406 135.800781 169.261719 C 136.285156 169.539062 136.703125 169.769531 136.730469 169.769531 C 136.753906 169.769531 137.472656 169.382812 138.320312 168.902344 Z M 245.289062 167.085938 C 249.558594 162.695312 254.773438 152.082031 256.855469 143.539062 C 257.394531 141.316406 258.433594 135.722656 258.324219 135.613281 C 258.292969 135.582031 256.699219 135.359375 254.785156 135.121094 C 249.054688 134.402344 243.554688 132.808594 230.871094 128.183594 C 217.554688 123.328125 213.886719 122.191406 211.546875 122.191406 L 210.425781 122.191406 L 210.328125 123.820312 C 210.027344 128.832031 209.652344 156.40625 209.882812 156.632812 C 209.921875 156.675781 210.949219 156.839844 212.160156 156.996094 C 218.902344 157.875 226.675781 159.824219 232.242188 162.039062 C 234.894531 163.09375 237.324219 164.300781 241.019531 166.40625 C 242.574219 167.289062 243.964844 168.011719 244.117188 168.011719 C 244.265625 168.011719 244.796875 167.59375 245.289062 167.085938 Z M 258.457031 129.152344 C 258.402344 124.785156 258.242188 123.714844 256.921875 118.898438 C 254.898438 111.527344 252.96875 107.285156 248.34375 100.023438 C 244.808594 94.480469 239.898438 88.53125 238.851562 88.53125 C 238.644531 88.53125 237.972656 88.71875 237.363281 88.949219 C 235.890625 89.503906 234.789062 89.726562 232.027344 90.035156 C 225.199219 90.796875 213.988281 90.4375 201.386719 89.050781 C 196.125 88.46875 192.613281 87.90625 185.410156 86.488281 C 177.210938 84.871094 169.996094 82.554688 161.066406 78.671875 C 159.113281 77.824219 157.351562 77.078125 157.15625 77.015625 C 156.832031 76.914062 156.710938 77.132812 155.941406 79.238281 C 154.578125 82.957031 153.179688 85.542969 149.886719 90.4375 C 146.453125 95.550781 142.832031 99.957031 138.636719 104.132812 C 135.996094 106.757812 132.730469 109.234375 131.253906 109.722656 C 131.175781 109.75 131.199219 111.109375 131.308594 112.75 C 131.453125 114.960938 131.449219 116.359375 131.300781 118.183594 C 131.1875 119.535156 131.136719 120.679688 131.1875 120.730469 C 131.375 120.921875 139.003906 122.367188 141.625 122.707031 C 151.511719 124 155.679688 124.023438 173.226562 122.890625 C 183.046875 122.257812 210.203125 119.445312 210.636719 119.019531 C 210.855469 118.804688 210.3125 114.625 209.574219 110.824219 C 207.726562 101.355469 206.226562 95.96875 204.910156 94.09375 C 204.527344 93.546875 204.210938 93.0625 204.210938 93.019531 C 204.210938 92.976562 204.574219 92.9375 205.015625 92.9375 C 205.941406 92.9375 206.691406 93.273438 207.078125 93.859375 C 207.929688 95.160156 210.867188 106.332031 212.136719 113.117188 C 212.949219 117.457031 213.039062 118.035156 213.039062 118.773438 C 213.039062 119.46875 213.085938 119.550781 213.527344 119.652344 C 213.792969 119.714844 214.621094 119.914062 215.363281 120.097656 C 217.152344 120.535156 228.15625 124.421875 236.519531 127.566406 C 241.710938 129.519531 246.769531 131.140625 249.707031 131.789062 C 252.101562 132.320312 256.539062 132.925781 257.707031 132.882812 L 258.503906 132.855469 Z M 269.394531 121.816406 C 270.277344 121.597656 271.859375 120.367188 272.703125 119.238281 C 273.597656 118.046875 274.058594 116.792969 274.316406 114.863281 C 274.679688 112.121094 273.992188 108.167969 272.695312 105.574219 C 270.914062 102.015625 265.921875 97.046875 261.582031 94.519531 C 257.601562 92.199219 252.0625 90.175781 247.195312 89.265625 C 244.753906 88.808594 243.054688 88.628906 243.054688 88.828125 C 243.054688 88.910156 243.382812 89.375 243.78125 89.859375 C 248.539062 95.597656 253.722656 104.015625 256.265625 110.128906 C 257.144531 112.242188 259.046875 117.722656 259.914062 120.640625 L 260.371094 122.167969 L 264.554688 122.074219 C 266.859375 122.023438 269.035156 121.90625 269.394531 121.816406 Z M 116.996094 111.59375 C 127.117188 110.347656 133.351562 106.742188 141.164062 97.617188 C 145.066406 93.0625 146.851562 90.675781 149.449219 86.546875 C 151.765625 82.867188 154.25 77.640625 154.25 76.445312 C 154.25 76.199219 154.011719 75.664062 153.726562 75.257812 C 152.683594 73.789062 148.5 68.726562 148.066406 68.40625 C 147.519531 68.007812 144.117188 67.570312 137.125 67.003906 C 122.992188 65.859375 112.410156 67.105469 106.152344 70.65625 C 104.308594 71.703125 101.324219 73.902344 98.917969 75.992188 C 95.878906 78.628906 92.570312 82.757812 90.261719 86.792969 C 88.253906 90.308594 87.707031 92.324219 87.335938 97.542969 C 87.007812 102.160156 87.539062 104.472656 89.203125 105.679688 C 90.535156 106.644531 94.929688 108.753906 97.003906 109.425781 C 99.574219 110.257812 104.042969 111.359375 105.875 111.609375 C 109.902344 112.160156 112.417969 112.15625 116.996094 111.59375 Z M 231.3125 87.6875 L 232.195312 87.539062 L 231.320312 87.144531 C 229.726562 86.429688 228.0625 86.066406 226.375 86.066406 C 224.347656 86.066406 211.3125 85.417969 208.625 85.183594 C 194.019531 83.910156 191.5 83.617188 185.761719 82.535156 C 184.695312 82.335938 182.988281 82.019531 181.96875 81.839844 C 178.972656 81.308594 175.40625 80.472656 174.003906 79.972656 C 173.285156 79.714844 170.832031 78.6875 168.550781 77.691406 C 159.296875 73.640625 159.792969 73.898438 154.964844 70.65625 C 151.242188 68.160156 151.523438 68.324219 151.777344 68.796875 C 151.894531 69.011719 153.03125 70.234375 154.308594 71.511719 C 156.570312 73.773438 156.695312 73.871094 158.933594 75.003906 C 165.597656 78.382812 176.222656 82.058594 184.175781 83.746094 C 194.9375 86.023438 201.605469 86.875 216.042969 87.816406 C 218.828125 88 230.023438 87.902344 231.3125 87.6875 Z M 234.988281 87.382812 C 235.027344 87.183594 232.71875 85.609375 232.195312 85.476562 C 231.933594 85.410156 231.976562 85.488281 232.355469 85.769531 C 232.636719 85.980469 233.273438 86.488281 233.765625 86.894531 C 234.648438 87.617188 234.925781 87.730469 234.988281 87.382812 Z M 228.488281 84.128906 C 228.546875 84.03125 228.472656 83.949219 228.320312 83.949219 C 228.171875 83.949219 228.046875 84.03125 228.046875 84.128906 C 228.046875 84.222656 228.121094 84.304688 228.214844 84.304688 C 228.304688 84.304688 228.429688 84.222656 228.488281 84.128906 Z M 224.792969 83.839844 C 225.035156 83.679688 225.394531 83.324219 225.59375 83.046875 L 225.953125 82.542969 L 225.359375 82.542969 C 224.835938 82.542969 224.734375 82.621094 224.507812 83.203125 C 224.367188 83.566406 224.226562 83.921875 224.191406 83.996094 C 224.097656 84.207031 224.316406 84.148438 224.792969 83.839844 Z M 222.285156 83.378906 C 222.535156 82.457031 222.429688 82.226562 221.734375 82.117188 C 220.488281 81.921875 217.386719 81.679688 217.242188 81.769531 C 217.0625 81.878906 217.054688 83.414062 217.234375 83.445312 C 217.304688 83.457031 218.238281 83.523438 219.308594 83.589844 C 220.375 83.660156 221.457031 83.726562 221.714844 83.746094 C 222.0625 83.765625 222.207031 83.671875 222.285156 83.378906 Z M 213.8125 82.671875 C 214.015625 81.589844 214.265625 77.859375 214.449219 73.113281 C 214.699219 66.804688 214.945312 61.699219 215.15625 58.574219 C 215.25 57.167969 215.328125 55.046875 215.332031 53.855469 L 215.339844 51.695312 L 214.675781 52.027344 C 213.105469 52.8125 210.660156 53.226562 209.421875 52.914062 C 208.429688 52.667969 207.324219 51.523438 207.03125 50.441406 C 206.796875 49.566406 207.085938 45.816406 207.417969 45.414062 C 207.710938 45.0625 208.695312 44.835938 211.160156 44.554688 C 212.40625 44.410156 213.957031 44.21875 214.601562 44.125 C 215.25 44.03125 216.15625 43.953125 216.617188 43.949219 L 217.457031 43.945312 L 217.457031 41.949219 C 217.457031 38.050781 216.816406 37.195312 212.59375 35.480469 C 207.789062 33.53125 201.738281 32.125 194.683594 31.328125 C 190.042969 30.804688 182.566406 30.945312 181.9375 31.570312 C 181.863281 31.644531 181.730469 32.933594 181.648438 34.433594 C 181.5625 35.933594 181.480469 36.683594 181.464844 36.101562 C 181.429688 34.871094 181.257812 34.453125 180.9375 34.835938 C 180.546875 35.304688 179.894531 37.527344 179.425781 39.992188 C 179.167969 41.339844 178.882812 42.578125 178.792969 42.738281 C 178.679688 42.945312 178.785156 43.480469 179.140625 44.5 C 180.058594 47.132812 180.738281 51.6875 180.25 51.902344 C 180.175781 51.9375 179.917969 52.351562 179.675781 52.832031 C 179.007812 54.148438 177.171875 56.007812 175.996094 56.570312 C 174.035156 57.5 171.03125 57.257812 168.394531 55.949219 L 167.324219 55.417969 L 166.511719 58.007812 C 164.632812 64.027344 162.65625 69.652344 161.910156 71.125 L 161.488281 71.957031 L 162.0625 72.203125 C 162.378906 72.339844 164.464844 73.28125 166.699219 74.300781 C 172.632812 77 175.09375 77.953125 176.164062 77.953125 C 176.589844 77.953125 176.632812 77.882812 176.734375 77.03125 C 176.796875 76.523438 176.855469 75.667969 176.871094 75.136719 C 176.886719 74.328125 176.914062 74.253906 177.023438 74.695312 L 177.15625 75.222656 L 177.289062 74.652344 C 177.363281 74.339844 177.492188 74.128906 177.578125 74.179688 C 177.664062 74.234375 177.734375 74.113281 177.734375 73.914062 C 177.734375 73.714844 177.808594 73.550781 177.90625 73.550781 C 178.003906 73.550781 178.097656 72.539062 178.128906 71.125 C 178.160156 69.792969 178.203125 70.90625 178.222656 73.597656 C 178.261719 78.488281 178.261719 78.492188 178.660156 78.664062 C 179.703125 79.109375 185.15625 80.152344 190.132812 80.855469 C 197.070312 81.835938 201.128906 82.296875 207.921875 82.882812 C 211.160156 83.160156 211.4375 83.179688 212.625 83.214844 L 213.710938 83.242188 Z M 177.082031 72.496094 C 177.082031 71.867188 177.113281 71.609375 177.152344 71.921875 C 177.191406 72.238281 177.191406 72.753906 177.152344 73.070312 C 177.113281 73.382812 177.082031 73.125 177.082031 72.496094 Z M 208.351562 66.308594 C 206.136719 64.867188 203.367188 63.351562 202.203125 62.941406 C 201.355469 62.640625 200.761719 62.566406 199.445312 62.585938 C 198.339844 62.605469 197.195312 62.492188 196.089844 62.257812 C 193.597656 61.730469 191.0625 61.398438 189.46875 61.402344 C 187.203125 61.402344 185.808594 62.242188 184.789062 64.214844 C 184.515625 64.746094 184.171875 65.339844 184.027344 65.53125 C 183.773438 65.871094 183.753906 65.871094 183.410156 65.5625 C 183.21875 65.390625 182.886719 64.847656 182.675781 64.355469 C 182.179688 63.207031 182.339844 62.804688 183.828125 61.414062 C 186.601562 58.824219 188.199219 58.722656 197.496094 60.535156 C 202.832031 61.574219 203.90625 61.910156 207.015625 63.519531 C 209.339844 64.722656 209.910156 64.914062 210.128906 64.566406 C 210.335938 64.226562 211.070312 64.386719 211.4375 64.855469 C 211.925781 65.472656 211.902344 66.171875 211.371094 66.742188 C 210.691406 67.476562 209.984375 67.375 208.351562 66.308594 Z M 177.597656 63.597656 C 177.597656 63.207031 177.636719 63.070312 177.679688 63.289062 C 177.71875 63.507812 177.71875 63.828125 177.671875 63.996094 C 177.628906 64.164062 177.59375 63.984375 177.59375 63.597656 Z M 198.398438 53.074219 C 197.597656 52.648438 197.75 52.40625 198.820312 52.40625 C 200.132812 52.40625 200.609375 52.078125 200.945312 50.945312 C 201.375 49.503906 201.339844 49.398438 200.449219 49.519531 C 198.636719 49.769531 195.292969 48.425781 192.558594 46.355469 C 190.664062 44.914062 185.933594 40.304688 185.683594 39.65625 C 185.164062 38.289062 185.832031 37.363281 187.484375 37.164062 C 190 36.859375 196.667969 39.019531 200.800781 41.480469 C 202.769531 42.652344 204.828125 44.175781 205.195312 44.734375 C 205.550781 45.277344 205.421875 45.691406 204.597656 46.644531 C 203.695312 47.679688 202.847656 49.046875 202.707031 49.675781 C 202.40625 51.042969 201.863281 52.394531 201.464844 52.769531 C 201.121094 53.09375 200.78125 53.195312 199.925781 53.242188 C 199.257812 53.277344 198.660156 53.214844 198.398438 53.074219 Z M 201.074219 47.523438 C 201.726562 47.082031 202.625 46.054688 202.625 45.75 C 202.625 45.554688 199.789062 43.554688 198.214844 42.640625 C 196.210938 41.472656 191.566406 39.839844 189.582031 39.601562 C 188.6875 39.496094 188.644531 39.507812 188.824219 39.824219 C 189.3125 40.683594 193.796875 44.992188 195.03125 45.785156 C 195.761719 46.253906 196.703125 46.875 197.125 47.167969 C 198.675781 48.238281 199.859375 48.34375 201.074219 47.523438 Z M 181.113281 41.480469 C 181.113281 41.238281 181.152344 41.140625 181.203125 41.261719 C 181.25 41.382812 181.25 41.578125 181.203125 41.699219 C 181.152344 41.820312 181.113281 41.722656 181.113281 41.480469 Z M 174.542969 54.261719 C 176.210938 53.671875 176.839844 52.765625 177.195312 50.414062 C 177.710938 47.011719 176.652344 43.726562 174.605469 42.375 C 173.675781 41.757812 172.652344 41.566406 171.242188 41.742188 C 169.285156 41.984375 168.171875 42.761719 167.476562 44.367188 C 167.144531 45.136719 167.066406 45.738281 166.957031 48.441406 L 166.828125 51.613281 L 167.253906 52.070312 C 167.796875 52.65625 170.0625 53.949219 170.792969 54.097656 L 171.351562 54.207031 L 171.460938 52.496094 L 171.792969 53.109375 C 172.554688 54.539062 173.101562 54.765625 174.542969 54.261719 Z M 169.066406 52.335938 C 169.417969 51.910156 169.59375 51.023438 169.433594 50.46875 C 169.253906 49.84375 169.464844 49.644531 169.878906 50.054688 C 170.085938 50.265625 170.148438 50.527344 170.078125 50.941406 C 169.976562 51.582031 169.34375 52.582031 169.046875 52.582031 C 168.925781 52.582031 168.929688 52.496094 169.066406 52.335938 Z M 172.683594 49.496094 C 172.539062 48.933594 172.78125 48.65625 173.339844 48.734375 C 173.671875 48.78125 173.757812 48.902344 173.757812 49.324219 C 173.757812 49.765625 173.679688 49.859375 173.277344 49.90625 C 172.886719 49.953125 172.777344 49.875 172.683594 49.496094 Z M 172.085938 45.804688 C 171.964844 45.660156 171.925781 45.386719 171.996094 45.167969 C 172.101562 44.835938 172.210938 44.800781 172.828125 44.882812 C 173.734375 45.003906 174.179688 45.398438 173.851562 45.789062 C 173.5625 46.136719 172.371094 46.148438 172.085938 45.804688 Z M 213.175781 51.082031 C 214.371094 50.726562 215.648438 49.839844 216.292969 48.921875 C 216.710938 48.324219 216.824219 47.976562 216.828125 47.246094 L 216.835938 46.328125 L 214.804688 46.359375 C 212.496094 46.398438 210.003906 46.683594 209.292969 46.992188 C 208.683594 47.257812 208.625 47.414062 208.5 49.183594 C 208.390625 50.71875 208.5 51.046875 209.238281 51.367188 C 209.722656 51.578125 212.070312 51.40625 213.175781 51.082031 Z M 213.175781 51.082031 " fill-opacity="1" fill-rule="nonzero"/></g></svg>