<?xml version="1.0" encoding="UTF-8"?>
<svg id="Layer_1" data-name="Layer 1" xmlns="http://www.w3.org/2000/svg" version="1.1" viewBox="0 0 500 500">
  <defs>
    <style>
      .cls-1 {
        fill: #8ca2bc;
      }

      .cls-1, .cls-2, .cls-3, .cls-4, .cls-5, .cls-6, .cls-7, .cls-8, .cls-9, .cls-10, .cls-11, .cls-12, .cls-13, .cls-14, .cls-15, .cls-16, .cls-17, .cls-18, .cls-19, .cls-20, .cls-21 {
        stroke-width: 0px;
      }

      .cls-2 {
        fill: #4e7aaf;
      }

      .cls-3 {
        fill: #f2f2f2;
      }

      .cls-4 {
        fill: #3865a5;
      }

      .cls-5 {
        fill: #5888b7;
      }

      .cls-6 {
        fill: #dddd9f;
      }

      .cls-7 {
        fill: #79a3c6;
      }

      .cls-8 {
        fill: #abc6d8;
      }

      .cls-9 {
        fill: #3d6389;
      }

      .cls-10 {
        fill: #576570;
      }

      .cls-11 {
        fill: #454f56;
      }

      .cls-12 {
        fill: #6f8193;
      }

      .cls-13 {
        fill: #9b2f3c;
      }

      .cls-14 {
        fill: #789fba;
      }

      .cls-15 {
        fill: #cacc6e;
      }

      .cls-16 {
        fill: #a3a04a;
      }

      .cls-17 {
        fill: #779fbf;
      }

      .cls-18 {
        fill: #94b8d6;
      }

      .cls-19 {
        fill: #afafaf;
      }

      .cls-20 {
        fill: #32537a;
      }

      .cls-21 {
        fill: #3e6d93;
      }
    </style>
  </defs>
  <rect class="cls-4" x="431.37" y="274.51" width="9.81" height="9.8"/>
  <rect class="cls-4" x="431.37" y="264.71" width="9.81" height="9.8"/>
  <rect class="cls-4" x="431.37" y="254.9" width="9.81" height="9.81"/>
  <rect class="cls-18" x="431.37" y="245.1" width="9.81" height="9.8"/>
  <rect class="cls-20" x="421.57" y="284.31" width="9.8" height="9.81"/>
  <rect class="cls-2" x="421.57" y="274.51" width="9.8" height="9.8"/>
  <rect class="cls-2" x="421.57" y="264.71" width="9.8" height="9.8"/>
  <rect class="cls-2" x="421.57" y="254.9" width="9.8" height="9.81"/>
  <rect class="cls-18" x="421.57" y="245.1" width="9.8" height="9.8"/>
  <rect class="cls-8" x="421.57" y="235.29" width="9.8" height="9.81"/>
  <rect class="cls-20" x="411.76" y="294.12" width="9.81" height="9.8"/>
  <rect class="cls-2" x="411.76" y="284.31" width="9.81" height="9.81"/>
  <rect class="cls-2" x="411.76" y="274.51" width="9.81" height="9.8"/>
  <rect class="cls-9" x="411.76" y="264.71" width="9.81" height="9.8"/>
  <rect class="cls-20" x="411.76" y="254.9" width="9.81" height="9.81"/>
  <rect class="cls-4" x="411.76" y="245.1" width="9.81" height="9.8"/>
  <rect class="cls-18" x="411.76" y="235.29" width="9.81" height="9.81"/>
  <rect class="cls-20" x="401.96" y="294.12" width="9.8" height="9.8"/>
  <rect class="cls-2" x="401.96" y="284.31" width="9.8" height="9.81"/>
  <rect class="cls-9" x="401.96" y="274.51" width="9.8" height="9.8"/>
  <rect class="cls-20" x="401.96" y="264.71" width="9.8" height="9.8"/>
  <rect class="cls-2" x="401.96" y="235.29" width="9.8" height="9.81"/>
  <rect class="cls-20" x="392.16" y="303.92" width="9.8" height="9.81"/>
  <rect class="cls-2" x="392.16" y="294.12" width="9.8" height="9.8"/>
  <rect class="cls-2" x="392.16" y="284.31" width="9.8" height="9.81"/>
  <rect class="cls-20" x="392.16" y="274.51" width="9.8" height="9.8"/>
  <rect class="cls-20" x="382.35" y="303.92" width="9.81" height="9.81"/>
  <rect class="cls-2" x="382.35" y="294.12" width="9.81" height="9.8"/>
  <rect class="cls-2" x="382.35" y="284.31" width="9.81" height="9.81"/>
  <rect class="cls-4" x="382.35" y="274.51" width="9.81" height="9.8"/>
  <rect class="cls-20" x="372.55" y="303.92" width="9.8" height="9.81"/>
  <rect class="cls-2" x="372.55" y="294.12" width="9.8" height="9.8"/>
  <rect class="cls-2" x="372.55" y="284.31" width="9.8" height="9.81"/>
  <rect class="cls-2" x="372.55" y="274.51" width="9.8" height="9.8"/>
  <rect class="cls-7" x="372.55" y="264.71" width="9.8" height="9.8"/>
  <rect class="cls-20" x="362.75" y="303.92" width="9.8" height="9.81"/>
  <rect class="cls-2" x="362.75" y="294.12" width="9.8" height="9.8"/>
  <rect class="cls-2" x="362.75" y="284.31" width="9.8" height="9.81"/>
  <rect class="cls-2" x="362.75" y="274.51" width="9.8" height="9.8"/>
  <rect class="cls-2" x="362.75" y="264.71" width="9.8" height="9.8"/>
  <rect class="cls-8" x="362.75" y="254.9" width="9.8" height="9.81"/>
  <rect class="cls-8" x="362.75" y="245.1" width="9.8" height="9.8"/>
  <rect class="cls-20" x="352.94" y="303.92" width="9.81" height="9.81"/>
  <rect class="cls-9" x="352.94" y="294.12" width="9.81" height="9.8"/>
  <rect class="cls-2" x="352.94" y="284.31" width="9.81" height="9.81"/>
  <rect class="cls-2" x="352.94" y="274.51" width="9.81" height="9.8"/>
  <rect class="cls-2" x="352.94" y="264.71" width="9.81" height="9.8"/>
  <rect class="cls-6" x="352.94" y="254.9" width="9.81" height="9.81"/>
  <rect class="cls-6" x="352.94" y="245.1" width="9.81" height="9.8"/>
  <rect class="cls-8" x="352.94" y="235.29" width="9.81" height="9.81"/>
  <rect class="cls-20" x="343.14" y="303.92" width="9.8" height="9.81"/>
  <rect class="cls-9" x="343.14" y="294.12" width="9.8" height="9.8"/>
  <rect class="cls-2" x="343.14" y="284.31" width="9.8" height="9.81"/>
  <rect class="cls-2" x="343.14" y="274.51" width="9.8" height="9.8"/>
  <rect class="cls-16" x="343.14" y="264.71" width="9.8" height="9.8"/>
  <rect class="cls-15" x="343.14" y="254.9" width="9.8" height="9.81"/>
  <rect class="cls-6" x="343.14" y="245.1" width="9.8" height="9.8"/>
  <rect class="cls-8" x="343.14" y="235.29" width="9.8" height="9.81"/>
  <rect class="cls-20" x="333.33" y="303.92" width="9.81" height="9.81"/>
  <rect class="cls-9" x="333.33" y="294.12" width="9.81" height="9.8"/>
  <rect class="cls-2" x="333.33" y="284.31" width="9.81" height="9.81"/>
  <rect class="cls-2" x="333.33" y="274.51" width="9.81" height="9.8"/>
  <rect class="cls-2" x="333.33" y="264.71" width="9.81" height="9.8"/>
  <rect class="cls-2" x="333.33" y="254.9" width="9.81" height="9.81"/>
  <rect class="cls-6" x="333.33" y="245.1" width="9.81" height="9.8"/>
  <rect class="cls-14" x="333.33" y="235.29" width="9.81" height="9.81"/>
  <rect class="cls-20" x="323.53" y="294.12" width="9.8" height="9.8"/>
  <rect class="cls-9" x="323.53" y="284.31" width="9.8" height="9.81"/>
  <rect class="cls-2" x="323.53" y="274.51" width="9.8" height="9.8"/>
  <rect class="cls-2" x="323.53" y="264.71" width="9.8" height="9.8"/>
  <rect class="cls-2" x="323.53" y="254.9" width="9.8" height="9.81"/>
  <rect class="cls-20" x="323.53" y="245.1" width="9.8" height="9.8"/>
  <rect class="cls-20" x="313.73" y="294.12" width="9.8" height="9.8"/>
  <rect class="cls-9" x="313.73" y="284.31" width="9.8" height="9.81"/>
  <rect class="cls-2" x="313.73" y="274.51" width="9.8" height="9.8"/>
  <rect class="cls-9" x="313.73" y="264.71" width="9.8" height="9.8"/>
  <rect class="cls-20" x="313.73" y="254.9" width="9.8" height="9.81"/>
  <rect class="cls-9" x="313.73" y="245.1" width="9.8" height="9.8"/>
  <rect class="cls-8" x="313.73" y="235.29" width="9.8" height="9.81"/>
  <rect class="cls-20" x="303.92" y="294.12" width="9.81" height="9.8"/>
  <rect class="cls-2" x="303.92" y="284.31" width="9.81" height="9.81"/>
  <rect class="cls-2" x="303.92" y="274.51" width="9.81" height="9.8"/>
  <rect class="cls-2" x="303.92" y="264.71" width="9.81" height="9.8"/>
  <rect class="cls-9" x="303.92" y="254.9" width="9.81" height="9.81"/>
  <rect class="cls-2" x="303.92" y="245.1" width="9.81" height="9.8"/>
  <rect class="cls-6" x="303.92" y="235.29" width="9.81" height="9.81"/>
  <rect class="cls-8" x="303.92" y="225.49" width="9.81" height="9.8"/>
  <rect class="cls-20" x="294.12" y="303.92" width="9.8" height="9.81"/>
  <rect class="cls-9" x="294.12" y="294.12" width="9.8" height="9.8"/>
  <rect class="cls-2" x="294.12" y="284.31" width="9.8" height="9.81"/>
  <rect class="cls-2" x="294.12" y="274.51" width="9.8" height="9.8"/>
  <rect class="cls-2" x="294.12" y="264.71" width="9.8" height="9.8"/>
  <rect class="cls-2" x="294.12" y="254.9" width="9.8" height="9.81"/>
  <rect class="cls-16" x="294.12" y="245.1" width="9.8" height="9.8"/>
  <rect class="cls-15" x="294.12" y="235.29" width="9.8" height="9.81"/>
  <rect class="cls-6" x="294.12" y="225.49" width="9.8" height="9.8"/>
  <rect class="cls-8" x="294.12" y="215.69" width="9.8" height="9.8"/>
  <rect class="cls-20" x="284.31" y="303.92" width="9.81" height="9.81"/>
  <rect class="cls-9" x="284.31" y="294.12" width="9.81" height="9.8"/>
  <rect class="cls-2" x="284.31" y="284.31" width="9.81" height="9.81"/>
  <rect class="cls-2" x="284.31" y="274.51" width="9.81" height="9.8"/>
  <rect class="cls-2" x="284.31" y="264.71" width="9.81" height="9.8"/>
  <rect class="cls-2" x="284.31" y="254.9" width="9.81" height="9.81"/>
  <rect class="cls-2" x="284.31" y="245.1" width="9.81" height="9.8"/>
  <rect class="cls-2" x="284.31" y="235.29" width="9.81" height="9.81"/>
  <rect class="cls-15" x="284.31" y="225.49" width="9.81" height="9.8"/>
  <rect class="cls-6" x="284.31" y="215.69" width="9.81" height="9.8"/>
  <rect class="cls-8" x="284.31" y="205.88" width="9.81" height="9.81"/>
  <rect class="cls-20" x="274.51" y="303.92" width="9.8" height="9.81"/>
  <rect class="cls-2" x="274.51" y="294.12" width="9.8" height="9.8"/>
  <rect class="cls-2" x="274.51" y="284.31" width="9.8" height="9.81"/>
  <rect class="cls-2" x="274.51" y="274.51" width="9.8" height="9.8"/>
  <rect class="cls-2" x="274.51" y="264.71" width="9.8" height="9.8"/>
  <rect class="cls-2" x="274.51" y="254.9" width="9.8" height="9.81"/>
  <rect class="cls-2" x="274.51" y="245.1" width="9.8" height="9.8"/>
  <rect class="cls-2" x="274.51" y="235.29" width="9.8" height="9.81"/>
  <rect class="cls-2" x="274.51" y="225.49" width="9.8" height="9.8"/>
  <rect class="cls-2" x="274.51" y="215.69" width="9.8" height="9.8"/>
  <rect class="cls-18" x="274.51" y="205.88" width="9.8" height="9.81"/>
  <rect class="cls-20" x="264.71" y="313.73" width="9.8" height="9.8"/>
  <rect class="cls-9" x="264.71" y="303.92" width="9.8" height="9.81"/>
  <rect class="cls-2" x="264.71" y="294.12" width="9.8" height="9.8"/>
  <rect class="cls-2" x="264.71" y="284.31" width="9.8" height="9.81"/>
  <rect class="cls-2" x="264.71" y="274.51" width="9.8" height="9.8"/>
  <rect class="cls-2" x="264.71" y="264.71" width="9.8" height="9.8"/>
  <rect class="cls-2" x="264.71" y="254.9" width="9.8" height="9.81"/>
  <rect class="cls-2" x="264.71" y="245.1" width="9.8" height="9.8"/>
  <rect class="cls-2" x="264.71" y="235.29" width="9.8" height="9.81"/>
  <rect class="cls-2" x="264.71" y="225.49" width="9.8" height="9.8"/>
  <rect class="cls-2" x="264.71" y="215.69" width="9.8" height="9.8"/>
  <rect class="cls-7" x="264.71" y="205.88" width="9.8" height="9.81"/>
  <rect class="cls-20" x="254.9" y="323.53" width="9.81" height="9.8"/>
  <rect class="cls-9" x="254.9" y="313.73" width="9.81" height="9.8"/>
  <rect class="cls-2" x="254.9" y="303.92" width="9.81" height="9.81"/>
  <rect class="cls-2" x="254.9" y="294.12" width="9.81" height="9.8"/>
  <rect class="cls-2" x="254.9" y="284.31" width="9.81" height="9.81"/>
  <rect class="cls-2" x="254.9" y="274.51" width="9.81" height="9.8"/>
  <rect class="cls-2" x="254.9" y="264.71" width="9.81" height="9.8"/>
  <rect class="cls-16" x="254.9" y="254.9" width="9.81" height="9.81"/>
  <rect class="cls-15" x="254.9" y="245.1" width="9.81" height="9.8"/>
  <rect class="cls-2" x="254.9" y="235.29" width="9.81" height="9.81"/>
  <rect class="cls-2" x="254.9" y="225.49" width="9.81" height="9.8"/>
  <rect class="cls-2" x="254.9" y="215.69" width="9.81" height="9.8"/>
  <rect class="cls-7" x="254.9" y="205.88" width="9.81" height="9.81"/>
  <rect class="cls-20" x="245.1" y="333.33" width="9.8" height="9.81"/>
  <rect class="cls-9" x="245.1" y="323.53" width="9.8" height="9.8"/>
  <rect class="cls-9" x="245.1" y="313.73" width="9.8" height="9.8"/>
  <rect class="cls-2" x="245.1" y="303.92" width="9.8" height="9.81"/>
  <rect class="cls-2" x="245.1" y="294.12" width="9.8" height="9.8"/>
  <rect class="cls-2" x="245.1" y="284.31" width="9.8" height="9.81"/>
  <rect class="cls-2" x="245.1" y="274.51" width="9.8" height="9.8"/>
  <rect class="cls-2" x="245.1" y="264.71" width="9.8" height="9.8"/>
  <rect class="cls-2" x="245.1" y="254.9" width="9.8" height="9.81"/>
  <rect class="cls-15" x="245.1" y="245.1" width="9.8" height="9.8"/>
  <rect class="cls-15" x="245.1" y="235.29" width="9.8" height="9.81"/>
  <rect class="cls-2" x="245.1" y="225.49" width="9.8" height="9.8"/>
  <rect class="cls-21" x="245.1" y="215.69" width="9.8" height="9.8"/>
  <rect class="cls-21" x="245.1" y="205.88" width="9.8" height="9.81"/>
  <rect class="cls-20" x="235.29" y="343.14" width="9.81" height="9.8"/>
  <rect class="cls-9" x="235.29" y="333.33" width="9.81" height="9.81"/>
  <rect class="cls-9" x="235.29" y="323.53" width="9.81" height="9.8"/>
  <rect class="cls-2" x="235.29" y="313.73" width="9.81" height="9.8"/>
  <rect class="cls-2" x="235.29" y="303.92" width="9.81" height="9.81"/>
  <rect class="cls-2" x="235.29" y="294.12" width="9.81" height="9.8"/>
  <rect class="cls-2" x="235.29" y="284.31" width="9.81" height="9.81"/>
  <rect class="cls-2" x="235.29" y="274.51" width="9.81" height="9.8"/>
  <rect class="cls-2" x="235.29" y="264.71" width="9.81" height="9.8"/>
  <rect class="cls-2" x="235.29" y="254.9" width="9.81" height="9.81"/>
  <rect class="cls-16" x="235.29" y="245.1" width="9.81" height="9.8"/>
  <rect class="cls-16" x="235.29" y="235.29" width="9.81" height="9.81"/>
  <rect class="cls-9" x="235.29" y="225.49" width="9.81" height="9.8"/>
  <rect class="cls-9" x="235.29" y="215.69" width="9.81" height="9.8"/>
  <rect class="cls-18" x="235.29" y="205.88" width="9.81" height="9.81"/>
  <rect class="cls-18" x="235.29" y="196.08" width="9.81" height="9.8"/>
  <rect class="cls-8" x="235.29" y="186.27" width="9.81" height="9.81"/>
  <rect class="cls-8" x="235.29" y="176.47" width="9.81" height="9.8"/>
  <rect class="cls-20" x="225.49" y="343.14" width="9.8" height="9.8"/>
  <rect class="cls-9" x="225.49" y="333.33" width="9.8" height="9.81"/>
  <rect class="cls-9" x="225.49" y="323.53" width="9.8" height="9.8"/>
  <rect class="cls-2" x="225.49" y="313.73" width="9.8" height="9.8"/>
  <rect class="cls-2" x="225.49" y="303.92" width="9.8" height="9.81"/>
  <rect class="cls-9" x="225.49" y="294.12" width="9.8" height="9.8"/>
  <rect class="cls-20" x="225.49" y="284.31" width="9.8" height="9.81"/>
  <rect class="cls-9" x="225.49" y="274.51" width="9.8" height="9.8"/>
  <rect class="cls-9" x="225.49" y="264.71" width="9.8" height="9.8"/>
  <rect class="cls-9" x="225.49" y="254.9" width="9.8" height="9.81"/>
  <rect class="cls-16" x="225.49" y="245.1" width="9.8" height="9.8"/>
  <rect class="cls-20" x="225.49" y="235.29" width="9.8" height="9.81"/>
  <rect class="cls-20" x="225.49" y="225.49" width="9.8" height="9.8"/>
  <rect class="cls-9" x="225.49" y="215.69" width="9.8" height="9.8"/>
  <rect class="cls-7" x="225.49" y="205.88" width="9.8" height="9.81"/>
  <rect class="cls-7" x="225.49" y="196.08" width="9.8" height="9.8"/>
  <rect class="cls-15" x="225.49" y="186.27" width="9.8" height="9.81"/>
  <rect class="cls-6" x="225.49" y="176.47" width="9.8" height="9.8"/>
  <rect class="cls-18" x="225.49" y="166.67" width="9.8" height="9.8"/>
  <rect class="cls-8" x="225.49" y="156.86" width="9.8" height="9.81"/>
  <rect class="cls-20" x="215.69" y="343.14" width="9.8" height="9.8"/>
  <rect class="cls-9" x="215.69" y="333.33" width="9.8" height="9.81"/>
  <rect class="cls-9" x="215.69" y="323.53" width="9.8" height="9.8"/>
  <rect class="cls-2" x="215.69" y="313.73" width="9.8" height="9.8"/>
  <rect class="cls-2" x="215.69" y="303.92" width="9.8" height="9.81"/>
  <rect class="cls-2" x="215.69" y="294.12" width="9.8" height="9.8"/>
  <rect class="cls-9" x="215.69" y="284.31" width="9.8" height="9.81"/>
  <rect class="cls-20" x="215.69" y="274.51" width="9.8" height="9.8"/>
  <rect class="cls-20" x="215.69" y="264.71" width="9.8" height="9.8"/>
  <rect class="cls-20" x="215.69" y="254.9" width="9.8" height="9.81"/>
  <rect class="cls-20" x="215.69" y="245.1" width="9.8" height="9.8"/>
  <rect class="cls-9" x="215.69" y="235.29" width="9.8" height="9.81"/>
  <rect class="cls-2" x="215.69" y="225.49" width="9.8" height="9.8"/>
  <rect class="cls-2" x="215.69" y="215.69" width="9.8" height="9.8"/>
  <rect class="cls-2" x="215.69" y="205.88" width="9.8" height="9.81"/>
  <rect class="cls-7" x="215.69" y="196.08" width="9.8" height="9.8"/>
  <rect class="cls-15" x="215.69" y="186.27" width="9.8" height="9.81"/>
  <rect class="cls-15" x="215.69" y="176.47" width="9.8" height="9.8"/>
  <rect class="cls-6" x="215.69" y="166.67" width="9.8" height="9.8"/>
  <rect class="cls-17" x="215.69" y="156.86" width="9.8" height="9.81"/>
  <rect class="cls-8" x="215.69" y="147.06" width="9.8" height="9.8"/>
  <rect class="cls-20" x="205.88" y="343.14" width="9.81" height="9.8"/>
  <rect class="cls-10" x="205.88" y="333.33" width="9.81" height="9.81"/>
  <rect class="cls-12" x="205.88" y="323.53" width="9.81" height="9.8"/>
  <rect class="cls-1" x="205.88" y="313.73" width="9.81" height="9.8"/>
  <rect class="cls-2" x="205.88" y="303.92" width="9.81" height="9.81"/>
  <rect class="cls-2" x="205.88" y="294.12" width="9.81" height="9.8"/>
  <rect class="cls-2" x="205.88" y="284.31" width="9.81" height="9.81"/>
  <rect class="cls-9" x="205.88" y="274.51" width="9.81" height="9.8"/>
  <rect class="cls-2" x="205.88" y="264.71" width="9.81" height="9.8"/>
  <rect class="cls-2" x="205.88" y="254.9" width="9.81" height="9.81"/>
  <rect class="cls-2" x="205.88" y="245.1" width="9.81" height="9.8"/>
  <rect class="cls-2" x="205.88" y="235.29" width="9.81" height="9.81"/>
  <rect class="cls-2" x="205.88" y="225.49" width="9.81" height="9.8"/>
  <rect class="cls-2" x="205.88" y="215.69" width="9.81" height="9.8"/>
  <rect class="cls-2" x="205.88" y="205.88" width="9.81" height="9.81"/>
  <rect class="cls-15" x="205.88" y="196.08" width="9.81" height="9.8"/>
  <rect class="cls-15" x="205.88" y="186.27" width="9.81" height="9.81"/>
  <rect class="cls-15" x="205.88" y="176.47" width="9.81" height="9.8"/>
  <rect class="cls-7" x="205.88" y="166.67" width="9.81" height="9.8"/>
  <rect class="cls-7" x="205.88" y="156.86" width="9.81" height="9.81"/>
  <rect class="cls-7" x="205.88" y="147.06" width="9.81" height="9.8"/>
  <rect class="cls-8" x="205.88" y="137.25" width="9.81" height="9.81"/>
  <rect class="cls-11" x="196.08" y="343.14" width="9.8" height="9.8"/>
  <rect class="cls-10" x="196.08" y="333.33" width="9.8" height="9.81"/>
  <rect class="cls-12" x="196.08" y="323.53" width="9.8" height="9.8"/>
  <rect class="cls-1" x="196.08" y="313.73" width="9.8" height="9.8"/>
  <rect class="cls-1" x="196.08" y="303.92" width="9.8" height="9.81"/>
  <rect class="cls-2" x="196.08" y="294.12" width="9.8" height="9.8"/>
  <rect class="cls-2" x="196.08" y="284.31" width="9.8" height="9.81"/>
  <rect class="cls-2" x="196.08" y="274.51" width="9.8" height="9.8"/>
  <rect class="cls-2" x="196.08" y="264.71" width="9.8" height="9.8"/>
  <rect class="cls-2" x="196.08" y="254.9" width="9.8" height="9.81"/>
  <rect class="cls-2" x="196.08" y="245.1" width="9.8" height="9.8"/>
  <rect class="cls-2" x="196.08" y="235.29" width="9.8" height="9.81"/>
  <rect class="cls-2" x="196.08" y="225.49" width="9.8" height="9.8"/>
  <rect class="cls-2" x="196.08" y="215.69" width="9.8" height="9.8"/>
  <rect class="cls-2" x="196.08" y="205.88" width="9.8" height="9.81"/>
  <rect class="cls-16" x="196.08" y="196.08" width="9.8" height="9.8"/>
  <rect class="cls-16" x="196.08" y="186.27" width="9.8" height="9.81"/>
  <rect class="cls-2" x="196.08" y="176.47" width="9.8" height="9.8"/>
  <rect class="cls-7" x="196.08" y="166.67" width="9.8" height="9.8"/>
  <rect class="cls-7" x="196.08" y="156.86" width="9.8" height="9.81"/>
  <rect class="cls-7" x="196.08" y="147.06" width="9.8" height="9.8"/>
  <rect class="cls-6" x="196.08" y="137.25" width="9.8" height="9.81"/>
  <rect class="cls-8" x="196.08" y="127.45" width="9.8" height="9.8"/>
  <rect class="cls-11" x="186.27" y="343.14" width="9.81" height="9.8"/>
  <rect class="cls-10" x="186.27" y="333.33" width="9.81" height="9.81"/>
  <rect class="cls-12" x="186.27" y="323.53" width="9.81" height="9.8"/>
  <rect class="cls-1" x="186.27" y="313.73" width="9.81" height="9.8"/>
  <rect class="cls-1" x="186.27" y="303.92" width="9.81" height="9.81"/>
  <rect class="cls-1" x="186.27" y="294.12" width="9.81" height="9.8"/>
  <rect class="cls-2" x="186.27" y="284.31" width="9.81" height="9.81"/>
  <rect class="cls-2" x="186.27" y="274.51" width="9.81" height="9.8"/>
  <rect class="cls-2" x="186.27" y="264.71" width="9.81" height="9.8"/>
  <rect class="cls-2" x="186.27" y="254.9" width="9.81" height="9.81"/>
  <rect class="cls-2" x="186.27" y="245.1" width="9.81" height="9.8"/>
  <rect class="cls-2" x="186.27" y="235.29" width="9.81" height="9.81"/>
  <rect class="cls-2" x="186.27" y="225.49" width="9.81" height="9.8"/>
  <rect class="cls-2" x="186.27" y="215.69" width="9.81" height="9.8"/>
  <rect class="cls-2" x="186.27" y="205.88" width="9.81" height="9.81"/>
  <rect class="cls-16" x="186.27" y="196.08" width="9.81" height="9.8"/>
  <rect class="cls-2" x="186.27" y="186.27" width="9.81" height="9.81"/>
  <rect class="cls-2" x="186.27" y="176.47" width="9.81" height="9.8"/>
  <rect class="cls-2" x="186.27" y="166.67" width="9.81" height="9.8"/>
  <rect class="cls-7" x="186.27" y="156.86" width="9.81" height="9.81"/>
  <rect class="cls-15" x="186.27" y="147.06" width="9.81" height="9.8"/>
  <rect class="cls-15" x="186.27" y="137.25" width="9.81" height="9.81"/>
  <rect class="cls-6" x="186.27" y="127.45" width="9.81" height="9.8"/>
  <rect class="cls-8" x="186.27" y="117.65" width="9.81" height="9.8"/>
  <rect class="cls-11" x="176.47" y="343.14" width="9.8" height="9.8"/>
  <rect class="cls-10" x="176.47" y="333.33" width="9.8" height="9.81"/>
  <rect class="cls-12" x="176.47" y="323.53" width="9.8" height="9.8"/>
  <rect class="cls-1" x="176.47" y="313.73" width="9.8" height="9.8"/>
  <rect class="cls-1" x="176.47" y="303.92" width="9.8" height="9.81"/>
  <rect class="cls-1" x="176.47" y="294.12" width="9.8" height="9.8"/>
  <rect class="cls-2" x="176.47" y="284.31" width="9.8" height="9.81"/>
  <rect class="cls-2" x="176.47" y="274.51" width="9.8" height="9.8"/>
  <rect class="cls-2" x="176.47" y="264.71" width="9.8" height="9.8"/>
  <rect class="cls-2" x="176.47" y="254.9" width="9.8" height="9.81"/>
  <rect class="cls-2" x="176.47" y="245.1" width="9.8" height="9.8"/>
  <rect class="cls-2" x="176.47" y="235.29" width="9.8" height="9.81"/>
  <rect class="cls-2" x="176.47" y="225.49" width="9.8" height="9.8"/>
  <rect class="cls-2" x="176.47" y="215.69" width="9.8" height="9.8"/>
  <rect class="cls-2" x="176.47" y="205.88" width="9.8" height="9.81"/>
  <rect class="cls-2" x="176.47" y="196.08" width="9.8" height="9.8"/>
  <rect class="cls-2" x="176.47" y="186.27" width="9.8" height="9.81"/>
  <rect class="cls-2" x="176.47" y="176.47" width="9.8" height="9.8"/>
  <rect class="cls-2" x="176.47" y="166.67" width="9.8" height="9.8"/>
  <rect class="cls-7" x="176.47" y="156.86" width="9.8" height="9.81"/>
  <rect class="cls-15" x="176.47" y="147.06" width="9.8" height="9.8"/>
  <rect class="cls-15" x="176.47" y="137.25" width="9.8" height="9.81"/>
  <rect class="cls-15" x="176.47" y="127.45" width="9.8" height="9.8"/>
  <rect class="cls-8" x="176.47" y="117.65" width="9.8" height="9.8"/>
  <rect class="cls-11" x="166.67" y="333.33" width="9.8" height="9.81"/>
  <rect class="cls-12" x="166.67" y="323.53" width="9.8" height="9.8"/>
  <rect class="cls-12" x="166.67" y="313.73" width="9.8" height="9.8"/>
  <rect class="cls-1" x="166.67" y="303.92" width="9.8" height="9.81"/>
  <rect class="cls-1" x="166.67" y="294.12" width="9.8" height="9.8"/>
  <rect class="cls-1" x="166.67" y="284.31" width="9.8" height="9.81"/>
  <rect class="cls-2" x="166.67" y="274.51" width="9.8" height="9.8"/>
  <rect class="cls-2" x="166.67" y="264.71" width="9.8" height="9.8"/>
  <rect class="cls-2" x="166.67" y="254.9" width="9.8" height="9.81"/>
  <rect class="cls-2" x="166.67" y="245.1" width="9.8" height="9.8"/>
  <rect class="cls-2" x="166.67" y="235.29" width="9.8" height="9.81"/>
  <rect class="cls-2" x="166.67" y="225.49" width="9.8" height="9.8"/>
  <rect class="cls-2" x="166.67" y="215.69" width="9.8" height="9.8"/>
  <rect class="cls-2" x="166.67" y="205.88" width="9.8" height="9.81"/>
  <rect class="cls-2" x="166.67" y="196.08" width="9.8" height="9.8"/>
  <rect class="cls-2" x="166.67" y="186.27" width="9.8" height="9.81"/>
  <rect class="cls-2" x="166.67" y="176.47" width="9.8" height="9.8"/>
  <rect class="cls-2" x="166.67" y="166.67" width="9.8" height="9.8"/>
  <rect class="cls-16" x="166.67" y="156.86" width="9.8" height="9.81"/>
  <rect class="cls-16" x="166.67" y="147.06" width="9.8" height="9.8"/>
  <rect class="cls-7" x="166.67" y="137.25" width="9.8" height="9.81"/>
  <rect class="cls-7" x="166.67" y="127.45" width="9.8" height="9.8"/>
  <rect class="cls-8" x="166.67" y="117.65" width="9.8" height="9.8"/>
  <rect class="cls-11" x="156.86" y="333.33" width="9.81" height="9.81"/>
  <rect class="cls-10" x="156.86" y="323.53" width="9.81" height="9.8"/>
  <rect class="cls-12" x="156.86" y="313.73" width="9.81" height="9.8"/>
  <rect class="cls-1" x="156.86" y="303.92" width="9.81" height="9.81"/>
  <rect class="cls-1" x="156.86" y="294.12" width="9.81" height="9.8"/>
  <rect class="cls-1" x="156.86" y="284.31" width="9.81" height="9.81"/>
  <rect class="cls-2" x="156.86" y="274.51" width="9.81" height="9.8"/>
  <rect class="cls-2" x="156.86" y="264.71" width="9.81" height="9.8"/>
  <rect class="cls-2" x="156.86" y="254.9" width="9.81" height="9.81"/>
  <rect class="cls-20" x="156.86" y="245.1" width="9.81" height="9.8"/>
  <rect class="cls-2" x="156.86" y="235.29" width="9.81" height="9.81"/>
  <rect class="cls-2" x="156.86" y="225.49" width="9.81" height="9.8"/>
  <rect class="cls-2" x="156.86" y="215.69" width="9.81" height="9.8"/>
  <rect class="cls-2" x="156.86" y="205.88" width="9.81" height="9.81"/>
  <rect class="cls-2" x="156.86" y="196.08" width="9.81" height="9.8"/>
  <rect class="cls-2" x="156.86" y="186.27" width="9.81" height="9.81"/>
  <rect class="cls-2" x="156.86" y="176.47" width="9.81" height="9.8"/>
  <rect class="cls-2" x="156.86" y="166.67" width="9.81" height="9.8"/>
  <rect class="cls-16" x="156.86" y="156.86" width="9.81" height="9.81"/>
  <rect class="cls-2" x="156.86" y="147.06" width="9.81" height="9.8"/>
  <rect class="cls-7" x="156.86" y="137.25" width="9.81" height="9.81"/>
  <rect class="cls-7" x="156.86" y="127.45" width="9.81" height="9.8"/>
  <rect class="cls-8" x="156.86" y="117.65" width="9.81" height="9.8"/>
  <rect class="cls-11" x="147.06" y="333.33" width="9.8" height="9.81"/>
  <rect class="cls-10" x="147.06" y="323.53" width="9.8" height="9.8"/>
  <rect class="cls-12" x="147.06" y="313.73" width="9.8" height="9.8"/>
  <rect class="cls-1" x="147.06" y="303.92" width="9.8" height="9.81"/>
  <rect class="cls-1" x="147.06" y="294.12" width="9.8" height="9.8"/>
  <rect class="cls-1" x="147.06" y="284.31" width="9.8" height="9.81"/>
  <rect class="cls-2" x="147.06" y="274.51" width="9.8" height="9.8"/>
  <rect class="cls-9" x="147.06" y="264.71" width="9.8" height="9.8"/>
  <rect class="cls-20" x="147.06" y="254.9" width="9.8" height="9.81"/>
  <rect class="cls-9" x="147.06" y="245.1" width="9.8" height="9.8"/>
  <rect class="cls-2" x="147.06" y="235.29" width="9.8" height="9.81"/>
  <rect class="cls-2" x="147.06" y="225.49" width="9.8" height="9.8"/>
  <rect class="cls-2" x="147.06" y="215.69" width="9.8" height="9.8"/>
  <rect class="cls-2" x="147.06" y="205.88" width="9.8" height="9.81"/>
  <rect class="cls-2" x="147.06" y="196.08" width="9.8" height="9.8"/>
  <rect class="cls-2" x="147.06" y="186.27" width="9.8" height="9.81"/>
  <rect class="cls-2" x="147.06" y="176.47" width="9.8" height="9.8"/>
  <rect class="cls-2" x="147.06" y="166.67" width="9.8" height="9.8"/>
  <rect class="cls-2" x="147.06" y="156.86" width="9.8" height="9.81"/>
  <rect class="cls-2" x="147.06" y="147.06" width="9.8" height="9.8"/>
  <rect class="cls-2" x="147.06" y="137.25" width="9.8" height="9.81"/>
  <rect class="cls-7" x="147.06" y="127.45" width="9.8" height="9.8"/>
  <rect class="cls-18" x="147.06" y="117.65" width="9.8" height="9.8"/>
  <rect class="cls-11" x="137.25" y="323.53" width="9.81" height="9.8"/>
  <rect class="cls-12" x="137.25" y="313.73" width="9.81" height="9.8"/>
  <rect class="cls-12" x="137.25" y="303.92" width="9.81" height="9.81"/>
  <rect class="cls-1" x="137.25" y="294.12" width="9.81" height="9.8"/>
  <rect class="cls-2" x="137.25" y="284.31" width="9.81" height="9.81"/>
  <rect class="cls-2" x="137.25" y="274.51" width="9.81" height="9.8"/>
  <rect class="cls-9" x="137.25" y="264.71" width="9.81" height="9.8"/>
  <rect class="cls-20" x="137.25" y="254.9" width="9.81" height="9.81"/>
  <rect class="cls-9" x="137.25" y="245.1" width="9.81" height="9.8"/>
  <rect class="cls-2" x="137.25" y="235.29" width="9.81" height="9.81"/>
  <rect class="cls-2" x="137.25" y="225.49" width="9.81" height="9.8"/>
  <rect class="cls-2" x="137.25" y="215.69" width="9.81" height="9.8"/>
  <rect class="cls-2" x="137.25" y="205.88" width="9.81" height="9.81"/>
  <rect class="cls-2" x="137.25" y="196.08" width="9.81" height="9.8"/>
  <rect class="cls-2" x="137.25" y="186.27" width="9.81" height="9.81"/>
  <rect class="cls-2" x="137.25" y="176.47" width="9.81" height="9.8"/>
  <rect class="cls-2" x="137.25" y="166.67" width="9.81" height="9.8"/>
  <rect class="cls-2" x="137.25" y="156.86" width="9.81" height="9.81"/>
  <rect class="cls-2" x="137.25" y="147.06" width="9.81" height="9.8"/>
  <rect class="cls-2" x="137.25" y="137.25" width="9.81" height="9.81"/>
  <rect class="cls-7" x="137.25" y="127.45" width="9.81" height="9.8"/>
  <rect class="cls-18" x="137.25" y="117.65" width="9.81" height="9.8"/>
  <rect class="cls-11" x="127.45" y="323.53" width="9.8" height="9.8"/>
  <rect class="cls-10" x="127.45" y="313.73" width="9.8" height="9.8"/>
  <rect class="cls-12" x="127.45" y="303.92" width="9.8" height="9.81"/>
  <rect class="cls-1" x="127.45" y="294.12" width="9.8" height="9.8"/>
  <rect class="cls-2" x="127.45" y="284.31" width="9.8" height="9.81"/>
  <rect class="cls-9" x="127.45" y="274.51" width="9.8" height="9.8"/>
  <rect class="cls-9" x="127.45" y="264.71" width="9.8" height="9.8"/>
  <rect class="cls-20" x="127.45" y="254.9" width="9.8" height="9.81"/>
  <rect class="cls-9" x="127.45" y="245.1" width="9.8" height="9.8"/>
  <rect class="cls-2" x="127.45" y="235.29" width="9.8" height="9.81"/>
  <rect class="cls-2" x="127.45" y="225.49" width="9.8" height="9.8"/>
  <rect class="cls-2" x="127.45" y="215.69" width="9.8" height="9.8"/>
  <rect class="cls-2" x="127.45" y="205.88" width="9.8" height="9.81"/>
  <rect class="cls-2" x="127.45" y="196.08" width="9.8" height="9.8"/>
  <rect class="cls-19" x="127.45" y="186.27" width="9.8" height="9.81"/>
  <rect class="cls-19" x="127.45" y="176.47" width="9.8" height="9.8"/>
  <rect class="cls-2" x="127.45" y="166.67" width="9.8" height="9.8"/>
  <rect class="cls-2" x="127.45" y="156.86" width="9.8" height="9.81"/>
  <rect class="cls-2" x="127.45" y="147.06" width="9.8" height="9.8"/>
  <rect class="cls-2" x="127.45" y="137.25" width="9.8" height="9.81"/>
  <rect class="cls-7" x="127.45" y="127.45" width="9.8" height="9.8"/>
  <rect class="cls-18" x="127.45" y="117.65" width="9.8" height="9.8"/>
  <rect class="cls-11" x="117.65" y="313.73" width="9.8" height="9.8"/>
  <rect class="cls-10" x="117.65" y="303.92" width="9.8" height="9.81"/>
  <rect class="cls-9" x="117.65" y="294.12" width="9.8" height="9.8"/>
  <rect class="cls-9" x="117.65" y="284.31" width="9.8" height="9.81"/>
  <rect class="cls-9" x="117.65" y="274.51" width="9.8" height="9.8"/>
  <rect class="cls-9" x="117.65" y="264.71" width="9.8" height="9.8"/>
  <rect class="cls-20" x="117.65" y="254.9" width="9.8" height="9.81"/>
  <rect class="cls-9" x="117.65" y="245.1" width="9.8" height="9.8"/>
  <rect class="cls-2" x="117.65" y="235.29" width="9.8" height="9.81"/>
  <rect class="cls-2" x="117.65" y="225.49" width="9.8" height="9.8"/>
  <rect class="cls-2" x="117.65" y="215.69" width="9.8" height="9.8"/>
  <rect class="cls-2" x="117.65" y="205.88" width="9.8" height="9.81"/>
  <rect class="cls-3" x="117.65" y="196.08" width="9.8" height="9.8"/>
  <rect class="cls-3" x="117.65" y="186.27" width="9.8" height="9.81"/>
  <rect class="cls-3" x="117.65" y="176.47" width="9.8" height="9.8"/>
  <rect class="cls-19" x="117.65" y="166.67" width="9.8" height="9.8"/>
  <rect class="cls-2" x="117.65" y="156.86" width="9.8" height="9.81"/>
  <rect class="cls-2" x="117.65" y="147.06" width="9.8" height="9.8"/>
  <rect class="cls-2" x="117.65" y="137.25" width="9.8" height="9.81"/>
  <rect class="cls-5" x="117.65" y="127.45" width="9.8" height="9.8"/>
  <rect class="cls-20" x="107.84" y="303.92" width="9.81" height="9.81"/>
  <rect class="cls-20" x="107.84" y="294.12" width="9.81" height="9.8"/>
  <rect class="cls-20" x="107.84" y="284.31" width="9.81" height="9.81"/>
  <rect class="cls-20" x="107.84" y="274.51" width="9.81" height="9.8"/>
  <rect class="cls-20" x="107.84" y="264.71" width="9.81" height="9.8"/>
  <rect class="cls-20" x="107.84" y="245.1" width="9.81" height="9.8"/>
  <rect class="cls-9" x="107.84" y="235.29" width="9.81" height="9.81"/>
  <rect class="cls-2" x="107.84" y="225.49" width="9.81" height="9.8"/>
  <rect class="cls-2" x="107.84" y="215.69" width="9.81" height="9.8"/>
  <rect class="cls-2" x="107.84" y="205.88" width="9.81" height="9.81"/>
  <rect class="cls-3" x="107.84" y="196.08" width="9.81" height="9.8"/>
  <rect class="cls-3" x="107.84" y="186.27" width="9.81" height="9.81"/>
  <rect class="cls-3" x="107.84" y="176.47" width="9.81" height="9.8"/>
  <rect class="cls-19" x="107.84" y="166.67" width="9.81" height="9.8"/>
  <rect class="cls-2" x="107.84" y="156.86" width="9.81" height="9.81"/>
  <rect class="cls-2" x="107.84" y="147.06" width="9.81" height="9.8"/>
  <rect class="cls-2" x="107.84" y="137.25" width="9.81" height="9.81"/>
  <rect class="cls-5" x="107.84" y="127.45" width="9.81" height="9.8"/>
  <rect class="cls-20" x="98.04" y="245.1" width="9.8" height="9.8"/>
  <rect class="cls-9" x="98.04" y="235.29" width="9.8" height="9.81"/>
  <rect class="cls-9" x="98.04" y="225.49" width="9.8" height="9.8"/>
  <rect class="cls-2" x="98.04" y="215.69" width="9.8" height="9.8"/>
  <rect class="cls-2" x="98.04" y="205.88" width="9.8" height="9.81"/>
  <rect class="cls-2" x="98.04" y="196.08" width="9.8" height="9.8"/>
  <rect class="cls-3" x="98.04" y="186.27" width="9.8" height="9.81"/>
  <rect class="cls-3" x="98.04" y="176.47" width="9.8" height="9.8"/>
  <rect class="cls-2" x="98.04" y="166.67" width="9.8" height="9.8"/>
  <rect class="cls-2" x="98.04" y="156.86" width="9.8" height="9.81"/>
  <rect class="cls-2" x="98.04" y="147.06" width="9.8" height="9.8"/>
  <rect class="cls-5" x="98.04" y="137.25" width="9.8" height="9.81"/>
  <rect class="cls-20" x="88.24" y="235.29" width="9.8" height="9.81"/>
  <rect class="cls-20" x="88.24" y="225.49" width="9.8" height="9.8"/>
  <rect class="cls-9" x="88.24" y="215.69" width="9.8" height="9.8"/>
  <rect class="cls-9" x="88.24" y="205.88" width="9.8" height="9.81"/>
  <rect class="cls-9" x="88.24" y="196.08" width="9.8" height="9.8"/>
  <rect class="cls-9" x="88.24" y="186.27" width="9.8" height="9.81"/>
  <rect class="cls-2" x="88.24" y="176.47" width="9.8" height="9.8"/>
  <rect class="cls-2" x="88.24" y="166.67" width="9.8" height="9.8"/>
  <rect class="cls-2" x="88.24" y="156.86" width="9.8" height="9.81"/>
  <rect class="cls-4" x="88.24" y="147.06" width="9.8" height="9.8"/>
  <rect class="cls-13" x="78.43" y="235.29" width="9.81" height="9.81"/>
  <rect class="cls-20" x="78.43" y="225.49" width="9.81" height="9.8"/>
  <rect class="cls-20" x="78.43" y="215.69" width="9.81" height="9.8"/>
  <rect class="cls-20" x="78.43" y="205.88" width="9.81" height="9.81"/>
  <rect class="cls-20" x="78.43" y="196.08" width="9.81" height="9.8"/>
  <rect class="cls-20" x="78.43" y="186.27" width="9.81" height="9.81"/>
  <rect class="cls-20" x="78.43" y="176.47" width="9.81" height="9.8"/>
  <rect class="cls-20" x="78.43" y="166.67" width="9.81" height="9.8"/>
  <rect class="cls-4" x="78.43" y="156.86" width="9.81" height="9.81"/>
  <rect class="cls-13" x="68.63" y="235.29" width="9.8" height="9.81"/>
  <rect class="cls-13" x="58.82" y="245.1" width="9.81" height="9.8"/>
  <rect class="cls-13" x="49.02" y="254.9" width="9.8" height="9.81"/>
  <rect class="cls-13" x="49.02" y="245.1" width="9.8" height="9.8"/>
  <rect class="cls-13" x="39.22" y="245.1" width="9.8" height="9.8"/>
</svg>