<?xml version="1.0" encoding="UTF-8"?>
<svg id="Layer_2" data-name="Layer 2" xmlns="http://www.w3.org/2000/svg" version="1.1" viewBox="0 0 500 500">
  <defs>
    <style>
      .cls-1 {
        fill: #000;
      }

      .cls-1, .cls-2, .cls-3, .cls-4, .cls-5, .cls-6, .cls-7, .cls-8, .cls-9, .cls-10, .cls-11, .cls-12, .cls-13, .cls-14, .cls-15, .cls-16 {
        stroke-width: 0px;
      }

      .cls-2 {
        fill: #85bf47;
      }

      .cls-3 {
        fill: #e2e244;
      }

      .cls-4 {
        fill: #f2a0bc;
      }

      .cls-5 {
        fill: #f4f187;
      }

      .cls-6 {
        fill: #10aaff;
      }

      .cls-7 {
        fill: #208299;
      }

      .cls-8 {
        fill: #9b2f3c;
      }

      .cls-9 {
        fill: #4d7e20;
      }

      .cls-10 {
        fill: #5eaf00;
      }

      .cls-11 {
        fill: #6ac7ef;
      }

      .cls-12 {
        fill: #0290c1;
      }

      .cls-13 {
        fill: #1197f2;
      }

      .cls-14 {
        fill: #67a82a;
      }

      .cls-15 {
        fill: #fff;
      }

      .cls-16 {
        fill: #c9bc17;
      }
    </style>
  </defs>
  <rect class="cls-14" x="480.4" y="274.5" width="9.8" height="9.8"/>
  <rect class="cls-2" x="480.4" y="264.7" width="9.8" height="9.8"/>
  <rect class="cls-2" x="470.6" y="284.3" width="9.8" height="9.8"/>
  <rect class="cls-2" x="470.6" y="274.5" width="9.8" height="9.8"/>
  <rect class="cls-2" x="470.6" y="264.7" width="9.8" height="9.8"/>
  <rect class="cls-2" x="460.8" y="294.1" width="9.8" height="9.8"/>
  <rect class="cls-2" x="460.8" y="284.3" width="9.8" height="9.8"/>
  <rect class="cls-2" x="460.8" y="274.5" width="9.8" height="9.8"/>
  <rect class="cls-14" x="451" y="303.9" width="9.8" height="9.8"/>
  <rect class="cls-2" x="451" y="294.1" width="9.8" height="9.8"/>
  <rect class="cls-2" x="451" y="284.3" width="9.8" height="9.8"/>
  <rect class="cls-14" x="451" y="274.5" width="9.8" height="9.8"/>
  <rect class="cls-14" x="441.2" y="294.1" width="9.8" height="9.8"/>
  <rect class="cls-12" x="431.4" y="274.5" width="9.8" height="9.8"/>
  <rect class="cls-12" x="431.4" y="264.7" width="9.8" height="9.8"/>
  <rect class="cls-12" x="431.4" y="254.9" width="9.8" height="9.8"/>
  <rect class="cls-11" x="431.4" y="245.1" width="9.8" height="9.8"/>
  <rect class="cls-12" x="421.6" y="284.3" width="9.8" height="9.8"/>
  <rect class="cls-6" x="421.6" y="274.5" width="9.8" height="9.8"/>
  <rect class="cls-6" x="421.6" y="264.7" width="9.8" height="9.8"/>
  <rect class="cls-3" x="421.6" y="254.9" width="9.8" height="9.8"/>
  <rect class="cls-6" x="421.6" y="245.1" width="9.8" height="9.8"/>
  <rect class="cls-11" x="421.6" y="235.3" width="9.8" height="9.8"/>
  <rect class="cls-12" x="411.8" y="294.1" width="9.8" height="9.8"/>
  <rect class="cls-6" x="411.8" y="284.3" width="9.8" height="9.8"/>
  <rect class="cls-6" x="411.8" y="274.5" width="9.8" height="9.8"/>
  <rect class="cls-12" x="411.8" y="264.7" width="9.8" height="9.8"/>
  <rect class="cls-3" x="411.8" y="254.9" width="9.8" height="9.8"/>
  <rect class="cls-3" x="411.8" y="245.1" width="9.8" height="9.8"/>
  <rect class="cls-11" x="411.8" y="235.3" width="9.8" height="9.8"/>
  <rect class="cls-12" x="402" y="294.1" width="9.8" height="9.8"/>
  <rect class="cls-6" x="402" y="284.3" width="9.8" height="9.8"/>
  <rect class="cls-12" x="402" y="274.5" width="9.8" height="9.8"/>
  <rect class="cls-12" x="402" y="264.7" width="9.8" height="9.8"/>
  <rect class="cls-12" x="402" y="235.3" width="9.8" height="9.8"/>
  <rect class="cls-10" x="392.2" y="313.7" width="9.8" height="9.8"/>
  <rect class="cls-12" x="392.2" y="303.9" width="9.8" height="9.8"/>
  <rect class="cls-6" x="392.2" y="294.1" width="9.8" height="9.8"/>
  <rect class="cls-3" x="392.2" y="284.3" width="9.8" height="9.8"/>
  <rect class="cls-3" x="392.2" y="274.5" width="9.8" height="9.8"/>
  <rect class="cls-10" x="382.4" y="323.5" width="9.8" height="9.8"/>
  <rect class="cls-10" x="382.4" y="313.7" width="9.8" height="9.8"/>
  <rect class="cls-12" x="382.4" y="303.9" width="9.8" height="9.8"/>
  <rect class="cls-6" x="382.4" y="294.1" width="9.8" height="9.8"/>
  <rect class="cls-6" x="382.4" y="284.3" width="9.8" height="9.8"/>
  <rect class="cls-3" x="382.4" y="274.5" width="9.8" height="9.8"/>
  <rect class="cls-10" x="372.5" y="323.5" width="9.8" height="9.8"/>
  <rect class="cls-2" x="372.5" y="313.7" width="9.8" height="9.8"/>
  <rect class="cls-12" x="372.5" y="303.9" width="9.8" height="9.8"/>
  <rect class="cls-6" x="372.5" y="294.1" width="9.8" height="9.8"/>
  <rect class="cls-6" x="372.5" y="284.3" width="9.8" height="9.8"/>
  <rect class="cls-11" x="372.5" y="274.5" width="9.8" height="9.8"/>
  <rect class="cls-12" x="372.5" y="264.7" width="9.8" height="9.8"/>
  <rect class="cls-2" x="362.8" y="323.5" width="9.8" height="9.8"/>
  <rect class="cls-2" x="362.8" y="313.7" width="9.8" height="9.8"/>
  <rect class="cls-12" x="362.8" y="303.9" width="9.8" height="9.8"/>
  <rect class="cls-6" x="362.8" y="294.1" width="9.8" height="9.8"/>
  <rect class="cls-6" x="362.8" y="284.3" width="9.8" height="9.8"/>
  <rect class="cls-6" x="362.8" y="274.5" width="9.8" height="9.8"/>
  <rect class="cls-11" x="362.8" y="264.7" width="9.8" height="9.8"/>
  <rect class="cls-11" x="362.8" y="254.9" width="9.8" height="9.8"/>
  <rect class="cls-11" x="362.8" y="245.1" width="9.8" height="9.8"/>
  <rect class="cls-10" x="352.9" y="333.3" width="9.8" height="9.8"/>
  <rect class="cls-2" x="352.9" y="323.5" width="9.8" height="9.8"/>
  <rect class="cls-10" x="352.9" y="313.7" width="9.8" height="9.8"/>
  <rect class="cls-12" x="352.9" y="303.9" width="9.8" height="9.8"/>
  <rect class="cls-12" x="352.9" y="294.1" width="9.8" height="9.8"/>
  <rect class="cls-6" x="352.9" y="284.3" width="9.8" height="9.8"/>
  <rect class="cls-7" x="352.9" y="274.5" width="9.8" height="9.8"/>
  <rect class="cls-6" x="352.9" y="264.7" width="9.8" height="9.8"/>
  <rect class="cls-3" x="352.9" y="254.9" width="9.8" height="9.8"/>
  <rect class="cls-5" x="352.9" y="245.1" width="9.8" height="9.8"/>
  <rect class="cls-5" x="352.9" y="235.3" width="9.8" height="9.8"/>
  <rect class="cls-14" x="343.1" y="343.1" width="9.8" height="9.8"/>
  <rect class="cls-2" x="343.1" y="333.3" width="9.8" height="9.8"/>
  <rect class="cls-2" x="343.1" y="323.5" width="9.8" height="9.8"/>
  <rect class="cls-12" x="343.1" y="303.9" width="9.8" height="9.8"/>
  <rect class="cls-12" x="343.1" y="294.1" width="9.8" height="9.8"/>
  <rect class="cls-6" x="343.1" y="284.3" width="9.8" height="9.8"/>
  <rect class="cls-6" x="343.1" y="274.5" width="9.8" height="9.8"/>
  <rect class="cls-3" x="343.1" y="264.7" width="9.8" height="9.8"/>
  <rect class="cls-3" x="343.1" y="254.9" width="9.8" height="9.8"/>
  <rect class="cls-3" x="343.1" y="245.1" width="9.8" height="9.8"/>
  <rect class="cls-5" x="343.1" y="235.3" width="9.8" height="9.8"/>
  <rect class="cls-14" x="333.3" y="343.1" width="9.8" height="9.8"/>
  <rect class="cls-2" x="333.3" y="333.3" width="9.8" height="9.8"/>
  <rect class="cls-2" x="333.3" y="323.5" width="9.8" height="9.8"/>
  <rect class="cls-12" x="333.3" y="303.9" width="9.8" height="9.8"/>
  <rect class="cls-12" x="333.3" y="294.1" width="9.8" height="9.8"/>
  <rect class="cls-6" x="333.3" y="284.3" width="9.8" height="9.8"/>
  <rect class="cls-6" x="333.3" y="274.5" width="9.8" height="9.8"/>
  <rect class="cls-6" x="333.3" y="264.7" width="9.8" height="9.8"/>
  <rect class="cls-6" x="333.3" y="254.9" width="9.8" height="9.8"/>
  <rect class="cls-3" x="333.3" y="245.1" width="9.8" height="9.8"/>
  <rect class="cls-5" x="333.3" y="235.3" width="9.8" height="9.8"/>
  <rect class="cls-10" x="323.5" y="333.3" width="9.8" height="9.8"/>
  <rect class="cls-12" x="323.5" y="294.1" width="9.8" height="9.8"/>
  <rect class="cls-12" x="323.5" y="284.3" width="9.8" height="9.8"/>
  <rect class="cls-6" x="323.5" y="274.5" width="9.8" height="9.8"/>
  <rect class="cls-6" x="323.5" y="264.7" width="9.8" height="9.8"/>
  <rect class="cls-6" x="323.5" y="254.9" width="9.8" height="9.8"/>
  <rect class="cls-12" x="323.5" y="245.1" width="9.8" height="9.8"/>
  <rect class="cls-12" x="313.7" y="294.1" width="9.8" height="9.8"/>
  <rect class="cls-12" x="313.7" y="284.3" width="9.8" height="9.8"/>
  <rect class="cls-6" x="313.7" y="274.5" width="9.8" height="9.8"/>
  <rect class="cls-6" x="313.7" y="264.7" width="9.8" height="9.8"/>
  <rect class="cls-12" x="313.7" y="254.9" width="9.8" height="9.8"/>
  <rect class="cls-12" x="313.7" y="245.1" width="9.8" height="9.8"/>
  <rect class="cls-11" x="313.7" y="235.3" width="9.8" height="9.8"/>
  <rect class="cls-12" x="303.9" y="294.1" width="9.8" height="9.8"/>
  <rect class="cls-6" x="303.9" y="284.3" width="9.8" height="9.8"/>
  <rect class="cls-6" x="303.9" y="274.5" width="9.8" height="9.8"/>
  <rect class="cls-6" x="303.9" y="264.7" width="9.8" height="9.8"/>
  <rect class="cls-6" x="303.9" y="254.9" width="9.8" height="9.8"/>
  <rect class="cls-6" x="303.9" y="245.1" width="9.8" height="9.8"/>
  <rect class="cls-5" x="303.9" y="235.3" width="9.8" height="9.8"/>
  <rect class="cls-5" x="303.9" y="225.5" width="9.8" height="9.8"/>
  <rect class="cls-12" x="294.1" y="303.9" width="9.8" height="9.8"/>
  <rect class="cls-12" x="294.1" y="294.1" width="9.8" height="9.8"/>
  <rect class="cls-6" x="294.1" y="284.3" width="9.8" height="9.8"/>
  <rect class="cls-6" x="294.1" y="274.5" width="9.8" height="9.8"/>
  <rect class="cls-6" x="294.1" y="264.7" width="9.8" height="9.8"/>
  <rect class="cls-6" x="294.1" y="254.9" width="9.8" height="9.8"/>
  <rect class="cls-3" x="294.1" y="245.1" width="9.8" height="9.8"/>
  <rect class="cls-3" x="294.1" y="235.3" width="9.8" height="9.8"/>
  <rect class="cls-5" x="294.1" y="225.5" width="9.8" height="9.8"/>
  <rect class="cls-5" x="294.1" y="215.7" width="9.8" height="9.8"/>
  <rect class="cls-14" x="284.3" y="333.3" width="9.8" height="9.8"/>
  <rect class="cls-14" x="284.3" y="323.5" width="9.8" height="9.8"/>
  <rect class="cls-12" x="284.3" y="303.9" width="9.8" height="9.8"/>
  <rect class="cls-12" x="284.3" y="294.1" width="9.8" height="9.8"/>
  <rect class="cls-6" x="284.3" y="284.3" width="9.8" height="9.8"/>
  <rect class="cls-6" x="284.3" y="274.5" width="9.8" height="9.8"/>
  <rect class="cls-6" x="284.3" y="264.7" width="9.8" height="9.8"/>
  <rect class="cls-6" x="284.3" y="254.9" width="9.8" height="9.8"/>
  <rect class="cls-12" x="284.3" y="245.1" width="9.8" height="9.8"/>
  <rect class="cls-6" x="284.3" y="235.3" width="9.8" height="9.8"/>
  <rect class="cls-11" x="284.3" y="225.5" width="9.8" height="9.8"/>
  <rect class="cls-5" x="284.3" y="215.7" width="9.8" height="9.8"/>
  <rect class="cls-5" x="284.3" y="205.9" width="9.8" height="9.8"/>
  <rect class="cls-14" x="274.5" y="343.1" width="9.8" height="9.8"/>
  <rect class="cls-14" x="274.5" y="333.3" width="9.8" height="9.8"/>
  <rect class="cls-14" x="274.5" y="323.5" width="9.8" height="9.8"/>
  <rect class="cls-12" x="274.5" y="303.9" width="9.8" height="9.8"/>
  <rect class="cls-6" x="274.5" y="294.1" width="9.8" height="9.8"/>
  <rect class="cls-6" x="274.5" y="284.3" width="9.8" height="9.8"/>
  <rect class="cls-6" x="274.5" y="274.5" width="9.8" height="9.8"/>
  <rect class="cls-7" x="274.5" y="264.7" width="9.8" height="9.8"/>
  <rect class="cls-6" x="274.5" y="254.9" width="9.8" height="9.8"/>
  <rect class="cls-6" x="274.5" y="245.1" width="9.8" height="9.8"/>
  <rect class="cls-6" x="274.5" y="235.3" width="9.8" height="9.8"/>
  <rect class="cls-6" x="274.5" y="225.5" width="9.8" height="9.8"/>
  <rect class="cls-6" x="274.5" y="215.7" width="9.8" height="9.8"/>
  <rect class="cls-11" x="274.5" y="205.9" width="9.8" height="9.8"/>
  <rect class="cls-14" x="264.7" y="343.1" width="9.8" height="9.8"/>
  <rect class="cls-14" x="264.7" y="333.3" width="9.8" height="9.8"/>
  <rect class="cls-14" x="264.7" y="323.5" width="9.8" height="9.8"/>
  <rect class="cls-12" x="264.7" y="313.7" width="9.8" height="9.8"/>
  <rect class="cls-12" x="264.7" y="303.9" width="9.8" height="9.8"/>
  <rect class="cls-6" x="264.7" y="294.1" width="9.8" height="9.8"/>
  <rect class="cls-6" x="264.7" y="284.3" width="9.8" height="9.8"/>
  <rect class="cls-6" x="264.7" y="274.5" width="9.8" height="9.8"/>
  <rect class="cls-6" x="264.7" y="264.7" width="9.8" height="9.8"/>
  <rect class="cls-6" x="264.7" y="254.9" width="9.8" height="9.8"/>
  <rect class="cls-7" x="264.7" y="245.1" width="9.8" height="9.8"/>
  <rect class="cls-6" x="264.7" y="235.3" width="9.8" height="9.8"/>
  <rect class="cls-12" x="264.7" y="225.5" width="9.8" height="9.8"/>
  <rect class="cls-6" x="264.7" y="215.7" width="9.8" height="9.8"/>
  <rect class="cls-6" x="264.7" y="205.9" width="9.8" height="9.8"/>
  <rect class="cls-14" x="254.9" y="343.1" width="9.8" height="9.8"/>
  <rect class="cls-14" x="254.9" y="333.3" width="9.8" height="9.8"/>
  <rect class="cls-12" x="254.9" y="323.5" width="9.8" height="9.8"/>
  <rect class="cls-12" x="254.9" y="313.7" width="9.8" height="9.8"/>
  <rect class="cls-6" x="254.9" y="303.9" width="9.8" height="9.8"/>
  <rect class="cls-6" x="254.9" y="294.1" width="9.8" height="9.8"/>
  <rect class="cls-6" x="254.9" y="284.3" width="9.8" height="9.8"/>
  <rect class="cls-6" x="254.9" y="274.5" width="9.8" height="9.8"/>
  <rect class="cls-6" x="254.9" y="264.7" width="9.8" height="9.8"/>
  <rect class="cls-6" x="254.9" y="254.9" width="9.8" height="9.8"/>
  <rect class="cls-3" x="254.9" y="245.1" width="9.8" height="9.8"/>
  <rect class="cls-3" x="254.9" y="235.3" width="9.8" height="9.8"/>
  <rect class="cls-6" x="254.9" y="225.5" width="9.8" height="9.8"/>
  <rect class="cls-6" x="254.9" y="215.7" width="9.8" height="9.8"/>
  <rect class="cls-6" x="254.9" y="205.9" width="9.8" height="9.8"/>
  <rect class="cls-14" x="245.1" y="352.9" width="9.8" height="9.8"/>
  <rect class="cls-14" x="245.1" y="343.1" width="9.8" height="9.8"/>
  <rect class="cls-12" x="245.1" y="333.3" width="9.8" height="9.8"/>
  <rect class="cls-12" x="245.1" y="323.5" width="9.8" height="9.8"/>
  <rect class="cls-12" x="245.1" y="313.7" width="9.8" height="9.8"/>
  <rect class="cls-6" x="245.1" y="303.9" width="9.8" height="9.8"/>
  <rect class="cls-6" x="245.1" y="294.1" width="9.8" height="9.8"/>
  <rect class="cls-6" x="245.1" y="284.3" width="9.8" height="9.8"/>
  <rect class="cls-6" x="245.1" y="274.5" width="9.8" height="9.8"/>
  <rect class="cls-6" x="245.1" y="264.7" width="9.8" height="9.8"/>
  <rect class="cls-7" x="245.1" y="254.9" width="9.8" height="9.8"/>
  <rect class="cls-6" x="245.1" y="245.1" width="9.8" height="9.8"/>
  <rect class="cls-3" x="245.1" y="235.3" width="9.8" height="9.8"/>
  <rect class="cls-3" x="245.1" y="225.5" width="9.8" height="9.8"/>
  <rect class="cls-3" x="245.1" y="215.7" width="9.8" height="9.8"/>
  <rect class="cls-12" x="245.1" y="205.9" width="9.8" height="9.8"/>
  <rect class="cls-14" x="235.3" y="352.9" width="9.8" height="9.8"/>
  <rect class="cls-12" x="235.3" y="343.1" width="9.8" height="9.8"/>
  <rect class="cls-12" x="235.3" y="333.3" width="9.8" height="9.8"/>
  <rect class="cls-12" x="235.3" y="323.5" width="9.8" height="9.8"/>
  <rect class="cls-6" x="235.3" y="313.7" width="9.8" height="9.8"/>
  <rect class="cls-6" x="235.3" y="303.9" width="9.8" height="9.8"/>
  <rect class="cls-6" x="235.3" y="294.1" width="9.8" height="9.8"/>
  <rect class="cls-6" x="235.3" y="284.3" width="9.8" height="9.8"/>
  <rect class="cls-6" x="235.3" y="274.5" width="9.8" height="9.8"/>
  <rect class="cls-6" x="235.3" y="264.7" width="9.8" height="9.8"/>
  <rect class="cls-6" x="235.3" y="254.9" width="9.8" height="9.8"/>
  <rect class="cls-6" x="235.3" y="245.1" width="9.8" height="9.8"/>
  <rect class="cls-6" x="235.3" y="235.3" width="9.8" height="9.8"/>
  <rect class="cls-3" x="235.3" y="225.5" width="9.8" height="9.8"/>
  <rect class="cls-3" x="235.3" y="215.7" width="9.8" height="9.8"/>
  <rect class="cls-12" x="235.3" y="205.9" width="9.8" height="9.8"/>
  <rect class="cls-11" x="235.3" y="196.1" width="9.8" height="9.8"/>
  <rect class="cls-11" x="235.3" y="186.3" width="9.8" height="9.8"/>
  <rect class="cls-5" x="235.3" y="176.5" width="9.8" height="9.8"/>
  <rect class="cls-14" x="225.5" y="362.8" width="9.8" height="9.8"/>
  <rect class="cls-14" x="225.5" y="352.9" width="9.8" height="9.8"/>
  <rect class="cls-12" x="225.5" y="343.1" width="9.8" height="9.8"/>
  <rect class="cls-12" x="225.5" y="333.3" width="9.8" height="9.8"/>
  <rect class="cls-12" x="225.5" y="323.5" width="9.8" height="9.8"/>
  <rect class="cls-6" x="225.5" y="313.7" width="9.8" height="9.8"/>
  <rect class="cls-6" x="225.5" y="303.9" width="9.8" height="9.8"/>
  <rect class="cls-6" x="225.5" y="294.1" width="9.8" height="9.8"/>
  <rect class="cls-6" x="225.5" y="284.3" width="9.8" height="9.8"/>
  <rect class="cls-6" x="225.5" y="274.5" width="9.8" height="9.8"/>
  <rect class="cls-6" x="225.5" y="264.7" width="9.8" height="9.8"/>
  <rect class="cls-6" x="225.5" y="254.9" width="9.8" height="9.8"/>
  <rect class="cls-7" x="225.5" y="245.1" width="9.8" height="9.8"/>
  <rect class="cls-6" x="225.5" y="235.3" width="9.8" height="9.8"/>
  <rect class="cls-3" x="225.5" y="225.5" width="9.8" height="9.8"/>
  <rect class="cls-12" x="225.5" y="215.7" width="9.8" height="9.8"/>
  <rect class="cls-6" x="225.5" y="205.9" width="9.8" height="9.8"/>
  <rect class="cls-6" x="225.5" y="196.1" width="9.8" height="9.8"/>
  <rect class="cls-3" x="225.5" y="186.3" width="9.8" height="9.8"/>
  <rect class="cls-5" x="225.5" y="176.5" width="9.8" height="9.8"/>
  <rect class="cls-5" x="225.5" y="166.7" width="9.8" height="9.8"/>
  <rect class="cls-5" x="225.5" y="156.9" width="9.8" height="9.8"/>
  <rect class="cls-14" x="215.7" y="372.5" width="9.8" height="9.8"/>
  <rect class="cls-14" x="215.7" y="362.8" width="9.8" height="9.8"/>
  <rect class="cls-14" x="215.7" y="352.9" width="9.8" height="9.8"/>
  <rect class="cls-12" x="215.7" y="343.1" width="9.8" height="9.8"/>
  <rect class="cls-12" x="215.7" y="333.3" width="9.8" height="9.8"/>
  <rect class="cls-12" x="215.7" y="323.5" width="9.8" height="9.8"/>
  <rect class="cls-12" x="215.7" y="313.7" width="9.8" height="9.8"/>
  <rect class="cls-6" x="215.7" y="303.9" width="9.8" height="9.8"/>
  <rect class="cls-6" x="215.7" y="294.1" width="9.8" height="9.8"/>
  <rect class="cls-6" x="215.7" y="284.3" width="9.8" height="9.8"/>
  <rect class="cls-6" x="215.7" y="274.5" width="9.8" height="9.8"/>
  <rect class="cls-6" x="215.7" y="264.7" width="9.8" height="9.8"/>
  <rect class="cls-13" x="215.7" y="254.9" width="9.8" height="9.8"/>
  <rect class="cls-6" x="215.7" y="245.1" width="9.8" height="9.8"/>
  <rect class="cls-6" x="215.7" y="235.3" width="9.8" height="9.8"/>
  <rect class="cls-12" x="215.7" y="225.5" width="9.8" height="9.8"/>
  <rect class="cls-6" x="215.7" y="215.7" width="9.8" height="9.8"/>
  <rect class="cls-6" x="215.7" y="205.9" width="9.8" height="9.8"/>
  <rect class="cls-7" x="215.7" y="196.1" width="9.8" height="9.8"/>
  <rect class="cls-3" x="215.7" y="186.3" width="9.8" height="9.8"/>
  <rect class="cls-3" x="215.7" y="176.5" width="9.8" height="9.8"/>
  <rect class="cls-3" x="215.7" y="166.7" width="9.8" height="9.8"/>
  <rect class="cls-11" x="215.7" y="156.9" width="9.8" height="9.8"/>
  <rect class="cls-11" x="215.7" y="147.1" width="9.8" height="9.8"/>
  <rect class="cls-14" x="205.9" y="372.5" width="9.8" height="9.8"/>
  <rect class="cls-2" x="205.9" y="362.8" width="9.8" height="9.8"/>
  <rect class="cls-14" x="205.9" y="352.9" width="9.8" height="9.8"/>
  <rect class="cls-12" x="205.9" y="343.1" width="9.8" height="9.8"/>
  <rect class="cls-16" x="205.9" y="333.3" width="9.8" height="9.8"/>
  <rect class="cls-16" x="205.9" y="323.5" width="9.8" height="9.8"/>
  <rect class="cls-12" x="205.9" y="313.7" width="9.8" height="9.8"/>
  <rect class="cls-6" x="205.9" y="303.9" width="9.8" height="9.8"/>
  <rect class="cls-6" x="205.9" y="294.1" width="9.8" height="9.8"/>
  <rect class="cls-6" x="205.9" y="284.3" width="9.8" height="9.8"/>
  <rect class="cls-6" x="205.9" y="274.5" width="9.8" height="9.8"/>
  <rect class="cls-6" x="205.9" y="264.7" width="9.8" height="9.8"/>
  <rect class="cls-6" x="205.9" y="254.9" width="9.8" height="9.8"/>
  <rect class="cls-6" x="205.9" y="245.1" width="9.8" height="9.8"/>
  <rect class="cls-6" x="205.9" y="235.3" width="9.8" height="9.8"/>
  <rect class="cls-6" x="205.9" y="225.5" width="9.8" height="9.8"/>
  <rect class="cls-6" x="205.9" y="215.7" width="9.8" height="9.8"/>
  <rect class="cls-6" x="205.9" y="205.9" width="9.8" height="9.8"/>
  <rect class="cls-3" x="205.9" y="196.1" width="9.8" height="9.8"/>
  <rect class="cls-3" x="205.9" y="186.3" width="9.8" height="9.8"/>
  <rect class="cls-3" x="205.9" y="176.5" width="9.8" height="9.8"/>
  <rect class="cls-6" x="205.9" y="166.7" width="9.8" height="9.8"/>
  <rect class="cls-6" x="205.9" y="156.9" width="9.8" height="9.8"/>
  <rect class="cls-11" x="205.9" y="147.1" width="9.8" height="9.8"/>
  <rect class="cls-11" x="205.9" y="137.2" width="9.8" height="9.8"/>
  <rect class="cls-14" x="196.1" y="372.5" width="9.8" height="9.8"/>
  <rect class="cls-2" x="196.1" y="362.8" width="9.8" height="9.8"/>
  <rect class="cls-14" x="196.1" y="352.9" width="9.8" height="9.8"/>
  <rect class="cls-16" x="196.1" y="343.1" width="9.8" height="9.8"/>
  <rect class="cls-16" x="196.1" y="333.3" width="9.8" height="9.8"/>
  <rect class="cls-16" x="196.1" y="323.5" width="9.8" height="9.8"/>
  <rect class="cls-3" x="196.1" y="313.7" width="9.8" height="9.8"/>
  <rect class="cls-6" x="196.1" y="303.9" width="9.8" height="9.8"/>
  <rect class="cls-6" x="196.1" y="294.1" width="9.8" height="9.8"/>
  <rect class="cls-6" x="196.1" y="284.3" width="9.8" height="9.8"/>
  <rect class="cls-15" x="196.1" y="274.5" width="9.8" height="9.8"/>
  <rect class="cls-15" x="196.1" y="264.7" width="9.8" height="9.8"/>
  <rect class="cls-4" x="196.1" y="254.9" width="9.8" height="9.8"/>
  <rect class="cls-6" x="196.1" y="245.1" width="9.8" height="9.8"/>
  <rect class="cls-6" x="196.1" y="235.3" width="9.8" height="9.8"/>
  <rect class="cls-6" x="196.1" y="225.5" width="9.8" height="9.8"/>
  <rect class="cls-6" x="196.1" y="215.7" width="9.8" height="9.8"/>
  <rect class="cls-6" x="196.1" y="205.9" width="9.8" height="9.8"/>
  <rect class="cls-3" x="196.1" y="196.1" width="9.8" height="9.8"/>
  <rect class="cls-3" x="196.1" y="186.3" width="9.8" height="9.8"/>
  <rect class="cls-7" x="196.1" y="176.5" width="9.8" height="9.8"/>
  <rect class="cls-6" x="196.1" y="166.7" width="9.8" height="9.8"/>
  <rect class="cls-7" x="196.1" y="156.9" width="9.8" height="9.8"/>
  <rect class="cls-11" x="196.1" y="147.1" width="9.8" height="9.8"/>
  <rect class="cls-5" x="196.1" y="137.2" width="9.8" height="9.8"/>
  <rect class="cls-5" x="196.1" y="127.4" width="9.8" height="9.8"/>
  <rect class="cls-14" x="186.3" y="382.4" width="9.8" height="9.8"/>
  <rect class="cls-2" x="186.3" y="372.5" width="9.8" height="9.8"/>
  <rect class="cls-2" x="186.3" y="362.8" width="9.8" height="9.8"/>
  <rect class="cls-14" x="186.3" y="352.9" width="9.8" height="9.8"/>
  <rect class="cls-16" x="186.3" y="343.1" width="9.8" height="9.8"/>
  <rect class="cls-16" x="186.3" y="333.3" width="9.8" height="9.8"/>
  <rect class="cls-3" x="186.3" y="323.5" width="9.8" height="9.8"/>
  <rect class="cls-3" x="186.3" y="313.7" width="9.8" height="9.8"/>
  <rect class="cls-3" x="186.3" y="303.9" width="9.8" height="9.8"/>
  <rect class="cls-6" x="186.3" y="294.1" width="9.8" height="9.8"/>
  <rect class="cls-4" x="186.3" y="284.3" width="9.8" height="9.8"/>
  <rect class="cls-15" x="186.3" y="274.5" width="9.8" height="9.8"/>
  <rect class="cls-15" x="186.3" y="264.7" width="9.8" height="9.8"/>
  <rect class="cls-4" x="186.3" y="254.9" width="9.8" height="9.8"/>
  <rect class="cls-15" x="186.3" y="245.1" width="9.8" height="9.8"/>
  <rect class="cls-6" x="186.3" y="235.3" width="9.8" height="9.8"/>
  <rect class="cls-6" x="186.3" y="225.5" width="9.8" height="9.8"/>
  <rect class="cls-6" x="186.3" y="215.7" width="9.8" height="9.8"/>
  <rect class="cls-6" x="186.3" y="205.9" width="9.8" height="9.8"/>
  <rect class="cls-3" x="186.3" y="196.1" width="9.8" height="9.8"/>
  <rect class="cls-6" x="186.3" y="186.3" width="9.8" height="9.8"/>
  <rect class="cls-6" x="186.3" y="176.5" width="9.8" height="9.8"/>
  <rect class="cls-6" x="186.3" y="166.7" width="9.8" height="9.8"/>
  <rect class="cls-6" x="186.3" y="156.9" width="9.8" height="9.8"/>
  <rect class="cls-3" x="186.3" y="147.1" width="9.8" height="9.8"/>
  <rect class="cls-3" x="186.3" y="137.2" width="9.8" height="9.8"/>
  <rect class="cls-5" x="186.3" y="127.4" width="9.8" height="9.8"/>
  <rect class="cls-5" x="186.3" y="117.7" width="9.8" height="9.8"/>
  <rect class="cls-14" x="176.5" y="392.2" width="9.8" height="9.8"/>
  <rect class="cls-2" x="176.5" y="382.4" width="9.8" height="9.8"/>
  <rect class="cls-2" x="176.5" y="372.5" width="9.8" height="9.8"/>
  <rect class="cls-14" x="176.5" y="362.8" width="9.8" height="9.8"/>
  <rect class="cls-14" x="176.5" y="352.9" width="9.8" height="9.8"/>
  <rect class="cls-9" x="176.5" y="343.1" width="9.8" height="9.8"/>
  <rect class="cls-9" x="176.5" y="333.3" width="9.8" height="9.8"/>
  <rect class="cls-9" x="176.5" y="323.5" width="9.8" height="9.8"/>
  <rect class="cls-3" x="176.5" y="313.7" width="9.8" height="9.8"/>
  <rect class="cls-3" x="176.5" y="303.9" width="9.8" height="9.8"/>
  <rect class="cls-6" x="176.5" y="294.1" width="9.8" height="9.8"/>
  <rect class="cls-15" x="176.5" y="284.3" width="9.8" height="9.8"/>
  <rect class="cls-1" x="176.5" y="274.5" width="9.8" height="9.8"/>
  <rect class="cls-15" x="176.5" y="264.7" width="9.8" height="9.8"/>
  <rect class="cls-15" x="176.5" y="254.9" width="9.8" height="9.8"/>
  <rect class="cls-15" x="176.5" y="245.1" width="9.8" height="9.8"/>
  <rect class="cls-6" x="176.5" y="235.3" width="9.8" height="9.8"/>
  <rect class="cls-6" x="176.5" y="225.5" width="9.8" height="9.8"/>
  <rect class="cls-6" x="176.5" y="215.7" width="9.8" height="9.8"/>
  <rect class="cls-6" x="176.5" y="205.9" width="9.8" height="9.8"/>
  <rect class="cls-6" x="176.5" y="196.1" width="9.8" height="9.8"/>
  <rect class="cls-7" x="176.5" y="186.3" width="9.8" height="9.8"/>
  <rect class="cls-6" x="176.5" y="176.5" width="9.8" height="9.8"/>
  <rect class="cls-6" x="176.5" y="166.7" width="9.8" height="9.8"/>
  <rect class="cls-6" x="176.5" y="156.9" width="9.8" height="9.8"/>
  <rect class="cls-3" x="176.5" y="147.1" width="9.8" height="9.8"/>
  <rect class="cls-3" x="176.5" y="137.2" width="9.8" height="9.8"/>
  <rect class="cls-5" x="176.5" y="127.4" width="9.8" height="9.8"/>
  <rect class="cls-11" x="176.5" y="117.7" width="9.8" height="9.8"/>
  <rect class="cls-2" x="166.7" y="392.2" width="9.8" height="9.8"/>
  <rect class="cls-2" x="166.7" y="382.4" width="9.8" height="9.8"/>
  <rect class="cls-2" x="166.7" y="372.5" width="9.8" height="9.8"/>
  <rect class="cls-2" x="166.7" y="362.8" width="9.8" height="9.8"/>
  <rect class="cls-2" x="166.7" y="352.9" width="9.8" height="9.8"/>
  <rect class="cls-2" x="166.7" y="343.1" width="9.8" height="9.8"/>
  <rect class="cls-2" x="166.7" y="333.3" width="9.8" height="9.8"/>
  <rect class="cls-3" x="166.7" y="323.5" width="9.8" height="9.8"/>
  <rect class="cls-3" x="166.7" y="313.7" width="9.8" height="9.8"/>
  <rect class="cls-3" x="166.7" y="303.9" width="9.8" height="9.8"/>
  <rect class="cls-3" x="166.7" y="294.1" width="9.8" height="9.8"/>
  <rect class="cls-15" x="166.7" y="284.3" width="9.8" height="9.8"/>
  <rect class="cls-1" x="166.7" y="274.5" width="9.8" height="9.8"/>
  <rect class="cls-1" x="166.7" y="264.7" width="9.8" height="9.8"/>
  <rect class="cls-15" x="166.7" y="254.9" width="9.8" height="9.8"/>
  <rect class="cls-15" x="166.7" y="245.1" width="9.8" height="9.8"/>
  <rect class="cls-4" x="166.7" y="235.3" width="9.8" height="9.8"/>
  <rect class="cls-6" x="166.7" y="225.5" width="9.8" height="9.8"/>
  <rect class="cls-6" x="166.7" y="215.7" width="9.8" height="9.8"/>
  <rect class="cls-6" x="166.7" y="205.9" width="9.8" height="9.8"/>
  <rect class="cls-6" x="166.7" y="196.1" width="9.8" height="9.8"/>
  <rect class="cls-6" x="166.7" y="186.3" width="9.8" height="9.8"/>
  <rect class="cls-6" x="166.7" y="176.5" width="9.8" height="9.8"/>
  <rect class="cls-7" x="166.7" y="166.7" width="9.8" height="9.8"/>
  <rect class="cls-3" x="166.7" y="156.9" width="9.8" height="9.8"/>
  <rect class="cls-3" x="166.7" y="147.1" width="9.8" height="9.8"/>
  <rect class="cls-7" x="166.7" y="137.2" width="9.8" height="9.8"/>
  <rect class="cls-11" x="166.7" y="127.4" width="9.8" height="9.8"/>
  <rect class="cls-11" x="166.7" y="117.7" width="9.8" height="9.8"/>
  <rect class="cls-2" x="156.9" y="392.2" width="9.8" height="9.8"/>
  <rect class="cls-2" x="156.9" y="382.4" width="9.8" height="9.8"/>
  <rect class="cls-2" x="156.9" y="372.5" width="9.8" height="9.8"/>
  <rect class="cls-2" x="156.9" y="343.1" width="9.8" height="9.8"/>
  <rect class="cls-16" x="156.9" y="333.3" width="9.8" height="9.8"/>
  <rect class="cls-16" x="156.9" y="323.5" width="9.8" height="9.8"/>
  <rect class="cls-3" x="156.9" y="313.7" width="9.8" height="9.8"/>
  <rect class="cls-3" x="156.9" y="303.9" width="9.8" height="9.8"/>
  <rect class="cls-3" x="156.9" y="294.1" width="9.8" height="9.8"/>
  <rect class="cls-6" x="156.9" y="284.3" width="9.8" height="9.8"/>
  <rect class="cls-15" x="156.9" y="274.5" width="9.8" height="9.8"/>
  <rect class="cls-4" x="156.9" y="264.7" width="9.8" height="9.8"/>
  <rect class="cls-15" x="156.9" y="254.9" width="9.8" height="9.8"/>
  <rect class="cls-12" x="156.9" y="245.1" width="9.8" height="9.8"/>
  <rect class="cls-6" x="156.9" y="235.3" width="9.8" height="9.8"/>
  <rect class="cls-15" x="156.9" y="225.5" width="9.8" height="9.8"/>
  <rect class="cls-6" x="156.9" y="215.7" width="9.8" height="9.8"/>
  <rect class="cls-6" x="156.9" y="205.9" width="9.8" height="9.8"/>
  <rect class="cls-6" x="156.9" y="196.1" width="9.8" height="9.8"/>
  <rect class="cls-6" x="156.9" y="186.3" width="9.8" height="9.8"/>
  <rect class="cls-6" x="156.9" y="176.5" width="9.8" height="9.8"/>
  <rect class="cls-6" x="156.9" y="166.7" width="9.8" height="9.8"/>
  <rect class="cls-3" x="156.9" y="156.9" width="9.8" height="9.8"/>
  <rect class="cls-6" x="156.9" y="147.1" width="9.8" height="9.8"/>
  <rect class="cls-6" x="156.9" y="137.2" width="9.8" height="9.8"/>
  <rect class="cls-6" x="156.9" y="127.4" width="9.8" height="9.8"/>
  <rect class="cls-11" x="156.9" y="117.7" width="9.8" height="9.8"/>
  <rect class="cls-2" x="147.1" y="392.2" width="9.8" height="9.8"/>
  <rect class="cls-2" x="147.1" y="382.4" width="9.8" height="9.8"/>
  <rect class="cls-2" x="147.1" y="372.5" width="9.8" height="9.8"/>
  <rect class="cls-16" x="147.1" y="333.3" width="9.8" height="9.8"/>
  <rect class="cls-9" x="147.1" y="323.5" width="9.8" height="9.8"/>
  <rect class="cls-9" x="147.1" y="313.7" width="9.8" height="9.8"/>
  <rect class="cls-9" x="147.1" y="303.9" width="9.8" height="9.8"/>
  <rect class="cls-3" x="147.1" y="294.1" width="9.8" height="9.8"/>
  <rect class="cls-6" x="147.1" y="284.3" width="9.8" height="9.8"/>
  <rect class="cls-6" x="147.1" y="274.5" width="9.8" height="9.8"/>
  <rect class="cls-6" x="147.1" y="264.7" width="9.8" height="9.8"/>
  <rect class="cls-12" x="147.1" y="254.9" width="9.8" height="9.8"/>
  <rect class="cls-12" x="147.1" y="245.1" width="9.8" height="9.8"/>
  <rect class="cls-6" x="147.1" y="235.3" width="9.8" height="9.8"/>
  <rect class="cls-6" x="147.1" y="225.5" width="9.8" height="9.8"/>
  <rect class="cls-4" x="147.1" y="215.7" width="9.8" height="9.8"/>
  <rect class="cls-15" x="147.1" y="205.9" width="9.8" height="9.8"/>
  <rect class="cls-6" x="147.1" y="196.1" width="9.8" height="9.8"/>
  <rect class="cls-6" x="147.1" y="186.3" width="9.8" height="9.8"/>
  <rect class="cls-6" x="147.1" y="176.5" width="9.8" height="9.8"/>
  <rect class="cls-6" x="147.1" y="166.7" width="9.8" height="9.8"/>
  <rect class="cls-6" x="147.1" y="156.9" width="9.8" height="9.8"/>
  <rect class="cls-6" x="147.1" y="147.1" width="9.8" height="9.8"/>
  <rect class="cls-6" x="147.1" y="137.2" width="9.8" height="9.8"/>
  <rect class="cls-6" x="147.1" y="127.4" width="9.8" height="9.8"/>
  <rect class="cls-11" x="147.1" y="117.7" width="9.8" height="9.8"/>
  <rect class="cls-14" x="137.2" y="392.2" width="9.8" height="9.8"/>
  <rect class="cls-2" x="137.2" y="382.4" width="9.8" height="9.8"/>
  <rect class="cls-2" x="137.2" y="372.5" width="9.8" height="9.8"/>
  <rect class="cls-14" x="137.2" y="352.9" width="9.8" height="9.8"/>
  <rect class="cls-9" x="137.2" y="333.3" width="9.8" height="9.8"/>
  <rect class="cls-14" x="137.2" y="323.5" width="9.8" height="9.8"/>
  <rect class="cls-2" x="137.2" y="313.7" width="9.8" height="9.8"/>
  <rect class="cls-3" x="137.2" y="303.9" width="9.8" height="9.8"/>
  <rect class="cls-3" x="137.2" y="294.1" width="9.8" height="9.8"/>
  <rect class="cls-6" x="137.2" y="284.3" width="9.8" height="9.8"/>
  <rect class="cls-6" x="137.2" y="274.5" width="9.8" height="9.8"/>
  <rect class="cls-12" x="137.2" y="264.7" width="9.8" height="9.8"/>
  <rect class="cls-12" x="137.2" y="254.9" width="9.8" height="9.8"/>
  <rect class="cls-12" x="137.2" y="245.1" width="9.8" height="9.8"/>
  <rect class="cls-6" x="137.2" y="235.3" width="9.8" height="9.8"/>
  <rect class="cls-6" x="137.2" y="225.5" width="9.8" height="9.8"/>
  <rect class="cls-6" x="137.2" y="215.7" width="9.8" height="9.8"/>
  <rect class="cls-15" x="137.2" y="205.9" width="9.8" height="9.8"/>
  <rect class="cls-4" x="137.2" y="196.1" width="9.8" height="9.8"/>
  <rect class="cls-6" x="137.2" y="186.3" width="9.8" height="9.8"/>
  <rect class="cls-6" x="137.2" y="176.5" width="9.8" height="9.8"/>
  <rect class="cls-6" x="137.2" y="166.7" width="9.8" height="9.8"/>
  <rect class="cls-6" x="137.2" y="156.9" width="9.8" height="9.8"/>
  <rect class="cls-6" x="137.2" y="147.1" width="9.8" height="9.8"/>
  <rect class="cls-7" x="137.2" y="137.2" width="9.8" height="9.8"/>
  <rect class="cls-6" x="137.2" y="127.4" width="9.8" height="9.8"/>
  <rect class="cls-11" x="137.2" y="117.7" width="9.8" height="9.8"/>
  <rect class="cls-14" x="127.4" y="392.2" width="9.8" height="9.8"/>
  <rect class="cls-2" x="127.4" y="382.4" width="9.8" height="9.8"/>
  <rect class="cls-2" x="127.4" y="323.5" width="9.8" height="9.8"/>
  <rect class="cls-16" x="127.4" y="313.7" width="9.8" height="9.8"/>
  <rect class="cls-3" x="127.4" y="303.9" width="9.8" height="9.8"/>
  <rect class="cls-3" x="127.4" y="294.1" width="9.8" height="9.8"/>
  <rect class="cls-6" x="127.4" y="284.3" width="9.8" height="9.8"/>
  <rect class="cls-6" x="127.4" y="274.5" width="9.8" height="9.8"/>
  <rect class="cls-12" x="127.4" y="264.7" width="9.8" height="9.8"/>
  <rect class="cls-12" x="127.4" y="254.9" width="9.8" height="9.8"/>
  <rect class="cls-12" x="127.4" y="245.1" width="9.8" height="9.8"/>
  <rect class="cls-6" x="127.4" y="235.3" width="9.8" height="9.8"/>
  <rect class="cls-6" x="127.4" y="225.5" width="9.8" height="9.8"/>
  <rect class="cls-6" x="127.4" y="215.7" width="9.8" height="9.8"/>
  <rect class="cls-6" x="127.4" y="205.9" width="9.8" height="9.8"/>
  <rect class="cls-4" x="127.4" y="196.1" width="9.8" height="9.8"/>
  <rect class="cls-1" x="127.4" y="186.3" width="9.8" height="9.8"/>
  <rect class="cls-1" x="127.4" y="176.5" width="9.8" height="9.8"/>
  <rect class="cls-6" x="127.4" y="166.7" width="9.8" height="9.8"/>
  <rect class="cls-6" x="127.4" y="156.9" width="9.8" height="9.8"/>
  <rect class="cls-6" x="127.4" y="147.1" width="9.8" height="9.8"/>
  <rect class="cls-6" x="127.4" y="137.2" width="9.8" height="9.8"/>
  <rect class="cls-6" x="127.4" y="127.4" width="9.8" height="9.8"/>
  <rect class="cls-11" x="127.4" y="117.7" width="9.8" height="9.8"/>
  <rect class="cls-16" x="117.7" y="313.7" width="9.8" height="9.8"/>
  <rect class="cls-16" x="117.7" y="303.9" width="9.8" height="9.8"/>
  <rect class="cls-12" x="117.7" y="294.1" width="9.8" height="9.8"/>
  <rect class="cls-12" x="117.7" y="284.3" width="9.8" height="9.8"/>
  <rect class="cls-12" x="117.7" y="274.5" width="9.8" height="9.8"/>
  <rect class="cls-12" x="117.7" y="264.7" width="9.8" height="9.8"/>
  <rect class="cls-12" x="117.7" y="245.1" width="9.8" height="9.8"/>
  <rect class="cls-6" x="117.7" y="235.3" width="9.8" height="9.8"/>
  <rect class="cls-6" x="117.7" y="225.5" width="9.8" height="9.8"/>
  <rect class="cls-6" x="117.7" y="215.7" width="9.8" height="9.8"/>
  <rect class="cls-6" x="117.7" y="205.9" width="9.8" height="9.8"/>
  <rect class="cls-1" x="117.7" y="196.1" width="9.8" height="9.8"/>
  <rect class="cls-1" x="117.7" y="186.3" width="9.8" height="9.8"/>
  <rect class="cls-1" x="117.7" y="176.5" width="9.8" height="9.8"/>
  <rect class="cls-1" x="117.7" y="166.7" width="9.8" height="9.8"/>
  <rect class="cls-6" x="117.7" y="156.9" width="9.8" height="9.8"/>
  <rect class="cls-7" x="117.7" y="147.1" width="9.8" height="9.8"/>
  <rect class="cls-6" x="117.7" y="137.2" width="9.8" height="9.8"/>
  <rect class="cls-6" x="117.7" y="127.4" width="9.8" height="9.8"/>
  <rect class="cls-12" x="107.8" y="303.9" width="9.8" height="9.8"/>
  <rect class="cls-12" x="107.8" y="294.1" width="9.8" height="9.8"/>
  <rect class="cls-12" x="107.8" y="284.3" width="9.8" height="9.8"/>
  <rect class="cls-12" x="107.8" y="274.5" width="9.8" height="9.8"/>
  <rect class="cls-12" x="107.8" y="245.1" width="9.8" height="9.8"/>
  <rect class="cls-12" x="107.8" y="235.3" width="9.8" height="9.8"/>
  <rect class="cls-6" x="107.8" y="225.5" width="9.8" height="9.8"/>
  <rect class="cls-6" x="107.8" y="215.7" width="9.8" height="9.8"/>
  <rect class="cls-6" x="107.8" y="205.9" width="9.8" height="9.8"/>
  <rect class="cls-1" x="107.8" y="196.1" width="9.8" height="9.8"/>
  <rect class="cls-1" x="107.8" y="186.3" width="9.8" height="9.8"/>
  <rect class="cls-1" x="107.8" y="176.5" width="9.8" height="9.8"/>
  <rect class="cls-1" x="107.8" y="166.7" width="9.8" height="9.8"/>
  <rect class="cls-6" x="107.8" y="156.9" width="9.8" height="9.8"/>
  <rect class="cls-6" x="107.8" y="147.1" width="9.8" height="9.8"/>
  <rect class="cls-6" x="107.8" y="137.2" width="9.8" height="9.8"/>
  <rect class="cls-6" x="107.8" y="127.4" width="9.8" height="9.8"/>
  <rect class="cls-12" x="98" y="245.1" width="9.8" height="9.8"/>
  <rect class="cls-12" x="98" y="235.3" width="9.8" height="9.8"/>
  <rect class="cls-6" x="98" y="225.5" width="9.8" height="9.8"/>
  <rect class="cls-6" x="98" y="215.7" width="9.8" height="9.8"/>
  <rect class="cls-6" x="98" y="205.9" width="9.8" height="9.8"/>
  <rect class="cls-6" x="98" y="196.1" width="9.8" height="9.8"/>
  <rect class="cls-1" x="98" y="186.3" width="9.8" height="9.8"/>
  <rect class="cls-1" x="98" y="176.5" width="9.8" height="9.8"/>
  <rect class="cls-6" x="98" y="166.7" width="9.8" height="9.8"/>
  <rect class="cls-6" x="98" y="156.9" width="9.8" height="9.8"/>
  <rect class="cls-6" x="98" y="147.1" width="9.8" height="9.8"/>
  <rect class="cls-6" x="98" y="137.2" width="9.8" height="9.8"/>
  <rect class="cls-14" x="88.2" y="411.8" width="9.8" height="9.8"/>
  <rect class="cls-12" x="88.2" y="235.3" width="9.8" height="9.8"/>
  <rect class="cls-12" x="88.2" y="225.5" width="9.8" height="9.8"/>
  <rect class="cls-6" x="88.2" y="215.7" width="9.8" height="9.8"/>
  <rect class="cls-6" x="88.2" y="205.9" width="9.8" height="9.8"/>
  <rect class="cls-6" x="88.2" y="196.1" width="9.8" height="9.8"/>
  <rect class="cls-6" x="88.2" y="186.3" width="9.8" height="9.8"/>
  <rect class="cls-6" x="88.2" y="176.5" width="9.8" height="9.8"/>
  <rect class="cls-6" x="88.2" y="166.7" width="9.8" height="9.8"/>
  <rect class="cls-6" x="88.2" y="156.9" width="9.8" height="9.8"/>
  <rect class="cls-12" x="88.2" y="147.1" width="9.8" height="9.8"/>
  <rect class="cls-14" x="78.4" y="421.6" width="9.8" height="9.8"/>
  <rect class="cls-2" x="78.4" y="411.8" width="9.8" height="9.8"/>
  <rect class="cls-14" x="78.4" y="274.5" width="9.8" height="9.8"/>
  <rect class="cls-8" x="78.4" y="235.3" width="9.8" height="9.8"/>
  <rect class="cls-12" x="78.4" y="225.5" width="9.8" height="9.8"/>
  <rect class="cls-12" x="78.4" y="215.7" width="9.8" height="9.8"/>
  <rect class="cls-6" x="78.4" y="205.9" width="9.8" height="9.8"/>
  <rect class="cls-6" x="78.4" y="196.1" width="9.8" height="9.8"/>
  <rect class="cls-6" x="78.4" y="186.3" width="9.8" height="9.8"/>
  <rect class="cls-6" x="78.4" y="176.5" width="9.8" height="9.8"/>
  <rect class="cls-12" x="78.4" y="166.7" width="9.8" height="9.8"/>
  <rect class="cls-12" x="78.4" y="156.9" width="9.8" height="9.8"/>
  <rect class="cls-14" x="68.6" y="421.6" width="9.8" height="9.8"/>
  <rect class="cls-14" x="68.6" y="411.8" width="9.8" height="9.8"/>
  <rect class="cls-2" x="68.6" y="402" width="9.8" height="9.8"/>
  <rect class="cls-2" x="68.6" y="372.5" width="9.8" height="9.8"/>
  <rect class="cls-14" x="68.6" y="313.7" width="9.8" height="9.8"/>
  <rect class="cls-14" x="68.6" y="294.1" width="9.8" height="9.8"/>
  <rect class="cls-14" x="68.6" y="284.3" width="9.8" height="9.8"/>
  <rect class="cls-8" x="68.6" y="274.5" width="9.8" height="9.8"/>
  <rect class="cls-8" x="68.6" y="264.7" width="9.8" height="9.8"/>
  <rect class="cls-14" x="68.6" y="254.9" width="9.8" height="9.8"/>
  <rect class="cls-8" x="68.6" y="235.3" width="9.8" height="9.8"/>
  <rect class="cls-12" x="68.6" y="215.7" width="9.8" height="9.8"/>
  <rect class="cls-12" x="68.6" y="205.9" width="9.8" height="9.8"/>
  <rect class="cls-12" x="68.6" y="196.1" width="9.8" height="9.8"/>
  <rect class="cls-12" x="68.6" y="186.3" width="9.8" height="9.8"/>
  <rect class="cls-12" x="68.6" y="176.5" width="9.8" height="9.8"/>
  <rect class="cls-14" x="58.8" y="421.6" width="9.8" height="9.8"/>
  <rect class="cls-14" x="58.8" y="411.8" width="9.8" height="9.8"/>
  <rect class="cls-14" x="58.8" y="402" width="9.8" height="9.8"/>
  <rect class="cls-8" x="58.8" y="294.1" width="9.8" height="9.8"/>
  <rect class="cls-8" x="58.8" y="284.3" width="9.8" height="9.8"/>
  <rect class="cls-8" x="58.8" y="254.9" width="9.8" height="9.8"/>
  <rect class="cls-8" x="58.8" y="245.1" width="9.8" height="9.8"/>
  <rect class="cls-14" x="49" y="411.8" width="9.8" height="9.8"/>
  <rect class="cls-8" x="49" y="303.9" width="9.8" height="9.8"/>
  <rect class="cls-8" x="39.2" y="313.7" width="9.8" height="9.8"/>
  <rect class="cls-8" x="39.2" y="303.9" width="9.8" height="9.8"/>
  <rect class="cls-8" x="29.4" y="303.9" width="9.8" height="9.8"/>
</svg>