<svg xmlns="http://www.w3.org/2000/svg" version="1.0" width="800.000000pt" height="800.000000pt" viewBox="0 0 800.000000 800.000000" preserveAspectRatio="xMidYMid meet">

<g transform="translate(0.000000,800.000000) scale(0.100000,-0.100000)" fill="#b00000" stroke="none">
<path d="M1020 7780 l0 -70 -75 0 -75 0 0 -220 0 -220 -70 0 -70 0 0 -145 0 -145 -75 0 -75 0 0 -215 0 -215 -70 0 -70 0 0 -145 0 -145 -75 0 -75 0 0 -220 0 -220 -70 0 -70 0 0 -145 0 -145 70 0 70 0 0 -220 0 -220 75 0 75 0 0 -70 0 -70 70 0 70 0 0 -75 0 -75 75 0 75 0 0 -70 0 -70 70 0 70 0 0 -1965 0 -1965 -360 0 -360 0 0 -360 0 -360 3920 0 3920 0 0 360 0 360 -360 0 -360 0 0 1965 0 1965 70 0 70 0 0 70 0 70 75 0 75 0 0 75 0 75 70 0 70 0 0 70 0 70 75 0 75 0 0 220 0 220 70 0 70 0 0 145 0 145 -70 0 -70 0 0 220 0 220 -75 0 -75 0 0 145 0 145 -70 0 -70 0 0 215 0 215 -75 0 -75 0 0 145 0 145 -70 0 -70 0 0 220 0 220 -75 0 -75 0 0 70 0 70 -3050 0 -3050 0 0 -70z m1160 -1015 l0 -365 -75 0 -75 0 0 -365 0 -365 -70 0 -70 0 0 -145 0 -145 -75 0 -75 0 0 -70 0 -70 -360 0 -360 0 0 70 0 70 -75 0 -75 0 0 295 0 295 75 0 75 0 0 145 0 145 70 0 70 0 0 215 0 215 75 0 75 0 0 145 0 145 70 0 70 0 0 75 0 75 365 0 365 0 0 -365z m1600 -435 l0 -800 -75 0 -75 0 0 -75 0 -75 -70 0 -70 0 0 -70 0 -70 -365 0 -365 0 0 70 0 70 -70 0 -70 0 0 295 0 295 70 0 70 0 0 360 0 360 75 0 75 0 0 220 0 220 435 0 435 0 0 -800z m1450 580 l0 -220 75 0 75 0 0 -360 0 -360 70 0 70 0 0 -295 0 -295 -70 0 -70 0 0 -70 0 -70 -365 0 -365 0 0 70 0 70 -70 0 -70 0 0 75 0 75 -75 0 -75 0 0 800 0 800 435 0 435 0 0 -220z m1460 145 l0 -75 70 0 70 0 0 -145 0 -145 75 0 75 0 0 -215 0 -215 70 0 70 0 0 -145 0 -145 75 0 75 0 0 -295 0 -295 -75 0 -75 0 0 -70 0 -70 -360 0 -360 0 0 70 0 70 -75 0 -75 0 0 145 0 145 -75 0 -75 0 0 365 0 365 -70 0 -70 0 0 365 0 365 365 0 365 0 0 -75z m-4360 -2180 l0 -75 145 0 145 0 0 -70 0 -70 580 0 580 0 0 70 0 70 70 0 70 0 0 75 0 75 150 0 150 0 0 -75 0 -75 70 0 70 0 0 -70 0 -70 580 0 580 0 0 70 0 70 145 0 145 0 0 75 0 75 75 0 75 0 0 -75 0 -75 70 0 70 0 0 -70 0 -70 220 0 220 0 0 -75 0 -75 75 0 75 0 0 -1090 0 -1090 -510 0 -510 0 0 655 0 655 -1600 0 -1600 0 0 -655 0 -655 -510 0 -510 0 0 1090 0 1090 75 0 75 0 0 75 0 75 215 0 215 0 0 70 0 70 75 0 75 0 0 75 0 75 75 0 75 0 0 -75z m2760 -3055 l0 -1090 -1020 0 -1020 0 0 1090 0 1090 1020 0 1020 0 0 -1090z m-2620 -655 l0 -435 -510 0 -510 0 0 435 0 435 510 0 510 0 0 -435z m4220 0 l0 -435 -510 0 -510 0 0 435 0 435 510 0 510 0 0 -435z" fill="#b00000"/>
</g>
</svg>