<?xml version="1.0" encoding="UTF-8" ?>
<svg version="1.1" width="40" height="40" xmlns="http://www.w3.org/2000/svg" shape-rendering="crispEdges">
<rect x="14" y="0" width="1" height="1" fill="#222034" />
<rect x="15" y="0" width="1" height="1" fill="#222034" />
<rect x="14" y="1" width="1" height="1" fill="#222034" />
<rect x="15" y="1" width="1" height="1" fill="#222034" />
<rect x="13" y="2" width="1" height="1" fill="#222034" />
<rect x="14" y="2" width="1" height="1" fill="#222034" />
<rect x="15" y="2" width="1" height="1" fill="#222034" />
<rect x="13" y="3" width="1" height="1" fill="#222034" />
<rect x="14" y="3" width="1" height="1" fill="#222034" />
<rect x="13" y="4" width="1" height="1" fill="#222034" />
<rect x="14" y="4" width="1" height="1" fill="#222034" />
<rect x="15" y="8" width="1" height="1" fill="#222034" />
<rect x="16" y="8" width="1" height="1" fill="#222034" />
<rect x="15" y="9" width="1" height="1" fill="#222034" />
<rect x="16" y="9" width="1" height="1" fill="#222034" />
<rect x="17" y="9" width="1" height="1" fill="#222034" />
<rect x="16" y="10" width="1" height="1" fill="#222034" />
<rect x="17" y="10" width="1" height="1" fill="#222034" />
<rect x="18" y="10" width="1" height="1" fill="#222034" />
<rect x="17" y="11" width="1" height="1" fill="#222034" />
<rect x="18" y="11" width="1" height="1" fill="#222034" />
<rect x="17" y="12" width="1" height="1" fill="#222034" />
<rect x="18" y="12" width="1" height="1" fill="#222034" />
<rect x="19" y="12" width="1" height="1" fill="#222034" />
<rect x="18" y="13" width="1" height="1" fill="#222034" />
<rect x="19" y="13" width="1" height="1" fill="#222034" />
<rect x="18" y="14" width="1" height="1" fill="#222034" />
<rect x="19" y="14" width="1" height="1" fill="#222034" />
<rect x="21" y="17" width="1" height="1" fill="#222034" />
<rect x="22" y="17" width="1" height="1" fill="#222034" />
<rect x="21" y="18" width="1" height="1" fill="#222034" />
<rect x="22" y="18" width="1" height="1" fill="#222034" />
<rect x="21" y="19" width="1" height="1" fill="#222034" />
<rect x="22" y="19" width="1" height="1" fill="#222034" />
<rect x="23" y="19" width="1" height="1" fill="#222034" />
<rect x="22" y="20" width="1" height="1" fill="#222034" />
<rect x="23" y="20" width="1" height="1" fill="#222034" />
<rect x="24" y="20" width="1" height="1" fill="#222034" />
<rect x="23" y="21" width="1" height="1" fill="#222034" />
<rect x="24" y="21" width="1" height="1" fill="#222034" />
<rect x="23" y="22" width="1" height="1" fill="#222034" />
<rect x="24" y="22" width="1" height="1" fill="#222034" />
<rect x="23" y="23" width="1" height="1" fill="#222034" />
<rect x="24" y="23" width="1" height="1" fill="#222034" />
<rect x="25" y="23" width="1" height="1" fill="#222034" />
<rect x="24" y="27" width="1" height="1" fill="#222034" />
<rect x="25" y="27" width="1" height="1" fill="#222034" />
<rect x="26" y="27" width="1" height="1" fill="#222034" />
<rect x="25" y="28" width="1" height="1" fill="#222034" />
<rect x="26" y="28" width="1" height="1" fill="#222034" />
<rect x="25" y="29" width="1" height="1" fill="#222034" />
<rect x="26" y="29" width="1" height="1" fill="#222034" />
<rect x="24" y="30" width="1" height="1" fill="#222034" />
<rect x="25" y="30" width="1" height="1" fill="#222034" />
<rect x="26" y="30" width="1" height="1" fill="#222034" />
<rect x="24" y="31" width="1" height="1" fill="#222034" />
<rect x="25" y="31" width="1" height="1" fill="#222034" />
<rect x="24" y="32" width="1" height="1" fill="#222034" />
<rect x="25" y="32" width="1" height="1" fill="#222034" />
<rect x="25" y="33" width="1" height="1" fill="#222034" />
<rect x="22" y="36" width="1" height="1" fill="#222034" />
<rect x="23" y="36" width="1" height="1" fill="#222034" />
<rect x="21" y="37" width="1" height="1" fill="#222034" />
<rect x="22" y="37" width="1" height="1" fill="#222034" />
<rect x="23" y="37" width="1" height="1" fill="#222034" />
<rect x="20" y="38" width="1" height="1" fill="#222034" />
<rect x="21" y="38" width="1" height="1" fill="#222034" />
<rect x="22" y="38" width="1" height="1" fill="#222034" />
<rect x="20" y="39" width="1" height="1" fill="#222034" />
<rect x="21" y="39" width="1" height="1" fill="#222034" />
</svg>