<?xml version="1.0" encoding="UTF-8" ?>
<svg version="1.1" width="40" height="40" xmlns="http://www.w3.org/2000/svg" shape-rendering="crispEdges">
<rect x="38" y="0" width="1" height="1" fill="#222034" />
<rect x="39" y="0" width="1" height="1" fill="#222034" />
<rect x="38" y="1" width="1" height="1" fill="#222034" />
<rect x="39" y="1" width="1" height="1" fill="#222034" />
<rect x="38" y="2" width="1" height="1" fill="#222034" />
<rect x="39" y="2" width="1" height="1" fill="#222034" />
<rect x="38" y="3" width="1" height="1" fill="#222034" />
<rect x="39" y="3" width="1" height="1" fill="#222034" />
<rect x="37" y="6" width="1" height="1" fill="#222034" />
<rect x="38" y="6" width="1" height="1" fill="#222034" />
<rect x="37" y="7" width="1" height="1" fill="#222034" />
<rect x="38" y="7" width="1" height="1" fill="#222034" />
<rect x="36" y="8" width="1" height="1" fill="#222034" />
<rect x="37" y="8" width="1" height="1" fill="#222034" />
<rect x="38" y="8" width="1" height="1" fill="#222034" />
<rect x="36" y="9" width="1" height="1" fill="#222034" />
<rect x="37" y="9" width="1" height="1" fill="#222034" />
<rect x="35" y="10" width="1" height="1" fill="#222034" />
<rect x="36" y="10" width="1" height="1" fill="#222034" />
<rect x="37" y="10" width="1" height="1" fill="#222034" />
<rect x="36" y="11" width="1" height="1" fill="#222034" />
<rect x="32" y="13" width="1" height="1" fill="#222034" />
<rect x="33" y="13" width="1" height="1" fill="#222034" />
<rect x="31" y="14" width="1" height="1" fill="#222034" />
<rect x="32" y="14" width="1" height="1" fill="#222034" />
<rect x="33" y="14" width="1" height="1" fill="#222034" />
<rect x="30" y="15" width="1" height="1" fill="#222034" />
<rect x="31" y="15" width="1" height="1" fill="#222034" />
<rect x="32" y="15" width="1" height="1" fill="#222034" />
<rect x="29" y="16" width="1" height="1" fill="#222034" />
<rect x="30" y="16" width="1" height="1" fill="#222034" />
<rect x="31" y="16" width="1" height="1" fill="#222034" />
<rect x="30" y="17" width="1" height="1" fill="#222034" />
<rect x="25" y="18" width="1" height="1" fill="#222034" />
<rect x="26" y="18" width="1" height="1" fill="#222034" />
<rect x="27" y="18" width="1" height="1" fill="#222034" />
<rect x="23" y="19" width="1" height="1" fill="#222034" />
<rect x="24" y="19" width="1" height="1" fill="#222034" />
<rect x="25" y="19" width="1" height="1" fill="#222034" />
<rect x="26" y="19" width="1" height="1" fill="#222034" />
<rect x="27" y="19" width="1" height="1" fill="#222034" />
<rect x="20" y="20" width="1" height="1" fill="#222034" />
<rect x="21" y="20" width="1" height="1" fill="#222034" />
<rect x="22" y="20" width="1" height="1" fill="#222034" />
<rect x="23" y="20" width="1" height="1" fill="#222034" />
<rect x="24" y="20" width="1" height="1" fill="#222034" />
<rect x="25" y="20" width="1" height="1" fill="#222034" />
<rect x="20" y="21" width="1" height="1" fill="#222034" />
<rect x="21" y="21" width="1" height="1" fill="#222034" />
<rect x="22" y="21" width="1" height="1" fill="#222034" />
<rect x="23" y="21" width="1" height="1" fill="#222034" />
<rect x="16" y="22" width="1" height="1" fill="#222034" />
<rect x="17" y="22" width="1" height="1" fill="#222034" />
<rect x="13" y="23" width="1" height="1" fill="#222034" />
<rect x="14" y="23" width="1" height="1" fill="#222034" />
<rect x="15" y="23" width="1" height="1" fill="#222034" />
<rect x="16" y="23" width="1" height="1" fill="#222034" />
<rect x="17" y="23" width="1" height="1" fill="#222034" />
<rect x="11" y="24" width="1" height="1" fill="#222034" />
<rect x="12" y="24" width="1" height="1" fill="#222034" />
<rect x="13" y="24" width="1" height="1" fill="#222034" />
<rect x="14" y="24" width="1" height="1" fill="#222034" />
<rect x="15" y="24" width="1" height="1" fill="#222034" />
<rect x="16" y="24" width="1" height="1" fill="#222034" />
<rect x="11" y="25" width="1" height="1" fill="#222034" />
<rect x="12" y="25" width="1" height="1" fill="#222034" />
<rect x="13" y="25" width="1" height="1" fill="#222034" />
<rect x="8" y="26" width="1" height="1" fill="#222034" />
<rect x="7" y="27" width="1" height="1" fill="#222034" />
<rect x="8" y="27" width="1" height="1" fill="#222034" />
<rect x="9" y="27" width="1" height="1" fill="#222034" />
<rect x="6" y="28" width="1" height="1" fill="#222034" />
<rect x="7" y="28" width="1" height="1" fill="#222034" />
<rect x="8" y="28" width="1" height="1" fill="#222034" />
<rect x="5" y="29" width="1" height="1" fill="#222034" />
<rect x="6" y="29" width="1" height="1" fill="#222034" />
<rect x="7" y="29" width="1" height="1" fill="#222034" />
<rect x="4" y="30" width="1" height="1" fill="#222034" />
<rect x="5" y="30" width="1" height="1" fill="#222034" />
<rect x="6" y="30" width="1" height="1" fill="#222034" />
<rect x="4" y="31" width="1" height="1" fill="#222034" />
<rect x="5" y="31" width="1" height="1" fill="#222034" />
<rect x="5" y="32" width="1" height="1" fill="#222034" />
<rect x="2" y="34" width="1" height="1" fill="#222034" />
<rect x="1" y="35" width="1" height="1" fill="#222034" />
<rect x="2" y="35" width="1" height="1" fill="#222034" />
<rect x="3" y="35" width="1" height="1" fill="#222034" />
<rect x="1" y="36" width="1" height="1" fill="#222034" />
<rect x="2" y="36" width="1" height="1" fill="#222034" />
<rect x="0" y="37" width="1" height="1" fill="#222034" />
<rect x="1" y="37" width="1" height="1" fill="#222034" />
<rect x="2" y="37" width="1" height="1" fill="#222034" />
<rect x="0" y="38" width="1" height="1" fill="#222034" />
<rect x="1" y="38" width="1" height="1" fill="#222034" />
<rect x="0" y="39" width="1" height="1" fill="#222034" />
<rect x="1" y="39" width="1" height="1" fill="#222034" />
</svg>